<svg width="0" height="0" style="position: absolute; width: 0; height: 0; overflow: hidden;">
  <symbol fill="none" xmlns="http://www.w3.org/2000/svg" viewBox="0 0 16 16" id="areasColor">
    <path d="M0.780998 11.8044C0.349665 11.5865 0.349665 11.2332 0.780998 11.0153L7.219 7.76294C7.65033 7.54504 8.34966 7.54504 8.781 7.76294L15.219 11.0153C15.6503 11.2332 15.6503 11.5865 15.219 11.8044L8.781 15.0568C8.34966 15.2747 7.65033 15.2747 7.219 15.0568L0.780998 11.8044Z" fill="#802305"></path>
    <rect width="8.96289" height="8.96289" rx="0.875" transform="matrix(0.892569 -0.45091 0.892569 0.45091 0 9.81317)" fill="#BC460D"></rect>
    <rect width="8.96289" height="8.96289" rx="0.875" transform="matrix(0.892569 -0.450911 0.892569 0.450911 0 8.21655)" fill="#E96612"></rect>
    <rect width="8.96289" height="8.96289" rx="0.875" transform="matrix(0.892569 -0.45091 0.892569 0.45091 0 6.61975)" fill="#F49209"></rect>
    <rect width="8.96289" height="8.96289" rx="0.875" transform="matrix(0.892569 -0.45091 0.892569 0.45091 0 5.02307)" fill="#FDB501"></rect>
  </symbol>
  <symbol fill="none" xmlns="http://www.w3.org/2000/svg" viewBox="0 0 16 16" id="calcColor">
    <rect x="2" y="1" width="12" height="14" rx="1" fill="#7B7B7B"></rect>
    <rect x="3" y="2" width="10" height="3" rx="1" fill="url(#paint0_linear_2486_8)"></rect>
    <rect x="4" y="6" width="2" height="2" rx="1" fill="white"></rect>
    <rect x="4" y="9" width="2" height="2" rx="1" fill="white"></rect>
    <rect x="4" y="12" width="2" height="2" rx="1" fill="white"></rect>
    <rect x="7" y="6" width="2" height="2" rx="1" fill="white"></rect>
    <rect x="7" y="9" width="2" height="2" rx="1" fill="white"></rect>
    <rect x="7" y="12" width="2" height="2" rx="1" fill="white"></rect>
    <rect x="10" y="6" width="2" height="2" rx="1" fill="white"></rect>
    <rect x="10" y="9" width="2" height="5" rx="1" fill="#104582"></rect>
    <defs>
      <linearGradient id="paint0_linear_2486_8" x1="3" y1="2" x2="13" y2="5" gradientUnits="userSpaceOnUse">
        <stop stop-color="#31BBEE"></stop>
        <stop offset="1" stop-color="#1EA2E4"></stop>
      </linearGradient>
    </defs>
  </symbol>
  <symbol fill="none" xmlns="http://www.w3.org/2000/svg" viewBox="0 0 16 16" id="calendarColor">
    <g clip-path="url(#clip0_2110_2578)">
      <path d="M0.000488281 3C0.000488281 2.44772 0.448204 2 1.00049 2H15.0005C15.5528 2 16.0005 2.44772 16.0005 3V14C16.0005 14.5523 15.5528 15 15.0005 15H1.00049C0.448204 15 0.000488281 14.5523 0.000488281 14V3Z" fill="url(#paint0_linear_2110_2578)"></path>
      <path d="M5.00049 1H6.00049V2H5.00049V1Z" fill="#5E92FF"></path>
      <path d="M10.0005 1H11.0005V2H10.0005V1Z" fill="#5E92FF"></path>
      <path d="M3.00049 12L6.00049 8L10.0005 9L13.0005 5" stroke="#9FBBFE"></path>
      <ellipse cx="3.00049" cy="12" rx="1" ry="1" transform="rotate(-90 3.00049 12)" fill="white"></ellipse>
      <ellipse cx="10.0005" cy="9" rx="1" ry="1" transform="rotate(-90 10.0005 9)" fill="white"></ellipse>
      <ellipse cx="6.00049" cy="8" rx="1" ry="1" transform="rotate(-90 6.00049 8)" fill="white"></ellipse>
      <ellipse cx="13.0005" cy="5" rx="1" ry="1" transform="rotate(-90 13.0005 5)" fill="white"></ellipse>
    </g>
    <defs>
      <linearGradient id="paint0_linear_2110_2578" x1="7.33382" y1="1.9375" x2="7.33382" y2="15.0625" gradientUnits="userSpaceOnUse">
        <stop stop-color="#5D91FF"></stop>
        <stop offset="1" stop-color="#286CFD"></stop>
      </linearGradient>
      <clipPath id="clip0_2110_2578">
        <rect width="16" height="16" fill="white"></rect>
      </clipPath>
    </defs>
  </symbol>
  <symbol fill="none" xmlns="http://www.w3.org/2000/svg" viewBox="0 0 16 16" id="coinColor">
    <g clip-path="url(#clip0_2109_21)">
      <rect width="16" height="16" rx="8" fill="url(#paint0_linear_2109_21)"></rect>
      <path fill-rule="evenodd" clip-rule="evenodd" d="M8.0001 2.1C8.27624 2.1 8.5001 2.32386 8.5001 2.6V4.5H11.1001C11.3762 4.5 11.6001 4.72386 11.6001 5C11.6001 5.27614 11.3762 5.5 11.1001 5.5H8.5001V7.65H9.8501C10.4308 7.65 10.997 7.85714 11.422 8.23966C11.8488 8.62374 12.1001 9.15666 12.1001 9.725C12.1001 10.2933 11.8488 10.8263 11.422 11.2103C10.997 11.5929 10.4308 11.8 9.8501 11.8H8.5001V13.4C8.5001 13.6761 8.27624 13.9 8.0001 13.9C7.72396 13.9 7.5001 13.6761 7.5001 13.4V11.8H5.6001C5.32396 11.8 5.1001 11.5761 5.1001 11.3C5.1001 11.0239 5.32396 10.8 5.6001 10.8H7.5001V8.65H7.3501C6.76937 8.65 6.2032 8.44286 5.77818 8.06034C5.35142 7.67626 5.1001 7.14334 5.1001 6.575C5.1001 6.00666 5.35142 5.47374 5.77818 5.08966C6.2032 4.70714 6.76937 4.5 7.3501 4.5H7.5001V2.6C7.5001 2.32386 7.72396 2.1 8.0001 2.1ZM7.5001 5.5H7.3501C7.00257 5.5 6.6785 5.62473 6.44714 5.83295C6.21752 6.03961 6.1001 6.30791 6.1001 6.575C6.1001 6.84209 6.21752 7.11039 6.44714 7.31705C6.6785 7.52527 7.00257 7.65 7.3501 7.65H7.5001V5.5ZM8.5001 8.65V10.8H9.8501C10.1976 10.8 10.5217 10.6753 10.7531 10.467C10.9827 10.2604 11.1001 9.99209 11.1001 9.725C11.1001 9.45791 10.9827 9.18961 10.7531 8.98295C10.5217 8.77473 10.1976 8.65 9.8501 8.65H8.5001Z" fill="url(#paint1_linear_2109_21)"></path>
    </g>
    <defs>
      <linearGradient id="paint0_linear_2109_21" x1="8" y1="0" x2="8" y2="13.3333" gradientUnits="userSpaceOnUse">
        <stop stop-color="#FED200"></stop>
        <stop offset="1" stop-color="#F49957"></stop>
      </linearGradient>
      <linearGradient id="paint1_linear_2109_21" x1="8.6001" y1="7.01667" x2="8.6001" y2="14.8833" gradientUnits="userSpaceOnUse">
        <stop stop-color="#FCFCFC"></stop>
        <stop offset="1" stop-color="#DADADA"></stop>
      </linearGradient>
      <clipPath id="clip0_2109_21">
        <rect width="16" height="16" fill="white"></rect>
      </clipPath>
    </defs>
  </symbol>
  <symbol fill="none" xmlns="http://www.w3.org/2000/svg" viewBox="0 0 16 16" id="colmatantColor">
    <path d="M14 9C14 12.3137 11.3137 15 8 15C4.68629 15 2 12.3137 2 9C2 5.74129 5.98219 2.48258 7.45817 1.38668C7.7823 1.14602 8.2177 1.14602 8.54183 1.38668C10.0178 2.48258 14 5.74129 14 9Z" fill="url(#paint0_linear_8612_17074)"></path>
    <defs>
      <linearGradient id="paint0_linear_8612_17074" x1="8" y1="1" x2="8" y2="15" gradientUnits="userSpaceOnUse">
        <stop stop-color="#32BCEF"></stop>
        <stop offset="1" stop-color="#1EA2E4"></stop>
      </linearGradient>
    </defs>
  </symbol>
  <symbol fill="none" xmlns="http://www.w3.org/2000/svg" viewBox="0 0 16 16" id="folderColor">
    <rect x="1" y="4" width="14" height="10" rx="1" fill="url(#paint0_linear_1914_3998)"></rect>
    <path d="M1 4C1 3.44772 1.44772 3 2 3H6.50774C6.59294 3 6.67592 3.0272 6.74458 3.07765L8 4L6.74458 4.92235C6.67592 4.9728 6.59294 5 6.50774 5H1V4Z" fill="url(#paint1_linear_1914_3998)"></path>
    <defs>
      <linearGradient id="paint0_linear_1914_3998" x1="8" y1="4" x2="8" y2="14" gradientUnits="userSpaceOnUse">
        <stop stop-color="#FFD767"></stop>
        <stop offset="1" stop-color="#FEC52C"></stop>
      </linearGradient>
      <linearGradient id="paint1_linear_1914_3998" x1="4.5" y1="2.66667" x2="4.5" y2="5.33333" gradientUnits="userSpaceOnUse">
        <stop stop-color="#D59500"></stop>
        <stop offset="1" stop-color="#A56E00"></stop>
      </linearGradient>
    </defs>
  </symbol>
  <symbol fill="none" xmlns="http://www.w3.org/2000/svg" viewBox="0 0 16 16" id="geomechColor">
    <path d="M0 3C0 2.44772 0.447715 2 1 2H15C15.5523 2 16 2.44772 16 3V5H0V3Z" fill="#FDB501"></path>
    <path d="M0 11H16V13C16 13.5523 15.5523 14 15 14H1C0.447715 14 0 13.5523 0 13V11Z" fill="#802305"></path>
    <rect y="5" width="16" height="6" fill="#E96612"></rect>
  </symbol>
  <symbol fill="none" xmlns="http://www.w3.org/2000/svg" viewBox="0 0 16 16" id="gisColor">
    <path fill-rule="evenodd" clip-rule="evenodd" d="M4 1H3V15H4V1ZM8 2.5C8 2.6272 7.98417 2.75071 7.95436 2.86865L11.6006 5.29946C11.8512 5.11141 12.1626 5 12.5 5C13.3284 5 14 5.67157 14 6.5C14 7.32843 13.3284 8 12.5 8C12.0955 8 11.7285 7.83992 11.4587 7.57967L7.98867 9.31468C7.99615 9.37541 8 9.43725 8 9.5C8 9.6272 7.98417 9.75071 7.95436 9.86865L11.6006 12.2995C11.8512 12.1114 12.1626 12 12.5 12C13.3284 12 14 12.6716 14 13.5C14 14.3284 13.3284 15 12.5 15C11.6716 15 11 14.3284 11 13.5C11 13.3728 11.0158 13.2493 11.0456 13.1313L7.39943 10.7005C7.14883 10.8886 6.83742 11 6.5 11C5.67157 11 5 10.3284 5 9.5C5 8.67157 5.67157 8 6.5 8C6.90446 8 7.27152 8.16008 7.54131 8.42033L11.0113 6.68532C11.0039 6.62459 11 6.56275 11 6.5C11 6.3728 11.0158 6.24929 11.0456 6.13135L7.39943 3.70054C7.14883 3.88859 6.83742 4 6.5 4C5.67157 4 5 3.32843 5 2.5C5 1.67157 5.67157 1 6.5 1C7.32843 1 8 1.67157 8 2.5Z" fill="url(#paint0_linear_2107_69)"></path>
    <defs>
      <linearGradient id="paint0_linear_2107_69" x1="8.5" y1="1" x2="8.5" y2="15" gradientUnits="userSpaceOnUse">
        <stop stop-color="#1EE184"></stop>
        <stop offset="1" stop-color="#17BD6E"></stop>
      </linearGradient>
    </defs>
  </symbol>
  <symbol fill="none" xmlns="http://www.w3.org/2000/svg" viewBox="0 0 16 16" id="grpColor">
    <g clip-path="url(#clip0_2269_44)">
      <ellipse cy="8" rx="16" ry="7" fill="url(#paint0_linear_2269_44)"></ellipse>
      <ellipse cy="8" rx="13" ry="5" fill="url(#paint1_linear_2269_44)"></ellipse>
      <ellipse cx="0.5" cy="8" rx="9.5" ry="3" fill="url(#paint2_linear_2269_44)"></ellipse>
      <ellipse cx="1" cy="8" rx="6" ry="1" fill="url(#paint3_linear_2269_44)"></ellipse>
    </g>
    <defs>
      <linearGradient id="paint0_linear_2269_44" x1="0" y1="1" x2="0" y2="15" gradientUnits="userSpaceOnUse">
        <stop stop-color="#31BBEE"></stop>
        <stop offset="1" stop-color="#1EA2E4"></stop>
      </linearGradient>
      <linearGradient id="paint1_linear_2269_44" x1="0" y1="3" x2="0" y2="13" gradientUnits="userSpaceOnUse">
        <stop stop-color="#ACC548"></stop>
        <stop offset="1" stop-color="#71A61B"></stop>
      </linearGradient>
      <linearGradient id="paint2_linear_2269_44" x1="0.5" y1="5" x2="0.5" y2="11" gradientUnits="userSpaceOnUse">
        <stop stop-color="#FFCC15"></stop>
        <stop offset="1" stop-color="#F1BE0A"></stop>
      </linearGradient>
      <linearGradient id="paint3_linear_2269_44" x1="1" y1="7.00295" x2="1" y2="8.88705" gradientUnits="userSpaceOnUse">
        <stop stop-color="#FC7D5B"></stop>
        <stop offset="0.06" stop-color="#F8734F"></stop>
        <stop offset="0.18" stop-color="#F3653D"></stop>
        <stop offset="0.326" stop-color="#F05B31"></stop>
        <stop offset="0.523" stop-color="#EE552A"></stop>
        <stop offset="1" stop-color="#ED5328"></stop>
      </linearGradient>
      <clipPath id="clip0_2269_44">
        <path d="M0 2C0 1.44772 0.447715 1 1 1H16V15H1C0.447715 15 0 14.5523 0 14V2Z" fill="white"></path>
      </clipPath>
    </defs>
  </symbol>
  <symbol fill="none" xmlns="http://www.w3.org/2000/svg" viewBox="0 0 16 16" id="handbagColor">
    <path d="M9.5 1H6.5C6.224 1 6 1.224 6 1.5V2H10V1.5C10 1.224 9.776 1 9.5 1Z" fill="url(#paint0_linear_1914_3996)"></path>
    <path d="M15.3 15H0.7C0.315 15 0 14.6906 0 14.3125V3.375C0 2.61875 0.63 2 1.4 2H14.6C15.37 2 16 2.61875 16 3.375V14.3125C16 14.6906 15.685 15 15.3 15Z" fill="url(#paint1_linear_1914_3996)"></path>
    <path d="M15.4039 7.98868L8 9L0.59605 7.98868C0.2534 7.93489 0 7.62505 0 7.26032V3.47368C0 2.66316 0.63 2 1.4 2H14.6C15.37 2 16 2.66316 16 3.47368V7.26032C16 7.62505 15.7466 7.93489 15.4039 7.98868Z" fill="url(#paint2_linear_1914_3996)"></path>
    <path d="M8.75 6H7.25C7.112 6 7 6.112 7 6.25V7.75C7 7.888 7.112 8 7.25 8H8.75C8.888 8 9 7.888 9 7.75V6.25C9 6.112 8.888 6 8.75 6Z" fill="#F6ECA5"></path>
    <defs>
      <linearGradient id="paint0_linear_1914_3996" x1="8" y1="1.993" x2="8" y2="1.10267" gradientUnits="userSpaceOnUse">
        <stop stop-color="#B36720"></stop>
        <stop offset="0.659" stop-color="#E37C33"></stop>
      </linearGradient>
      <linearGradient id="paint1_linear_1914_3996" x1="8" y1="13" x2="8" y2="2" gradientUnits="userSpaceOnUse">
        <stop stop-color="#723103"></stop>
        <stop offset="0.450536" stop-color="#AB5618"></stop>
      </linearGradient>
      <linearGradient id="paint2_linear_1914_3996" x1="8" y1="2.01032" x2="8" y2="8.60468" gradientUnits="userSpaceOnUse">
        <stop stop-color="#EE8840"></stop>
        <stop offset="0.06" stop-color="#E27D35"></stop>
        <stop offset="0.18" stop-color="#E2792E"></stop>
        <stop offset="0.326" stop-color="#D66B1F"></stop>
        <stop offset="0.523" stop-color="#D66B1F"></stop>
        <stop offset="1" stop-color="#D66B1F"></stop>
      </linearGradient>
    </defs>
  </symbol>
  <symbol fill="none" xmlns="http://www.w3.org/2000/svg" viewBox="0 0 16 16" id="improveColor">
    <rect x="1" y="10" width="2" height="5" fill="#0D62AB"></rect>
    <rect x="4" y="11" width="2" height="4" fill="#0078D4"></rect>
    <rect x="7" y="6" width="2" height="9" fill="#199BE2"></rect>
    <rect x="10" y="7" width="2" height="8" fill="#35C1F1"></rect>
    <rect x="13" y="1" width="2" height="14" fill="#50E6FF"></rect>
  </symbol>
  <symbol fill="none" xmlns="http://www.w3.org/2000/svg" viewBox="0 0 16 16" id="nktColor">
    <rect x="4" width="8" height="16" rx="1" fill="#64717C"></rect>
    <rect x="3" y="2" width="10" height="1" rx="0.5" fill="#889097"></rect>
    <path d="M3 7C3 6.44772 3.44772 6 4 6H12C12.5523 6 13 6.44772 13 7H3Z" fill="#889097"></path>
    <rect x="3" y="7" width="10" height="2" fill="url(#paint0_linear_2486_19)"></rect>
    <path d="M3 9H13C13 9.55228 12.5523 10 12 10H4C3.44772 10 3 9.55228 3 9Z" fill="#889097"></path>
    <rect x="3" y="13" width="10" height="1" rx="0.5" fill="#889097"></rect>
    <defs>
      <linearGradient id="paint0_linear_2486_19" x1="3.08197" y1="7.96552" x2="13" y2="7.96552" gradientUnits="userSpaceOnUse">
        <stop stop-color="#FFD45C"></stop>
        <stop offset="1" stop-color="#FEC93A"></stop>
      </linearGradient>
    </defs>
  </symbol>
  <symbol fill="none" xmlns="http://www.w3.org/2000/svg" viewBox="0 0 16 16" id="sideTube">
    <path d="M14.5 4C14.5 7.31371 11.8137 10 8.5 10C5.18629 10 2.5 7.31371 2.5 4" stroke="#E06850"></path>
    <rect x="2" y="1" width="2" height="14" fill="url(#paint0_linear_8662_17244)"></rect>
    <defs>
      <linearGradient id="paint0_linear_8662_17244" x1="2" y1="0" x2="2" y2="16" gradientUnits="userSpaceOnUse">
        <stop stop-color="#889099"></stop>
        <stop offset="1" stop-color="#747B81"></stop>
      </linearGradient>
    </defs>
  </symbol>
  <symbol fill="none" xmlns="http://www.w3.org/2000/svg" viewBox="0 0 16 16" id="sumColor">
    <g clip-path="url(#clip0_1914_3997)">
      <path d="M1.00024 2V14C1.00024 14.5523 1.44796 15 2.00024 15H8.00024H11.4199C11.7788 15 12.1101 14.8077 12.2882 14.4961L15.7167 8.49614C15.8924 8.18871 15.8924 7.81129 15.7167 7.50386L12.2882 1.50386C12.1101 1.19229 11.7788 1 11.4199 1H8.00024H2.00024C1.44796 1 1.00024 1.44772 1.00024 2Z" fill="#129E85"></path>
      <path fill-rule="evenodd" clip-rule="evenodd" d="M4.00024 4H11.0002V6.40055L9.44705 4.79836H6.33003L8.66514 8.00273L6.33003 11.2016H9.44705L11.0002 9.59945V12H4.00024V11.2016L7.11195 8.00273L4.00024 4.79836V4Z" fill="white"></path>
    </g>
    <defs>
      <clipPath id="clip0_1914_3997">
        <rect width="15.9999" height="16" fill="white"></rect>
      </clipPath>
    </defs>
  </symbol>
  <symbol fill="none" xmlns="http://www.w3.org/2000/svg" viewBox="0 0 16 16" id="opzColor">
    <rect x="1" y="1" width="8" height="14" fill="url(#paint0_linear_2269_45)"></rect>
    <rect width="6" height="14" transform="matrix(-1 0 0 1 11 1)" fill="url(#paint1_linear_2269_45)"></rect>
    <rect width="3" height="14" transform="matrix(-1 0 0 1 13 1)" fill="url(#paint2_linear_2269_45)"></rect>
    <path d="M13 15H14C14.5523 15 15 14.5523 15 14V2.00002C15 1.44773 14.5523 1.00002 14 1.00002H13V15Z" fill="url(#paint3_linear_2269_45)"></path>
    <defs>
      <linearGradient id="paint0_linear_2269_45" x1="5" y1="1" x2="5" y2="15" gradientUnits="userSpaceOnUse">
        <stop stop-color="#247BA1"></stop>
        <stop offset="1" stop-color="#175B79"></stop>
      </linearGradient>
      <linearGradient id="paint1_linear_2269_45" x1="3" y1="0" x2="3" y2="14" gradientUnits="userSpaceOnUse">
        <stop stop-color="#FFCC15"></stop>
        <stop offset="1" stop-color="#F1BE0A"></stop>
      </linearGradient>
      <linearGradient id="paint2_linear_2269_45" x1="1.5" y1="0" x2="1.5" y2="14" gradientUnits="userSpaceOnUse">
        <stop stop-color="#247BA1"></stop>
        <stop offset="1" stop-color="#175B79"></stop>
      </linearGradient>
      <linearGradient id="paint3_linear_2269_45" x1="14" y1="15" x2="14" y2="1.00002" gradientUnits="userSpaceOnUse">
        <stop stop-color="#FFCC15"></stop>
        <stop offset="1" stop-color="#F1BE0A"></stop>
      </linearGradient>
    </defs>
  </symbol>
  <symbol fill="none" xmlns="http://www.w3.org/2000/svg" viewBox="0 0 16 16" id="testFraq">
    <rect y="2" width="12" height="8" rx="1" fill="url(#paint0_linear_7084_15467)"></rect>
    <rect x="4" y="6" width="12" height="8" rx="1" fill="url(#paint1_linear_7084_15467)"></rect>
    <defs>
      <linearGradient id="paint0_linear_7084_15467" x1="0" y1="2" x2="10.9527" y2="11.2413" gradientUnits="userSpaceOnUse">
        <stop stop-color="#0D61A9"></stop>
        <stop offset="1" stop-color="#145694"></stop>
      </linearGradient>
      <linearGradient id="paint1_linear_7084_15467" x1="10" y1="6" x2="10" y2="14" gradientUnits="userSpaceOnUse">
        <stop stop-color="#50E6FF"></stop>
        <stop offset="1" stop-color="#46DCEB"></stop>
      </linearGradient>
    </defs>
  </symbol>
  <symbol fill="none" xmlns="http://www.w3.org/2000/svg" viewBox="0 0 16 16" id="wellColor">
    <path fill-rule="evenodd" clip-rule="evenodd" d="M7 1H6V2H7.4402L4.78418 7.27515L4.78036 7.28274L4.77679 7.29047L1.68008 14H0V15L1.21855 15H2H14H14.7815L16 15V14H14.3199L11.2232 7.29047L11.2196 7.28274L11.2158 7.27515L8.5598 2H10V1H9H8.0563H7.9437H7ZM8 10.3503L12.5722 14H3.42784L8 10.3503ZM5.41741 8.28875L3.33944 12.791L7.19854 9.71053L5.41741 8.28875ZM12.6606 12.791L8.80146 9.71053L10.5826 8.28875L12.6606 12.791ZM10.1401 7.3624L8 9.07076L5.85985 7.3624L8 3.11183L10.1401 7.3624Z" fill="url(#paint0_linear_1914_3995)"></path>
    <defs>
      <linearGradient id="paint0_linear_1914_3995" x1="8" y1="0.888172" x2="8" y2="15" gradientUnits="userSpaceOnUse">
        <stop stop-color="#26A0F1"></stop>
        <stop offset="1" stop-color="#0680DD"></stop>
      </linearGradient>
    </defs>
  </symbol>
  <symbol fill="none" xmlns="http://www.w3.org/2000/svg" viewBox="0 0 16 16" id="wellConstructionColor">
    <path fill-rule="evenodd" clip-rule="evenodd" d="M2 1H3H4H5V15H4V9H3V5H2V1Z" fill="url(#paint0_linear_2107_93)"></path>
    <path fill-rule="evenodd" clip-rule="evenodd" d="M11 1H12H13H14V5H13V9H12V15H11V1Z" fill="url(#paint1_linear_2107_93)"></path>
    <path d="M7 1H9V11H7V1Z" fill="url(#paint2_linear_2107_93)"></path>
    <defs>
      <linearGradient id="paint0_linear_2107_93" x1="2" y1="0" x2="2" y2="16" gradientUnits="userSpaceOnUse">
        <stop stop-color="#889099"></stop>
        <stop offset="1" stop-color="#747B81"></stop>
      </linearGradient>
      <linearGradient id="paint1_linear_2107_93" x1="11" y1="0" x2="11" y2="16" gradientUnits="userSpaceOnUse">
        <stop stop-color="#889099"></stop>
        <stop offset="1" stop-color="#747B81"></stop>
      </linearGradient>
      <linearGradient id="paint2_linear_2107_93" x1="8" y1="0.920123" x2="8" y2="11" gradientUnits="userSpaceOnUse">
        <stop stop-color="#26A0F1"></stop>
        <stop offset="1" stop-color="#0680DD"></stop>
      </linearGradient>
    </defs>
  </symbol>
  <symbol fill="none" xmlns="http://www.w3.org/2000/svg" viewBox="0 0 16 16" id="analyzeGroupColor">
    <g clip-path="url(#clip0_3839_17290)">
      <g clip-path="url(#clip1_3839_17290)">
        <path opacity="0.2" d="M8.8276 2.34969L8.97468 2.5H9.18497H14.5C15.0523 2.5 15.5 2.94772 15.5 3.5V14.5C15.5 15.0523 15.0523 15.5 14.5 15.5H1.5C0.947715 15.5 0.5 15.0523 0.5 14.5V1.5C0.5 0.947715 0.947715 0.5 1.5 0.5H6.64967C6.8768 0.5 7.09782 0.576113 7.26358 0.730464C7.60323 1.04673 8.02421 1.49572 8.36679 1.86228C8.36679 1.86228 8.3668 1.86228 8.3668 1.86229L8.39927 1.89703L8.39928 1.89704L8.40311 1.90114C8.55921 2.06819 8.69757 2.21625 8.80202 2.32355L8.80293 2.32447L8.8276 2.34969Z" fill="#989898" stroke="#6F6F6F"></path>
      </g>
      <path d="M3 13.5L13 13.5" stroke="#B1B1B1"></path>
      <path d="M6.5 6.5C6.5 8 7.9 9.5 9.5 9.5M4 8C4 9.5 5.4 11 7 11M9 5C9 6.5 10.4 8 12 8" stroke="#FA6C0E"></path>
    </g>
    <defs>
      <clipPath id="clip0_3839_17290">
        <rect width="16" height="16" fill="white"></rect>
      </clipPath>
      <clipPath id="clip1_3839_17290">
        <rect width="16" height="16" fill="white"></rect>
      </clipPath>
    </defs>
  </symbol>
  <symbol fill="none" xmlns="http://www.w3.org/2000/svg" viewBox="0 0 16 16" id="barChart">
    <path d="M5 3H9V5H5V3Z" fill="#E55759"></path>
    <path d="M5 7H14V9H5V7Z" fill="#E55759"></path>
    <path d="M5 11H11V13H5V11Z" fill="#E55759"></path>
    <rect x="2" y="2" width="1" height="12" fill="#9D9D9D"></rect>
  </symbol>
  <symbol fill="none" xmlns="http://www.w3.org/2000/svg" viewBox="0 0 16 16" id="chartLineColor">
    <path d="M2 2H3V14H2V13V2Z" fill="#9D9D9D"></path>
    <path fill-rule="evenodd" clip-rule="evenodd" d="M13 14C9.92277 10.8492 8.04321 6.63239 8.04321 2H7C7 6.57077 8.73116 10.7567 11.603 14H13Z" fill="#E55759"></path>
  </symbol>
  <symbol fill="none" xmlns="http://www.w3.org/2000/svg" viewBox="0 0 16 16" id="chartLineDashed">
    <path d="M2 2H3V14H2V13V2Z" fill="#9D9D9D"></path>
    <path d="M7.00011 2H8.00011V3H7.00011V2Z" fill="#E55759"></path>
    <path d="M11.1118 13.2967L11.8152 12.586L12.526 13.2894L11.8225 14.0002L11.1118 13.2967Z" fill="#E55759"></path>
    <path d="M7 5.48995L7.96956 5.2451L8.45926 7.18422L7.4897 7.42907L7 5.48995Z" fill="#E55759"></path>
    <path d="M8.50008 9.98648L9.31864 9.41205L10.4675 11.0492L9.64895 11.6236L8.50008 9.98648Z" fill="#E55759"></path>
  </symbol>
  <symbol fill="none" xmlns="http://www.w3.org/2000/svg" viewBox="0 0 16 16" id="chartLineGradientColor">
    <path d="M10.5 12L9.5 9.5L8 6L7.5 2H2V14H12L11.5 13L10.5 12Z" fill="url(#paint0_linear_2286_104)" fill-opacity="0.8"></path>
    <path d="M2 2H3V14H2V13V2Z" fill="#C8CBD6"></path>
    <path fill-rule="evenodd" clip-rule="evenodd" d="M13 14C9.92277 10.8492 8.04321 6.63239 8.04321 2H7C7 6.57077 8.73116 10.7567 11.603 14H13Z" fill="#E55759"></path>
    <defs>
      <linearGradient id="paint0_linear_2286_104" x1="2" y1="8" x2="12" y2="8" gradientUnits="userSpaceOnUse">
        <stop stop-color="#E55759" stop-opacity="0"></stop>
        <stop offset="1" stop-color="#E55759"></stop>
      </linearGradient>
    </defs>
  </symbol>
  <symbol fill="none" xmlns="http://www.w3.org/2000/svg" viewBox="0 0 16 16" id="clusterColor">
    <path fill-rule="evenodd" clip-rule="evenodd" d="M5.06152 3L1.06152 13H2.13856L6.13856 3H5.06152Z" fill="#17AE66"></path>
    <path fill-rule="evenodd" clip-rule="evenodd" d="M8.5731 3.28736C8.73395 2.88817 9.26601 2.88817 9.42685 3.28736L10.06 4.85875L8.99997 5.53525L7.93994 4.85875L8.5731 3.28736ZM9.90266 6.11132L10.4293 5.77524L10.7939 6.68009L9.90266 6.11132ZM8.99997 6.6874L10.8998 7.89985L9.00294 9.17047L7.1009 7.89936L8.99997 6.6874ZM6.4263 8.61532L8.13099 9.75455L5.1674 11.7397L6.4263 8.61532ZM9.00351 10.3376L4.52304 13.3389L4.25666 14H3.24609L7.71935 2.89818C8.20188 1.70061 9.79806 1.70061 10.2806 2.89818L14.7539 14H13.7433L13.4704 13.3228L9.00351 10.3376ZM9.87546 9.75357L12.8271 11.7261L11.5739 8.61589L9.87546 9.75357ZM7.57066 5.77524L7.20607 6.68009L8.09729 6.11132L7.57066 5.77524Z" fill="#17AE66"></path>
  </symbol>
  <symbol fill="none" xmlns="http://www.w3.org/2000/svg" viewBox="0 0 16 16" id="documentColor">
    <path fill-rule="evenodd" clip-rule="evenodd" d="M10.0026 10.999H4.99866V10.001H10.0026V10.999ZM10.0026 9.00293H4.99866V7.99805H10.0026V9.00293ZM8.99768 7H4.99866V6.00195H8.99768V7ZM4.00061 2.99902V13.002H11.0006V6L7.99963 2.99902H4.00061ZM4.00061 14C3.69983 14 3.45829 13.9089 3.276 13.7266C3.09371 13.5443 3.00256 13.3027 3.00256 13.002V2.99902C3.00256 2.69824 3.09371 2.45671 3.276 2.27441C3.45829 2.09212 3.69983 2.00098 4.00061 2.00098H8.41663L11.9987 5.58301V13.002C11.9987 13.2845 11.8984 13.5215 11.6979 13.7129C11.4974 13.9043 11.2649 14 11.0006 14H4.00061Z" fill="#C66829"></path>
  </symbol>
  <symbol fill="none" xmlns="http://www.w3.org/2000/svg" viewBox="0 0 16 16" id="favorite">
    <path d="M4.00195 4C4.00195 3.44771 4.44967 3 5.00195 3L11 3C11.5523 3 12 3.44772 12 4V12.997L11 13.0005L8 9.99898L5 13.0005L4.00195 12.997L4.00195 4Z" fill="#17AE66"></path>
  </symbol>
  <symbol fill="none" xmlns="http://www.w3.org/2000/svg" viewBox="0 0 16 16" id="filterColor">
    <path d="M8.99863 13H7.00137V8.45681L3 4.82101V3H13V4.82101L8.99863 8.45681V13Z" fill="#C66829"></path>
  </symbol>
  <symbol fill="none" xmlns="http://www.w3.org/2000/svg" viewBox="0 0 16 16" id="filterSortUpColor">
    <path d="M8 3H2V4.82101L6.00137 8.45681V13H7.99863V8.45681L8 8.45556V3Z" fill="#C66829"></path>
    <path d="M12 13H10V6H8L11 3L14 6H12V13Z" fill="#0A7CD6"></path>
  </symbol>
  <symbol fill="none" xmlns="http://www.w3.org/2000/svg" viewBox="0 0 16 16" id="filterSortDownColor">
    <path d="M8 3H2V4.82101L6.00137 8.45681V13H7.99863V8.45681L8 8.45556V3Z" fill="#C66829"></path>
    <path d="M12 3H10V10H8L11 13L14 10H12V3Z" fill="#0A7CD6"></path>
  </symbol>
  <symbol fill="none" xmlns="http://www.w3.org/2000/svg" viewBox="0 0 16 16" id="folderGroupColor">
    <g clip-path="url(#clip0_3838_19116)">
      <path opacity="0.2" d="M8.8276 2.34969L8.97468 2.5H9.18497H14.5C15.0523 2.5 15.5 2.94772 15.5 3.5V14.5C15.5 15.0523 15.0523 15.5 14.5 15.5H1.5C0.947715 15.5 0.5 15.0523 0.5 14.5V1.5C0.5 0.947715 0.947715 0.5 1.5 0.5H6.64967C6.8768 0.5 7.09782 0.576113 7.26358 0.730464C7.60323 1.04673 8.02421 1.49572 8.36679 1.86228C8.36679 1.86228 8.3668 1.86228 8.3668 1.86229L8.39927 1.89703L8.39928 1.89704L8.40311 1.90114C8.55921 2.06819 8.69757 2.21625 8.80202 2.32355L8.80293 2.32447L8.8276 2.34969Z" fill="#989898" stroke="#6F6F6F"></path>
    </g>
    <defs>
      <clipPath id="clip0_3838_19116">
        <rect width="16" height="16" fill="white"></rect>
      </clipPath>
    </defs>
  </symbol>
  <symbol fill="none" xmlns="http://www.w3.org/2000/svg" viewBox="0 0 16 16" id="geoGroupColor">
    <g clip-path="url(#clip0_3842_17440)">
      <g clip-path="url(#clip1_3842_17440)">
        <path opacity="0.2" d="M8.8276 2.34969L8.97468 2.5H9.18497H14.5C15.0523 2.5 15.5 2.94772 15.5 3.5V14.5C15.5 15.0523 15.0523 15.5 14.5 15.5H1.5C0.947715 15.5 0.5 15.0523 0.5 14.5V1.5C0.5 0.947715 0.947715 0.5 1.5 0.5H6.64967C6.8768 0.5 7.09782 0.576113 7.26358 0.730464C7.60323 1.04673 8.02421 1.49572 8.36679 1.86228C8.36679 1.86228 8.3668 1.86228 8.3668 1.86229L8.39927 1.89703L8.39928 1.89704L8.40311 1.90114C8.55921 2.06819 8.69757 2.21625 8.80202 2.32355L8.80293 2.32447L8.8276 2.34969Z" fill="#989898" stroke="#6F6F6F"></path>
      </g>
      <circle cx="8" cy="9" r="4" fill="#E55759"></circle>
      <circle cx="8" cy="9" r="3" fill="#F5F62E"></circle>
      <circle cx="8" cy="9" r="2" fill="#07B23F"></circle>
      <circle cx="8" cy="9" r="1" fill="#00F5F3"></circle>
    </g>
    <defs>
      <clipPath id="clip0_3842_17440">
        <rect width="16" height="16" fill="white"></rect>
      </clipPath>
      <clipPath id="clip1_3842_17440">
        <rect width="16" height="16" fill="white"></rect>
      </clipPath>
    </defs>
  </symbol>
  <symbol fill="none" xmlns="http://www.w3.org/2000/svg" viewBox="0 0 16 16" id="gisInnerColor">
    <rect x="3" y="1" width="1" height="14" fill="#17AE66"></rect>
    <path fill-rule="evenodd" clip-rule="evenodd" d="M7.89188 3.06024C7.96161 2.88715 8 2.69806 8 2.5C8 1.67157 7.32843 1 6.5 1C5.67157 1 5 1.67157 5 2.5C5 3.32843 5.67157 4 6.5 4C6.7645 4 7.01302 3.93154 7.22879 3.81137L10.0764 6.02616C10.0268 6.1751 10 6.33441 10 6.5C10 6.73158 10.0525 6.95091 10.1462 7.14673L8.14673 9.1462C7.9509 9.05248 7.73158 9 7.5 9C6.67157 9 6 9.67157 6 10.5C6 11.3284 6.67157 12 7.5 12C7.80758 12 8.09353 11.9074 8.33152 11.7486L10.0683 13.0512C10.0239 13.1929 10 13.3437 10 13.5C10 14.3284 10.6716 15 11.5 15C12.3284 15 13 14.3284 13 13.5C13 12.6716 12.3284 12 11.5 12C11.1924 12 10.9065 12.0926 10.6685 12.2514L8.93172 10.9488C8.92465 10.9713 8.91707 10.9937 8.90898 11.0157C8.96786 10.8549 9 10.6812 9 10.5C9 10.2684 8.94753 10.0491 8.85382 9.85332L10.8533 7.85382C11.0491 7.94753 11.2684 8 11.5 8C12.3284 8 13 7.32843 13 6.5C13 5.67157 12.3284 5 11.5 5C11.2019 5 10.924 5.08698 10.6905 5.23696L7.89188 3.06024ZM6.5 3C6.77614 3 7 2.77614 7 2.5C7 2.22386 6.77614 2 6.5 2C6.22386 2 6 2.22386 6 2.5C6 2.77614 6.22386 3 6.5 3ZM11.5 7C11.7761 7 12 6.77614 12 6.5C12 6.22386 11.7761 6 11.5 6C11.2239 6 11 6.22386 11 6.5C11 6.77614 11.2239 7 11.5 7ZM8 10.5C8 10.7761 7.77614 11 7.5 11C7.22386 11 7 10.7761 7 10.5C7 10.2239 7.22386 10 7.5 10C7.77614 10 8 10.2239 8 10.5ZM11.5 14C11.7761 14 12 13.7761 12 13.5C12 13.2239 11.7761 13 11.5 13C11.2239 13 11 13.2239 11 13.5C11 13.7761 11.2239 14 11.5 14Z" fill="#9D9D9D"></path>
  </symbol>
  <symbol fill="none" xmlns="http://www.w3.org/2000/svg" viewBox="0 0 16 16" id="gisGroupColor">
    <g clip-path="url(#clip0_3842_17378)">
      <g clip-path="url(#clip1_3842_17378)">
        <path opacity="0.2" d="M8.8276 2.34969L8.97468 2.5H9.18497H14.5C15.0523 2.5 15.5 2.94772 15.5 3.5V14.5C15.5 15.0523 15.0523 15.5 14.5 15.5H1.5C0.947715 15.5 0.5 15.0523 0.5 14.5V1.5C0.5 0.947715 0.947715 0.5 1.5 0.5H6.64967C6.8768 0.5 7.09782 0.576113 7.26358 0.730464C7.60323 1.04673 8.02421 1.49572 8.36679 1.86228C8.36679 1.86228 8.3668 1.86228 8.3668 1.86229L8.39927 1.89703L8.39928 1.89704L8.40311 1.90114C8.55921 2.06819 8.69757 2.21625 8.80202 2.32355L8.80293 2.32447L8.8276 2.34969Z" fill="#989898" stroke="#6F6F6F"></path>
      </g>
      <rect x="3" y="5" width="1" height="8" fill="#07BA65"></rect>
      <path fill-rule="evenodd" clip-rule="evenodd" d="M8.8 6.41176C8.8 6.59817 8.76417 6.77614 8.69908 6.93905L10.8445 7.57596C11.0624 7.43481 11.3217 7.35295 11.6 7.35295C12.3732 7.35295 13 7.98501 13 8.76471C13 9.5444 12.3732 10.1765 11.6 10.1765C11.3839 10.1765 11.1792 10.1271 10.9964 10.0389L9.13024 10.9796C9.21769 11.1639 9.26667 11.3703 9.26667 11.5882C9.26667 11.7588 9.23668 11.9223 9.18172 12.0736C9.18406 12.0672 9.07482 12.4727 8.64275 12.7634C8.42063 12.9129 8.15374 13 7.86667 13C7.09347 13 6.46667 12.3679 6.46667 11.5882C6.46667 10.8085 7.09347 10.1765 7.86667 10.1765C8.08281 10.1765 8.28751 10.2259 8.47028 10.3141L10.3365 9.37339C10.249 9.18909 10.2 8.98267 10.2 8.76471C10.2 8.60886 10.225 8.45892 10.2713 8.31874L8.0802 7.64599C7.87882 7.75909 7.64687 7.82353 7.4 7.82353C6.6268 7.82353 6 7.19146 6 6.41176C6 5.63207 6.6268 5 7.4 5C8.1732 5 8.8 5.63207 8.8 6.41176ZM7.4 6.88235C7.65773 6.88235 7.86667 6.67166 7.86667 6.41176C7.86667 6.15187 7.65773 5.94118 7.4 5.94118C7.14227 5.94118 6.93333 6.15187 6.93333 6.41176C6.93333 6.67166 7.14227 6.88235 7.4 6.88235ZM11.6 9.2353C11.8577 9.2353 12.0667 9.02461 12.0667 8.76471C12.0667 8.50481 11.8577 8.29412 11.6 8.29412C11.3423 8.29412 11.1333 8.50481 11.1333 8.76471C11.1333 9.02461 11.3423 9.2353 11.6 9.2353ZM8.33334 11.5882C8.33334 11.8481 8.1244 12.0588 7.86667 12.0588C7.60894 12.0588 7.4 11.8481 7.4 11.5882C7.4 11.3283 7.60894 11.1176 7.86667 11.1176C8.1244 11.1176 8.33334 11.3283 8.33334 11.5882Z" fill="#07BA65"></path>
    </g>
    <defs>
      <clipPath id="clip0_3842_17378">
        <rect width="16" height="16" fill="white"></rect>
      </clipPath>
      <clipPath id="clip1_3842_17378">
        <rect width="16" height="16" fill="white"></rect>
      </clipPath>
    </defs>
  </symbol>
  <symbol fill="none" xmlns="http://www.w3.org/2000/svg" viewBox="0 0 16 16" id="gisSimpleColor">
    <path fill-rule="evenodd" clip-rule="evenodd" d="M6.89188 3.06024C6.96161 2.88715 7 2.69806 7 2.5C7 1.67157 6.32843 1 5.5 1C4.67157 1 4 1.67157 4 2.5C4 3.32843 4.67157 4 5.5 4C5.7645 4 6.01302 3.93154 6.22879 3.81137L9.07638 6.02616C9.02683 6.1751 9 6.33441 9 6.5C9 6.73158 9.05248 6.95091 9.1462 7.14673L7.14673 9.1462C6.9509 9.05248 6.73158 9 6.5 9C5.67157 9 5 9.67157 5 10.5C5 11.3284 5.67157 12 6.5 12C6.80758 12 7.09353 11.9074 7.33152 11.7486L9.06829 13.0512C9.02392 13.1929 9 13.3437 9 13.5C9 14.3284 9.67157 15 10.5 15C11.3284 15 12 14.3284 12 13.5C12 12.6716 11.3284 12 10.5 12C10.1924 12 9.90649 12.0926 9.6685 12.2514L7.93172 10.9488C7.92465 10.9713 7.91707 10.9937 7.90898 11.0157C7.96786 10.8549 8 10.6812 8 10.5C8 10.2684 7.94753 10.0491 7.85382 9.85332L9.85331 7.85382C10.0491 7.94753 10.2684 8 10.5 8C11.3284 8 12 7.32843 12 6.5C12 5.67157 11.3284 5 10.5 5C10.2019 5 9.92403 5.08698 9.69051 5.23696L6.89188 3.06024ZM5.5 3C5.77614 3 6 2.77614 6 2.5C6 2.22386 5.77614 2 5.5 2C5.22386 2 5 2.22386 5 2.5C5 2.77614 5.22386 3 5.5 3ZM10.5 7C10.7761 7 11 6.77614 11 6.5C11 6.22386 10.7761 6 10.5 6C10.2239 6 10 6.22386 10 6.5C10 6.77614 10.2239 7 10.5 7ZM7 10.5C7 10.7761 6.77614 11 6.5 11C6.22386 11 6 10.7761 6 10.5C6 10.2239 6.22386 10 6.5 10C6.77614 10 7 10.2239 7 10.5ZM10.5 14C10.7761 14 11 13.7761 11 13.5C11 13.2239 10.7761 13 10.5 13C10.2239 13 10 13.2239 10 13.5C10 13.7761 10.2239 14 10.5 14Z" fill="#9D9D9D"></path>
  </symbol>
  <symbol fill="none" xmlns="http://www.w3.org/2000/svg" viewBox="0 0 16 16" id="grpGroupColor">
    <g clip-path="url(#clip0_3842_18184)">
      <g clip-path="url(#clip1_3842_18184)">
        <path opacity="0.2" d="M8.8276 2.34969L8.97468 2.5H9.18497H14.5C15.0523 2.5 15.5 2.94772 15.5 3.5V14.5C15.5 15.0523 15.0523 15.5 14.5 15.5H1.5C0.947715 15.5 0.5 15.0523 0.5 14.5V1.5C0.5 0.947715 0.947715 0.5 1.5 0.5H6.64967C6.8768 0.5 7.09782 0.576113 7.26358 0.730464C7.60323 1.04673 8.02421 1.49572 8.36679 1.86228C8.36679 1.86228 8.3668 1.86228 8.3668 1.86229L8.39927 1.89703L8.39928 1.89704L8.40311 1.90114C8.55921 2.06819 8.69757 2.21625 8.80202 2.32355L8.80293 2.32447L8.8276 2.34969Z" fill="#989898" stroke="#6F6F6F"></path>
      </g>
      <g clip-path="url(#clip2_3842_18184)">
        <g clip-path="url(#clip3_3842_18184)">
          <ellipse cx="4" cy="9" rx="8" ry="3.5" fill="url(#paint0_linear_3842_18184)"></ellipse>
          <ellipse cx="4" cy="9" rx="6.5" ry="2.5" fill="url(#paint1_linear_3842_18184)"></ellipse>
          <ellipse cx="4.25" cy="9" rx="4.75" ry="1.5" fill="url(#paint2_linear_3842_18184)"></ellipse>
          <ellipse cx="4.5" cy="9" rx="3" ry="0.5" fill="url(#paint3_linear_3842_18184)"></ellipse>
        </g>
      </g>
    </g>
    <defs>
      <linearGradient id="paint0_linear_3842_18184" x1="4" y1="5.5" x2="4" y2="12.5" gradientUnits="userSpaceOnUse">
        <stop stop-color="#31BBEE"></stop>
        <stop offset="1" stop-color="#1EA2E4"></stop>
      </linearGradient>
      <linearGradient id="paint1_linear_3842_18184" x1="4" y1="6.5" x2="4" y2="11.5" gradientUnits="userSpaceOnUse">
        <stop stop-color="#ACC548"></stop>
        <stop offset="1" stop-color="#71A61B"></stop>
      </linearGradient>
      <linearGradient id="paint2_linear_3842_18184" x1="4.25" y1="7.5" x2="4.25" y2="10.5" gradientUnits="userSpaceOnUse">
        <stop stop-color="#FFCC15"></stop>
        <stop offset="1" stop-color="#F1BE0A"></stop>
      </linearGradient>
      <linearGradient id="paint3_linear_3842_18184" x1="4.5" y1="8.50147" x2="4.5" y2="9.44353" gradientUnits="userSpaceOnUse">
        <stop stop-color="#FC7D5B"></stop>
        <stop offset="0.06" stop-color="#F8734F"></stop>
        <stop offset="0.18" stop-color="#F3653D"></stop>
        <stop offset="0.326" stop-color="#F05B31"></stop>
        <stop offset="0.523" stop-color="#EE552A"></stop>
        <stop offset="1" stop-color="#ED5328"></stop>
      </linearGradient>
      <clipPath id="clip0_3842_18184">
        <rect width="16" height="16" fill="white"></rect>
      </clipPath>
      <clipPath id="clip1_3842_18184">
        <rect width="16" height="16" fill="white"></rect>
      </clipPath>
      <clipPath id="clip2_3842_18184">
        <rect width="8" height="8" fill="white" transform="translate(4 5)"></rect>
      </clipPath>
      <clipPath id="clip3_3842_18184">
        <path d="M4 6C4 5.72386 4.22386 5.5 4.5 5.5H12V12.5H4.5C4.22386 12.5 4 12.2761 4 12V6Z" fill="white"></path>
      </clipPath>
    </defs>
  </symbol>
  <symbol fill="none" xmlns="http://www.w3.org/2000/svg" viewBox="0 0 16 16" id="grpAddColor">
    <g clip-path="url(#clip0_3589_14650)">
      <path fill-rule="evenodd" clip-rule="evenodd" d="M10.9961 10.9961V9H12.999V10.9961H14.9951V12.999H12.999V14.9951H10.9961V12.999H9V10.9961H10.9961Z" fill="#17AE66"></path>
      <path d="M15.905 8.87688C15.9678 8.5889 16 8.29633 16 8C16 3.58172 8.83656 0 0 0C-8.83656 0 -16 3.58172 -16 8C-16 12.4183 -8.83656 16 0 16C2.89655 16 5.61332 15.6152 7.95695 14.9421C7.3552 14.1166 7.00012 13.0998 7.00012 12C7.00012 9.23858 9.2387 7 12.0001 7C13.58 7 14.9887 7.73273 15.905 8.87688Z" fill="#247BA1"></path>
      <path d="M11.835 7.00268C9.15 7.08981 7.00012 9.29384 7.00012 12C7.00012 12.289 7.02465 12.5723 7.07173 12.848C5.08857 13.5724 2.64416 14 0 14C-6.62742 14 -12 11.3137 -12 8C-12 4.68629 -6.62742 2 0 2C5.94786 2 10.885 4.16365 11.835 7.00268Z" fill="#70C1B4"></path>
      <ellipse cy="8" rx="8" ry="4" fill="#FBE169"></ellipse>
      <ellipse cy="8" rx="4" ry="2" fill="#F15E5B"></ellipse>
    </g>
    <defs>
      <clipPath id="clip0_3589_14650">
        <rect width="15.9999" height="16" fill="white" transform="translate(-0.000244141)"></rect>
      </clipPath>
    </defs>
  </symbol>
  <symbol fill="none" xmlns="http://www.w3.org/2000/svg" viewBox="0 0 16 16" id="handbagAddColor">
    <path fill-rule="evenodd" clip-rule="evenodd" d="M10.9961 10.9961V9H12.999V10.9961H14.9951V12.999H12.999V14.9951H10.9961V12.999H9V10.9961H10.9961Z" fill="#17AE66"></path>
    <path fill-rule="evenodd" clip-rule="evenodd" d="M7.00012 11.975V9.00098H4.01465C3.25358 9.00098 2.58138 8.74577 1.99805 8.23535V11.4824C1.99805 11.9017 2.14616 12.2594 2.44238 12.5557C2.73861 12.8519 3.09179 13 3.50195 13H7.00012V12.025C7.00008 12.0167 7.00006 12.0083 7.00006 12C7.00006 11.9917 7.00008 11.9833 7.00012 11.975ZM12.0001 7C12.5503 7 13.0797 7.08887 13.5749 7.25304C13.8687 6.89516 14.0156 6.47748 14.0156 6V5.50098C14.0202 5.0817 13.8744 4.72624 13.5781 4.43457C13.2819 4.1429 12.9287 3.99707 12.5186 3.99707H11.0146V3.49805C11.0192 3.08333 10.8734 2.73014 10.5771 2.43848C10.2809 2.14681 9.92774 2.00098 9.51758 2.00098H6.50293C6.08366 2.00098 5.72819 2.14681 5.43652 2.43848C5.14486 2.73014 4.99902 3.08333 4.99902 3.49805V3.99707H3.50195C3.09179 4.00163 2.73861 4.14974 2.44238 4.44141C2.14616 4.73307 1.99805 5.08626 1.99805 5.50098V6C1.99805 6.55143 2.19401 7.02311 2.58594 7.41504C2.97787 7.80697 3.4541 8.00293 4.01465 8.00293H8.99568C9.83209 7.37325 10.8725 7 12.0001 7ZM5.99707 3.99707H10.0166V3.49805C10.0166 3.36133 9.96647 3.24284 9.86621 3.14258C9.76595 3.04232 9.64974 2.99447 9.51758 2.99902H6.50293C6.37077 2.99902 6.25456 3.04687 6.1543 3.14258C6.05404 3.23828 6.00163 3.35677 5.99707 3.49805V3.99707Z" fill="#9D9D9D"></path>
  </symbol>
  <symbol fill="none" xmlns="http://www.w3.org/2000/svg" viewBox="0 0 16 16" id="lineColor">
    <rect x="1.99988" y="7" width="12" height="2" fill="#E55759"></rect>
  </symbol>
  <symbol fill="none" xmlns="http://www.w3.org/2000/svg" viewBox="0 0 16 16" id="lineGradientColor">
    <rect x="1.99988" y="2" width="12" height="2" fill="#E55759"></rect>
    <rect width="12" height="10" transform="matrix(1 0 0 -1 1.99988 14)" fill="url(#paint0_linear_2289_45)" fill-opacity="0.6"></rect>
    <defs>
      <linearGradient id="paint0_linear_2289_45" x1="6" y1="0" x2="6" y2="10" gradientUnits="userSpaceOnUse">
        <stop stop-color="#E55759" stop-opacity="0"></stop>
        <stop offset="1" stop-color="#E55759"></stop>
      </linearGradient>
    </defs>
  </symbol>
  <symbol fill="none" xmlns="http://www.w3.org/2000/svg" viewBox="0 0 16 16" id="lineDashedColor">
    <path fill-rule="evenodd" clip-rule="evenodd" d="M4.99988 7H0.999878V9H4.99988V7ZM5.99988 7V9H9.99988V7H5.99988ZM10.9999 7V9H14.9999V7H10.9999Z" fill="#E55759"></path>
  </symbol>
  <symbol fill="none" xmlns="http://www.w3.org/2000/svg" viewBox="0 0 16 16" id="liquidAddColor">
    <path fill-rule="evenodd" clip-rule="evenodd" d="M8.29573 1.14802C8.83777 1.8475 9.88802 3.26556 10.8323 4.90402C11.2618 5.64924 11.6165 6.34897 11.8958 7.00106C9.18229 7.05629 6.99957 9.27325 6.99957 12C6.99957 13.1256 7.37152 14.1643 7.99921 15C5.4261 14.9999 3.33276 12.7992 3.33276 10.0941C3.33276 8.76257 3.94978 7.01663 5.16664 4.90489C6.11091 3.26629 7.16116 1.84775 7.70317 1.14805C7.77574 1.05438 7.88455 1 7.99946 1C8.11435 0.999964 8.22319 1.05434 8.29573 1.14802Z" fill="#2173DF"></path>
    <path fill-rule="evenodd" clip-rule="evenodd" d="M10.9956 10.9961V9H12.9985V10.9961H14.9946V12.999H12.9985V14.9951H10.9956V12.999H8.99951V10.9961H10.9956Z" fill="#17AE66"></path>
  </symbol>
  <symbol fill="none" xmlns="http://www.w3.org/2000/svg" viewBox="0 0 16 16" id="liquidSystemColor">
    <g clip-path="url(#clip0_2094_2581)">
      <path fill-rule="evenodd" clip-rule="evenodd" d="M8.29621 1.14802C8.83826 1.8475 9.88851 3.26556 10.8328 4.90402C11.2623 5.64924 11.617 6.34897 11.8963 7.00106C9.18278 7.05629 7.00006 9.27325 7.00006 12C7.00006 13.1256 7.37201 14.1643 7.9997 15C5.42659 14.9999 3.33325 12.7992 3.33325 10.0941C3.33325 8.76257 3.95027 7.01663 5.16713 4.90489C6.11139 3.26629 7.16165 1.84775 7.70366 1.14805C7.77623 1.05438 7.88503 1 7.99995 1C8.11484 0.999964 8.22368 1.05434 8.29621 1.14802Z" fill="#2173DF"></path>
      <path fill-rule="evenodd" clip-rule="evenodd" d="M11.3333 8V9.14367C11.0168 9.21727 10.7199 9.34213 10.4519 9.50905L9.64298 8.70017L8.70017 9.64298L9.50905 10.4519C9.34213 10.7199 9.21727 11.0168 9.14367 11.3333H8V12.6667H9.14367C9.21727 12.9832 9.34213 13.2801 9.50905 13.5481L8.70017 14.357L9.64298 15.2998L10.4519 14.4909C10.7199 14.6579 11.0168 14.7827 11.3333 14.8563V16H12.6667V14.8563C12.9832 14.7827 13.2801 14.6579 13.5481 14.4909L14.357 15.2998L15.2998 14.357L14.4909 13.5481C14.6579 13.2801 14.7827 12.9832 14.8563 12.6667H16V11.3333H14.8563C14.7827 11.0168 14.6579 10.7199 14.4909 10.4519L15.2998 9.64298L14.357 8.70017L13.5481 9.50905C13.2801 9.34213 12.9832 9.21727 12.6667 9.14367V8H11.3333ZM13.6667 12C13.6667 12.9205 12.9205 13.6667 12 13.6667C11.0795 13.6667 10.3333 12.9205 10.3333 12C10.3333 11.0795 11.0795 10.3333 12 10.3333C12.9205 10.3333 13.6667 11.0795 13.6667 12Z" fill="black" fill-opacity="0.44"></path>
    </g>
    <defs>
      <clipPath id="clip0_2094_2581">
        <rect width="16" height="16" fill="white"></rect>
      </clipPath>
    </defs>
  </symbol>
  <symbol fill="none" xmlns="http://www.w3.org/2000/svg" viewBox="0 0 16 16" id="liquidUserColor">
    <g clip-path="url(#clip0_2094_2573)">
      <path fill-rule="evenodd" clip-rule="evenodd" d="M8.29621 1.14802C8.83826 1.8475 9.88851 3.26556 10.8328 4.90402C11.2623 5.64924 11.617 6.34897 11.8963 7.00106C9.18278 7.05629 7.00006 9.27325 7.00006 12C7.00006 13.1256 7.37201 14.1643 7.9997 15C5.42659 14.9999 3.33325 12.7992 3.33325 10.0941C3.33325 8.76257 3.95027 7.01663 5.16713 4.90489C6.11139 3.26629 7.16165 1.84775 7.70366 1.14805C7.77623 1.05438 7.88503 1 7.99995 1C8.11484 0.999964 8.22368 1.05434 8.29621 1.14802Z" fill="#2173DF"></path>
      <path fill-rule="evenodd" clip-rule="evenodd" d="M16 12C16 14.2091 14.2091 16 12 16C9.79086 16 8 14.2091 8 12C8 9.79086 9.79086 8 12 8C14.2091 8 16 9.79086 16 12ZM11.2595 14.9079C10.7912 14.789 10.3668 14.5599 10.0155 14.2499C10.4471 13.6167 11.1738 13.2008 11.9976 13.2C11.1151 13.1987 10.4 12.4829 10.4 11.6C10.4 10.7163 11.1164 10 12 10C12.8837 10 13.6 10.7163 13.6 11.6C13.6 12.4829 12.885 13.1987 12.0024 13.2C12.8263 13.2008 13.5529 13.6167 13.9845 14.2499C14.6072 13.7002 15 12.896 15 12C15 10.3431 13.6569 9 12 9C10.3431 9 9 10.3431 9 12C9 13.4013 9.96078 14.5782 11.2595 14.9079Z" fill="#C66829"></path>
    </g>
    <defs>
      <clipPath id="clip0_2094_2573">
        <rect width="16" height="16" fill="white"></rect>
      </clipPath>
    </defs>
  </symbol>
  <symbol fill="none" xmlns="http://www.w3.org/2000/svg" viewBox="0 0 16 16" id="lithotypeColor">
    <rect x="1.99963" y="14" width="12" height="1" fill="#FFB115"></rect>
    <rect x="1.99963" y="11" width="12" height="1" fill="#FFB115"></rect>
    <rect x="1.99963" y="8" width="1" height="1" fill="#C66829"></rect>
    <rect x="3.99963" y="5" width="1" height="1" fill="#C66829"></rect>
    <rect x="1.99963" y="2" width="1" height="1" fill="#C66829"></rect>
    <rect x="5.99963" y="8" width="1" height="1" fill="#C66829"></rect>
    <rect x="7.99963" y="5" width="1" height="1" fill="#C66829"></rect>
    <rect x="5.99963" y="2" width="1" height="1" fill="#C66829"></rect>
    <rect x="9.99963" y="8" width="1" height="1" fill="#C66829"></rect>
    <rect x="11.9996" y="5" width="1" height="1" fill="#C66829"></rect>
    <rect x="9.99963" y="2" width="1" height="1" fill="#C66829"></rect>
  </symbol>
  <symbol fill="none" xmlns="http://www.w3.org/2000/svg" viewBox="0 0 16 16" id="opzAddColor">
    <g clip-path="url(#clip0_3589_14651)">
      <path fill-rule="evenodd" clip-rule="evenodd" d="M10.9961 10.9961V9H12.999V10.9961H14.9951V12.999H12.999V14.9951H10.9961V12.999H9V10.9961H10.9961Z" fill="#17AE66"></path>
      <path d="M15.9047 8.87688C15.9675 8.5889 15.9998 8.29633 15.9998 8C15.9998 3.58172 8.83631 0 -0.000244141 0C-8.8368 0 -16.0002 3.58172 -16.0002 8C-16.0002 12.4183 -8.8368 16 -0.000244141 16C2.8963 16 5.61307 15.6152 7.95671 14.9421C7.35495 14.1166 6.99988 13.0998 6.99988 12C6.99988 9.23858 9.23845 7 11.9999 7C13.5797 7 14.9885 7.73273 15.9047 8.87688Z" fill="#247BA1"></path>
      <path d="M10.9562 7.10908C10.712 4.62405 9.45712 2.43569 7.60808 0.96061C5.6679 0.435257 2.99976 0 -0.000244141 0V16C2.99976 16 5.6679 15.5647 7.60808 15.0394C7.6972 14.9683 7.78493 14.8955 7.87124 14.8212C7.32147 14.0182 6.99988 13.0467 6.99988 12C6.99988 9.59649 8.69577 7.58907 10.9562 7.10908Z" fill="#FBE169"></path>
    </g>
    <defs>
      <clipPath id="clip0_3589_14651">
        <rect width="15.9999" height="16" fill="white" transform="translate(-0.000244141)"></rect>
      </clipPath>
    </defs>
  </symbol>
  <symbol fill="none" xmlns="http://www.w3.org/2000/svg" viewBox="0 0 16 16" id="mapColor">
    <path fill-rule="evenodd" clip-rule="evenodd" d="M7.97241 3.99707C7.38908 4.00163 6.91512 4.1862 6.55054 4.55078C6.18595 4.91537 6.00366 5.38932 6.00366 5.97266C6.00366 6.55599 6.18823 7.03906 6.55737 7.42188C6.93107 7.80925 7.40275 8.00293 7.97241 8.00293C8.54208 8.00293 9.02287 7.80697 9.41479 7.41504C9.80672 7.02311 10.0027 6.54232 10.0027 5.97266C10.0027 5.40299 9.809 4.93132 9.42163 4.55762C9.03882 4.18392 8.55575 3.99707 7.97241 3.99707ZM7.97241 13.1982C7.75366 13.1982 7.55086 13.139 7.36401 13.0205C7.17716 12.902 7.0564 12.7607 7.00171 12.5967L4.698 8.20117C4.23315 7.63607 4.00073 6.94792 4.00073 6.13672C4.00073 5.32552 4.17847 4.61231 4.53394 3.99707C4.89396 3.38183 5.38159 2.89421 5.99683 2.53418C6.61206 2.17415 7.2797 1.99414 7.99976 1.99414C8.71981 1.99414 9.38745 2.17643 10.0027 2.54102C10.6179 2.89649 11.1055 3.38183 11.4656 3.99707C11.8256 4.61231 12.0056 5.29134 12.0056 6.03418C12.0056 6.77702 11.7709 7.49935 11.3015 8.20117L8.9978 12.5967C8.94767 12.7471 8.82007 12.8861 8.61499 13.0137C8.40535 13.1367 8.19116 13.1982 7.97241 13.1982Z" fill="#D4685D"></path>
  </symbol>
  <symbol fill="none" xmlns="http://www.w3.org/2000/svg" viewBox="0 0 16 16" id="rigisGroupColor">
    <g clip-path="url(#clip0_3842_17396)">
      <g clip-path="url(#clip1_3842_17396)">
        <path opacity="0.2" d="M8.8276 2.34969L8.97468 2.5H9.18497H14.5C15.0523 2.5 15.5 2.94772 15.5 3.5V14.5C15.5 15.0523 15.0523 15.5 14.5 15.5H1.5C0.947715 15.5 0.5 15.0523 0.5 14.5V1.5C0.5 0.947715 0.947715 0.5 1.5 0.5H6.64967C6.8768 0.5 7.09782 0.576113 7.26358 0.730464C7.60323 1.04673 8.02421 1.49572 8.36679 1.86228C8.36679 1.86228 8.3668 1.86228 8.3668 1.86229L8.39927 1.89703L8.39928 1.89704L8.40311 1.90114C8.55921 2.06819 8.69757 2.21625 8.80202 2.32355L8.80293 2.32447L8.8276 2.34969Z" fill="#989898" stroke="#6F6F6F"></path>
      </g>
      <rect x="4" y="8" width="8" height="2" fill="#70C1B4"></rect>
      <rect x="4" y="5" width="8" height="3" fill="#247BA1"></rect>
      <rect x="4" y="10" width="8" height="1" fill="#FBE169"></rect>
      <rect x="4" y="11" width="8" height="2" fill="#F15E5B"></rect>
    </g>
    <defs>
      <clipPath id="clip0_3842_17396">
        <rect width="16" height="16" fill="white"></rect>
      </clipPath>
      <clipPath id="clip1_3842_17396">
        <rect width="16" height="16" fill="white"></rect>
      </clipPath>
    </defs>
  </symbol>
  <symbol fill="none" xmlns="http://www.w3.org/2000/svg" viewBox="0 0 16 16" id="sortUpColor">
    <path d="M9 13H7V6H5L8 3L11 6H9V13Z" fill="#0A7CD6"></path>
  </symbol>
  <symbol fill="none" xmlns="http://www.w3.org/2000/svg" viewBox="0 0 16 16" id="opzGroupColor">
    <g clip-path="url(#clip0_3852_18663)">
      <g clip-path="url(#clip1_3852_18663)">
        <path opacity="0.2" d="M8.8276 2.34969L8.97468 2.5H9.18497H14.5C15.0523 2.5 15.5 2.94772 15.5 3.5V14.5C15.5 15.0523 15.0523 15.5 14.5 15.5H1.5C0.947715 15.5 0.5 15.0523 0.5 14.5V1.5C0.5 0.947715 0.947715 0.5 1.5 0.5H6.64967C6.8768 0.5 7.09782 0.576113 7.26358 0.730464C7.60323 1.04673 8.02421 1.49572 8.36679 1.86228C8.36679 1.86228 8.3668 1.86228 8.3668 1.86229L8.39927 1.89703L8.39928 1.89704L8.40311 1.90114C8.55921 2.06819 8.69757 2.21625 8.80202 2.32355L8.80293 2.32447L8.8276 2.34969Z" fill="#989898" stroke="#6F6F6F"></path>
      </g>
      <g clip-path="url(#clip2_3852_18663)">
        <ellipse cx="4" cy="9" rx="8" ry="4" fill="#247BA1"></ellipse>
        <path fill-rule="evenodd" clip-rule="evenodd" d="M7.80416 5.4803C8.83772 6.30483 9.50001 7.57507 9.50001 9C9.50001 10.4249 8.83772 11.6952 7.80416 12.5197C6.83407 12.7824 5.5 13 4 13C4 11.5 4 10.9834 4 9.25C4 7.51663 4 6.25 4 5C5.5 5 6.83407 5.21763 7.80416 5.4803Z" fill="#FBE169"></path>
      </g>
    </g>
    <defs>
      <clipPath id="clip0_3852_18663">
        <rect width="16" height="16" fill="white"></rect>
      </clipPath>
      <clipPath id="clip1_3852_18663">
        <rect width="16" height="16" fill="white"></rect>
      </clipPath>
      <clipPath id="clip2_3852_18663">
        <rect width="7.99997" height="8" fill="white" transform="translate(4 5)"></rect>
      </clipPath>
    </defs>
  </symbol>
  <symbol fill="none" xmlns="http://www.w3.org/2000/svg" viewBox="0 0 16 16" id="sortDownColor">
    <path d="M9 3H7V10H5L8 13L11 10H9V3Z" fill="#0A7CD6"></path>
  </symbol>
  <symbol fill="none" xmlns="http://www.w3.org/2000/svg" viewBox="0 0 16 16" id="testAnalyzeGroupColor">
    <g clip-path="url(#clip0_3840_17345)">
      <g clip-path="url(#clip1_3840_17345)">
        <path opacity="0.2" d="M8.8276 2.34969L8.97468 2.5H9.18497H14.5C15.0523 2.5 15.5 2.94772 15.5 3.5V14.5C15.5 15.0523 15.0523 15.5 14.5 15.5H1.5C0.947715 15.5 0.5 15.0523 0.5 14.5V1.5C0.5 0.947715 0.947715 0.5 1.5 0.5H6.64967C6.8768 0.5 7.09782 0.576113 7.26358 0.730464C7.60323 1.04673 8.02421 1.49572 8.36679 1.86228C8.36679 1.86228 8.3668 1.86228 8.3668 1.86229L8.39927 1.89703L8.39928 1.89704L8.40311 1.90114C8.55921 2.06819 8.69757 2.21625 8.80202 2.32355L8.80293 2.32447L8.8276 2.34969Z" fill="#989898" stroke="#6F6F6F"></path>
      </g>
      <path d="M3 13.5L13 13.5" stroke="#B1B1B1"></path>
      <path d="M4 11C6 7 8.5 7.5 12.5 7.50002" stroke="#FF6600"></path>
      <path d="M12 9L3 7" stroke="white" stroke-dasharray="1 1"></path>
    </g>
    <defs>
      <clipPath id="clip0_3840_17345">
        <rect width="16" height="16" fill="white"></rect>
      </clipPath>
      <clipPath id="clip1_3840_17345">
        <rect width="16" height="16" fill="white"></rect>
      </clipPath>
    </defs>
  </symbol>
  <symbol fill="none" xmlns="http://www.w3.org/2000/svg" viewBox="0 0 16 16" id="wellGroupColor">
    <g clip-path="url(#clip0_3838_19115)">
      <g clip-path="url(#clip1_3838_19115)">
        <path opacity="0.2" d="M8.8276 2.34969L8.97468 2.5H9.18497H14.5C15.0523 2.5 15.5 2.94772 15.5 3.5V14.5C15.5 15.0523 15.0523 15.5 14.5 15.5H1.5C0.947715 15.5 0.5 15.0523 0.5 14.5V1.5C0.5 0.947715 0.947715 0.5 1.5 0.5H6.64967C6.8768 0.5 7.09782 0.576113 7.26358 0.730464C7.60323 1.04673 8.02421 1.49572 8.36679 1.86228C8.36679 1.86228 8.3668 1.86228 8.3668 1.86229L8.39927 1.89703L8.39928 1.89704L8.40311 1.90114C8.55921 2.06819 8.69757 2.21625 8.80202 2.32355L8.80293 2.32447L8.8276 2.34969Z" fill="#989898" stroke="#6F6F6F"></path>
      </g>
      <path d="M4.5 13L5.16667 11M11.5 13L10.8333 11M5.16667 11L6.16667 8M5.16667 11H9.5M10.8333 11L9.83333 8M10.8333 11H9.5M6.16667 8L7 5.5H9L9.83333 8M6.16667 8H9.83333M6.16667 8L9.5 11" stroke="#23A0FF"></path>
    </g>
    <defs>
      <clipPath id="clip0_3838_19115">
        <rect width="16" height="16" fill="white"></rect>
      </clipPath>
      <clipPath id="clip1_3838_19115">
        <rect width="16" height="16" fill="white"></rect>
      </clipPath>
    </defs>
  </symbol>
  <symbol fill="none" xmlns="http://www.w3.org/2000/svg" viewBox="0 0 16 16" id="sumAddColor">
    <path fill-rule="evenodd" clip-rule="evenodd" d="M10.9961 10.9961V9H12.999V10.9961H14.9951V12.999H12.999V14.9951H10.9961V12.999H9V10.9961H10.9961Z" fill="#17AE66"></path>
    <path fill-rule="evenodd" clip-rule="evenodd" d="M11.9961 3H3V3.99805L6.99901 8.00391L3 12.0029V13.001H11.9961V13H9H8H7V12.0029H5.99413L8.99509 8.00391L5.99413 3.99805H9.99997L11.9961 6.00098V3Z" fill="#C66829"></path>
  </symbol>
</svg>
