<svg aria-hidden="true" style="position: absolute; width: 0; height: 0; overflow: hidden;" version="1.1" width="0"
     height="0" class="hidden">
  <!-- SVG Sprite -->
  <symbol fill="none" xmlns="http://www.w3.org/2000/svg" viewBox="0 0 32 40" id="file_csv">
    <path d="M0 4C0 1.79086 1.79086 0 4 0H24L28 4L32 8V36C32 38.2091 30.2091 40 28 40H4C1.79086 40 0 38.2091 0 36V4Z"
          fill="#59AE50"></path>
    <path d="M24 0L28 4L32 8H28C25.7909 8 24 6.20914 24 4V0Z" fill="#3F8438"></path>
    <path fill-rule="evenodd" clip-rule="evenodd"
          d="M11.7 22C11.1133 22 10.6833 21.8767 10.41 21.63C10.1367 21.3767 10 20.9667 10 20.4V18.6C10 18.04 10.1367 17.6333 10.41 17.38C10.69 17.1267 11.12 17 11.7 17H12.99V18H11.74C11.4933 18 11.3067 18.0567 11.18 18.17C11.0533 18.2833 10.99 18.4433 10.99 18.65V20.35C10.99 20.5567 11.0533 20.7167 11.18 20.83C11.3067 20.9433 11.4933 21 11.74 21H12.99V22H11.7ZM18 17H19V20H20V17H21V20L20 22H19L18 20V17ZM16.61 21.69C16.87 21.4833 17 21.17 17 20.75V20.3C17 19.8733 16.8833 19.5533 16.65 19.34C16.4167 19.12 16.0767 19 15.63 19H15.48C15.34 19 15.2233 18.9733 15.13 18.9C15.0433 18.8267 15 18.7133 15 18.56V18.45C15 18.3033 15.05 18.1933 15.15 18.12C15.25 18.04 15.3833 18 15.55 18H17V17H15.5C15.0067 17 14.5933 17.1 14.34 17.3C14.0867 17.4933 14 17.8133 14 18.26V18.73C14 19.17 14.0733 19.4933 14.3 19.7C14.5333 19.9 14.7333 20 15.2 20H15.57C15.8567 20 16 20.15 16 20.45V20.55C16 20.6967 15.9533 20.81 15.86 20.89C15.7667 20.9633 15.63 21 15.45 21H14V22H15.5C15.9867 22 16.3567 21.8967 16.61 21.69Z"
          fill="white"></path>
  </symbol>
  <symbol fill="none" xmlns="http://www.w3.org/2000/svg" viewBox="0 0 32 40" id="file_doc">
    <path d="M0 4C0 1.79086 1.79086 0 4 0H24L28 4L32 8V36C32 38.2091 30.2091 40 28 40H4C1.79086 40 0 38.2091 0 36V4Z"
          fill="#579FFF"></path>
    <path d="M24 0L28 4L32 8H28C25.7909 8 24 6.20914 24 4V0Z" fill="#4380D0"></path>
    <path
      d="M12.5 21.77C12.28 21.9233 12.0133 22 11.7 22H11.2C10.6133 22 10.1833 21.8767 9.91 21.63C9.63667 21.3767 9.5 20.9667 9.5 20.4V18.6C9.5 18.04 9.63667 17.6333 9.91 17.38C10.19 17.1267 10.68 17 11.26 17H12.5V15H13.5V22H12.5V21.77ZM11.85 21C12.07 21 12.2333 20.9433 12.34 20.83C12.4467 20.71 12.5 20.5833 12.5 20.45V18H11.25C11.0033 18 10.8167 18.0567 10.69 18.17C10.5633 18.2833 10.5 18.4433 10.5 18.65V20.35C10.5 20.5567 10.5633 20.7167 10.69 20.83C10.8167 20.9433 11.0033 21 11.25 21H11.85Z"
      fill="white"></path>
    <path
      d="M18.5 20.4C18.5 20.96 18.36 21.3667 18.08 21.62C17.8067 21.8733 17.38 22 16.8 22L16.2 22C15.62 22 15.19 21.8733 14.91 21.62C14.6367 21.3667 14.5 20.96 14.5 20.4V18.6C14.5 18.04 14.6367 17.6333 14.91 17.38C15.19 17.1267 15.62 17 16.2 17L16.8 17C17.38 17 17.8067 17.1267 18.08 17.38C18.36 17.6333 18.5 18.04 18.5 18.6V20.4ZM17.5 18.65C17.5 18.4433 17.4367 18.2833 17.31 18.17C17.1833 18.0567 16.9967 18 16.75 18H16.25C16.0033 18 15.8167 18.0567 15.69 18.17C15.5633 18.2833 15.5 18.4433 15.5 18.65V20.35C15.5 20.5567 15.5633 20.7167 15.69 20.83C15.8167 20.9433 16.0033 21 16.25 21H16.75C16.9967 21 17.1833 20.9433 17.31 20.83C17.4367 20.7167 17.5 20.5567 17.5 20.35V18.65Z"
      fill="white"></path>
    <path
      d="M21.21 22C20.6233 22 20.1933 21.8767 19.92 21.63C19.6467 21.3767 19.51 20.9667 19.51 20.4V18.6C19.51 18.04 19.6467 17.6333 19.92 17.38C20.2 17.1267 20.63 17 21.21 17H22.5V18H21.25C21.0033 18 20.8167 18.0567 20.69 18.17C20.5633 18.2833 20.5 18.4433 20.5 18.65V20.35C20.5 20.5567 20.5633 20.7167 20.69 20.83C20.8167 20.9433 21.0033 21 21.25 21H22.5V22H21.21Z"
      fill="white"></path>
  </symbol>
  <symbol fill="none" xmlns="http://www.w3.org/2000/svg" viewBox="0 0 32 40" id="file_las">
    <path d="M0 4C0 1.79086 1.79086 0 4 0H24L28 4L32 8V36C32 38.2091 30.2091 40 28 40H4C1.79086 40 0 38.2091 0 36V4Z"
          fill="#59AE50"></path>
    <path fill-rule="evenodd" clip-rule="evenodd"
          d="M11.2198 21.76C11.3931 21.92 11.6933 22 11.92 22H13V21H12.35C12.2233 21 12.1333 20.9767 12.08 20.93C12.0267 20.8833 12 20.8067 12 20.7V15H10V16H11V21C11 21.3467 11.0531 21.6 11.2198 21.76ZM20.5 22C20.9867 22 21.3567 21.8967 21.61 21.69C21.87 21.4833 22 21.17 22 20.75V20.3C22 19.8733 21.8833 19.5533 21.65 19.34C21.4167 19.12 21.0767 19 20.63 19H20.48C20.34 19 20.2233 18.9733 20.13 18.9C20.0433 18.8267 20 18.7133 20 18.56V18.45C20 18.3033 20.05 18.1933 20.15 18.12C20.25 18.04 20.3833 18 20.55 18H22V17H20.5C20.0067 17 19.5933 17.1 19.34 17.3C19.0867 17.4933 19 17.8133 19 18.26V18.73C19 19.17 19.0733 19.4933 19.3 19.7C19.5333 19.9 19.7333 20 20.2 20H20.57C20.8567 20 21 20.15 21 20.45V20.55C21 20.6967 20.9533 20.81 20.86 20.89C20.7667 20.9633 20.63 21 20.45 21H19V22H20.5ZM17.3849 21.92C17.4916 21.9733 17.5882 22 17.6749 22H18.2249V21.3C18.0449 21.3 17.9149 21.2767 17.8349 21.23C17.7616 21.1767 17.7249 21.1 17.7249 21V18.6C17.7249 18.04 17.5849 17.6333 17.3049 17.38C17.0316 17.1267 16.6049 17 16.0249 17H14.2249V18H15.9749C16.2216 18 16.4082 18.0567 16.5349 18.17C16.6616 18.2833 16.7249 18.4433 16.7249 18.65V19H15.1849C14.2116 19 13.7249 19.5167 13.7249 20.55V20.65C13.7249 21.1433 13.8382 21.4933 14.0649 21.7C14.2982 21.9 14.6682 22 15.1749 22H16.5149C16.7682 22 16.9716 21.9 17.1249 21.7C17.1982 21.7933 17.2849 21.8667 17.3849 21.92ZM16.6449 20.86C16.5916 20.9533 16.4649 21 16.2649 21H15.2249C15.0516 21 14.9249 20.96 14.8449 20.88C14.7735 20.8086 14.7339 20.6999 14.7263 20.554C14.7355 20.4012 14.7918 20.2732 14.8949 20.17C15.0082 20.0567 15.1516 20 15.3249 20H16.7249V20.5C16.7249 20.6467 16.6982 20.7667 16.6449 20.86Z"
          fill="white"></path>
    <path d="M24 0L28 4L32 8H28C25.7909 8 24 6.20914 24 4V0Z" fill="#3F8438"></path>
  </symbol>
  <symbol fill="none" xmlns="http://www.w3.org/2000/svg" viewBox="0 0 32 40" id="file_pdf">
    <path d="M0 4C0 1.79086 1.79086 0 4 0H24L28 4L32 8V36C32 38.2091 30.2091 40 28 40H4C1.79086 40 0 38.2091 0 36V4Z"
          fill="#E25C41"></path>
    <path d="M24 0L28 4L32 8H28C25.7909 8 24 6.20914 24 4V0Z" fill="#A5402C"></path>
    <path fill-rule="evenodd" clip-rule="evenodd"
          d="M21.35 16C21.2433 16 21.1567 16.03 21.09 16.09C21.03 16.1433 21 16.2133 21 16.3V17H22V18H21V21H22V22H19V21H20V18H19V17H20V16.1C20 15.76 20.0967 15.4933 20.29 15.3C20.4833 15.1 20.7333 15 21.04 15H22.5V16L21.35 16ZM9.8 17V17.24C10.0067 17.08 10.2733 17 10.6 17H11.3C11.8867 17 12.3167 17.1267 12.59 17.38C12.8633 17.6267 13 18.0333 13 18.6V20.4C13 20.96 12.86 21.3667 12.58 21.62C12.3067 21.8733 11.88 22 11.3 22H10.01V24H9V17H9.8ZM10.65 18C10.43 18 10.2667 18.06 10.16 18.18C10.0533 18.2933 10 18.4167 10 18.55L10.01 21H11.25C11.4967 21 11.6833 20.9433 11.81 20.83C11.9367 20.7167 12 20.5567 12 20.35V18.65C12 18.4433 11.9367 18.2833 11.81 18.17C11.6833 18.0567 11.4967 18 11.25 18H10.65ZM16.2 22C16.5133 22 16.78 21.9233 17 21.77V22H18V15H17V17H15.76C15.18 17 14.69 17.1267 14.41 17.38C14.1367 17.6333 14 18.04 14 18.6V20.4C14 20.9667 14.1367 21.3767 14.41 21.63C14.6833 21.8767 15.1133 22 15.7 22H16.2ZM16.84 20.83C16.7333 20.9433 16.57 21 16.35 21H15.75C15.5033 21 15.3167 20.9433 15.19 20.83C15.0633 20.7167 15 20.5567 15 20.35V18.65C15 18.4433 15.0633 18.2833 15.19 18.17C15.3167 18.0567 15.5033 18 15.75 18H17V20.45C17 20.5833 16.9467 20.71 16.84 20.83Z"
          fill="white"></path>
  </symbol>
  <symbol fill="none" xmlns="http://www.w3.org/2000/svg" viewBox="0 0 32 40" id="file_txt">
    <path d="M0 4C0 1.79086 1.79086 0 4 0H24L28 4L32 8V36C32 38.2091 30.2091 40 28 40H4C1.79086 40 0 38.2091 0 36V4Z"
          fill="#579FFF"></path>
    <path d="M24 0L28 4L32 8H28C25.7909 8 24 6.20914 24 4V0Z" fill="#4380D0"></path>
    <path fill-rule="evenodd" clip-rule="evenodd"
          d="M12.05 21.9996C11.71 21.9996 11.45 21.8896 11.27 21.6696C11.09 21.4496 11 21.1596 11 20.7996V17.9998H10V16.9996H11V16H12V16.9996H13V17.9998H12V20.6C12 20.7467 12.0367 20.85 12.11 20.91C12.1833 20.97 12.2967 21 12.45 21L13 21.0004V22L12.05 21.9996ZM15 21.9998H14V19.9998H15V18.9998H14V16.9998H15V18.4998L16 18.9998L17 18.4998V16.9998H18V18.9998H17V19.9998H18V21.9998H17V20.4998L16 19.9998L15 20.4998V21.9998ZM20.27 21.6696C20.45 21.8896 20.71 21.9996 21.05 21.9996L22 22V21.0004L21.45 21C21.2967 21 21.1833 20.97 21.11 20.91C21.0367 20.85 21 20.7467 21 20.6V17.9998H22V16.9996H21V16H20V16.9996H19V17.9998H20V20.7996C20 21.1596 20.09 21.4496 20.27 21.6696Z"
          fill="white"></path>
  </symbol>
  <symbol fill="none" xmlns="http://www.w3.org/2000/svg" viewBox="0 0 32 40" id="file_xls">
    <path d="M0 4C0 1.79086 1.79086 0 4 0H24L28 4L32 8V36C32 38.2091 30.2091 40 28 40H4C1.79086 40 0 38.2091 0 36V4Z"
          fill="#59AE50"></path>
    <path d="M24 0L28 4L32 8H28C25.7909 8 24 6.20914 24 4V0Z" fill="#3F8438"></path>
    <path d="M11 22H10V20H11V19H10V17H11V18.5L12 19L13 18.5V17H14V19H13V20H14V22H13V20.5L12 20L11 20.5V22Z"
          fill="white"></path>
    <path
      d="M16.92 22C16.6933 22 16.3931 21.92 16.2198 21.76C16.0531 21.6 16 21.3467 16 21V16H15V15H17V20.7C17 20.8067 17.0267 20.8833 17.08 20.93C17.1333 20.9767 17.2233 21 17.35 21H18V22H16.92Z"
      fill="white"></path>
    <path
      d="M22 20.75C22 21.17 21.87 21.4833 21.61 21.69C21.3567 21.8967 20.9867 22 20.5 22H19V21H20.45C20.63 21 20.7667 20.9633 20.86 20.89C20.9533 20.81 21 20.6967 21 20.55V20.45C21 20.15 20.8567 20 20.57 20H20.2C19.7333 20 19.5333 19.9 19.3 19.7C19.0733 19.4933 19 19.17 19 18.73V18.26C19 17.8133 19.0867 17.4933 19.34 17.3C19.5933 17.1 20.0067 17 20.5 17H22V18H20.55C20.3833 18 20.25 18.04 20.15 18.12C20.05 18.1933 20 18.3033 20 18.45V18.56C20 18.7133 20.0433 18.8267 20.13 18.9C20.2233 18.9733 20.34 19 20.48 19H20.63C21.0767 19 21.4167 19.12 21.65 19.34C21.8833 19.5533 22 19.8733 22 20.3V20.75Z"
      fill="white"></path>
  </symbol>
  <symbol fill="none" xmlns="http://www.w3.org/2000/svg" viewBox="0 0 32 40" id="file_png">
    <path d="M0 4C0 1.79086 1.79086 0 4 0H24L28 4L32 8V36C32 38.2091 30.2091 40 28 40H4C1.79086 40 0 38.2091 0 36V4Z"
          fill="#B841E2"></path>
    <path d="M24 0L28 4L32 8H28C25.7909 8 24 6.20914 24 4V0Z" fill="#9A25C2"></path>
    <path fill-rule="evenodd" clip-rule="evenodd"
          d="M9.8 16.5V16.74C10.0067 16.58 10.2733 16.5 10.6 16.5H11.3C11.8867 16.5 12.3167 16.6267 12.59 16.88C12.8633 17.1267 13 17.5333 13 18.1V19.9C13 20.46 12.86 20.8667 12.58 21.12C12.3067 21.3733 11.88 21.5 11.3 21.5H10.01V23.5H9V16.5H9.8ZM10.65 17.5C10.43 17.5 10.2667 17.56 10.16 17.68C10.0533 17.7933 10 17.9167 10 18.05L10.01 20.5H11.25C11.4967 20.5 11.6833 20.4433 11.81 20.33C11.9367 20.2167 12 20.0567 12 19.85V18.15C12 17.9433 11.9367 17.7833 11.81 17.67C11.6833 17.5567 11.4967 17.5 11.25 17.5H10.65Z"
          fill="white"></path>
    <path
      d="M14.8013 16.5V16.74C15.008 16.58 15.2747 16.5 15.6013 16.5H16.3013C16.888 16.5 17.318 16.6267 17.5913 16.88C17.8647 17.1267 18.0013 17.5333 18.0013 18.1V19.9C18.0013 20.1875 18.001 20.4698 18.0006 20.744L18.0006 20.7452C18.0003 21.0044 18 21.2573 18 21.5H17L17.0013 18.15C17.0013 17.9433 16.938 17.7833 16.8113 17.67C16.6847 17.5567 16.498 17.5 16.2513 17.5H15.6513C15.4313 17.5 15.268 17.56 15.1613 17.68C15.0547 17.7933 15.0013 17.9167 15.0013 18.05L15.0113 20.5L15.01 21.5H14L14.0013 16.5H14.8013Z"
      fill="white"></path>
    <path fill-rule="evenodd" clip-rule="evenodd"
          d="M22.2 16.74V16.5H23V23.5H20V22.5H22L21.99 21.5H20.7C20.12 21.5 19.6933 21.3733 19.42 21.12C19.14 20.8667 19 20.46 19 19.9V18.1C19 17.5333 19.1367 17.1267 19.41 16.88C19.6833 16.6267 20.1133 16.5 20.7 16.5H21.4C21.7267 16.5 21.9933 16.58 22.2 16.74ZM21.84 17.68C21.7333 17.56 21.57 17.5 21.35 17.5H20.75C20.5033 17.5 20.3167 17.5567 20.19 17.67C20.0633 17.7833 20 17.9433 20 18.15V19.85C20 20.0567 20.0633 20.2167 20.19 20.33C20.3167 20.4433 20.5033 20.5 20.75 20.5H21.99L22 18.05C22 17.9167 21.9467 17.7933 21.84 17.68Z"
          fill="white"></path>
  </symbol>
  <symbol fill="none" xmlns="http://www.w3.org/2000/svg" viewBox="0 0 32 40" id="file_jpg">
    <path d="M0 4C0 1.79086 1.79086 0 4 0H24L28 4L32 8V36C32 38.2091 30.2091 40 28 40H4C1.79086 40 0 38.2091 0 36V4Z"
          fill="#E2BF41"></path>
    <path d="M24 0L28 4L32 8H28C25.7909 8 24 6.20914 24 4V0Z" fill="#BDA038"></path>
    <path
      d="M12.08 23.5C12.3067 23.5 12.6069 23.42 12.7802 23.26C12.9469 23.1 13 22.8467 13 22.5L13 16.5H12L12 22.2C12 22.3067 11.9733 22.3833 11.92 22.43C11.8667 22.4767 11.7767 22.5 11.65 22.5H10V21.5H9V23.5H12.08Z"
      fill="white"></path>
    <path fill-rule="evenodd" clip-rule="evenodd"
          d="M14.8 16.5V16.74C15.0067 16.58 15.2733 16.5 15.6 16.5H16.3C16.8867 16.5 17.3167 16.6267 17.59 16.88C17.8633 17.1267 18 17.5333 18 18.1V19.9C18 20.46 17.86 20.8667 17.58 21.12C17.3067 21.3733 16.88 21.5 16.3 21.5H15.01V23.5H14V16.5H14.8ZM15.65 17.5C15.43 17.5 15.2667 17.56 15.16 17.68C15.0533 17.7933 15 17.9167 15 18.05L15.01 20.5H16.25C16.4967 20.5 16.6833 20.4433 16.81 20.33C16.9367 20.2167 17 20.0567 17 19.85V18.15C17 17.9433 16.9367 17.7833 16.81 17.67C16.6833 17.5567 16.4967 17.5 16.25 17.5H15.65Z"
          fill="white"></path>
    <path fill-rule="evenodd" clip-rule="evenodd"
          d="M22.2 16.5V16.74C21.9933 16.58 21.7267 16.5 21.4 16.5H20.7C20.1133 16.5 19.6833 16.6267 19.41 16.88C19.1367 17.1267 19 17.5333 19 18.1V19.9C19 20.46 19.14 20.8667 19.42 21.12C19.6933 21.3733 20.12 21.5 20.7 21.5H21.99L22 22.5H20V23.5H23V16.5H22.2ZM21.35 17.5C21.57 17.5 21.7333 17.56 21.84 17.68C21.9467 17.7933 22 17.9167 22 18.05L21.99 20.5H20.75C20.5033 20.5 20.3167 20.4433 20.19 20.33C20.0633 20.2167 20 20.0567 20 19.85V18.15C20 17.9433 20.0633 17.7833 20.19 17.67C20.3167 17.5567 20.5033 17.5 20.75 17.5H21.35Z"
          fill="white"></path>
  </symbol>
  <symbol fill="none" xmlns="http://www.w3.org/2000/svg" viewBox="0 0 32 40" id="file_jpeg">
    <path d="M0 4C0 1.79086 1.79086 0 4 0H24L28 4L32 8V36C32 38.2091 30.2091 40 28 40H4C1.79086 40 0 38.2091 0 36V4Z"
          fill="#E2BF41"></path>
    <path d="M24 0L28 4L32 8H28C25.7909 8 24 6.20914 24 4V0Z" fill="#BDA038"></path>
    <path
      d="M9.58 23.5C9.80667 23.5 10.1069 23.42 10.2802 23.26C10.4469 23.1 10.5 22.8467 10.5 22.5L10.5 16.5H9.49998L9.5 22.2C9.5 22.3067 9.47333 22.3833 9.42 22.43C9.36667 22.4767 9.27667 22.5 9.15 22.5H7.5V21.5H6.5V23.5H9.58Z"
      fill="white"></path>
    <path fill-rule="evenodd" clip-rule="evenodd"
          d="M12.3 16.74V16.5H11.5V23.5H12.51V21.5H13.8C14.38 21.5 14.8067 21.3733 15.08 21.12C15.36 20.8667 15.5 20.46 15.5 19.9V18.1C15.5 17.5333 15.3633 17.1267 15.09 16.88C14.8167 16.6267 14.3867 16.5 13.8 16.5H13.1C12.7733 16.5 12.5067 16.58 12.3 16.74ZM12.66 17.68C12.7667 17.56 12.93 17.5 13.15 17.5H13.75C13.9967 17.5 14.1833 17.5567 14.31 17.67C14.4367 17.7833 14.5 17.9433 14.5 18.15V19.85C14.5 20.0567 14.4367 20.2167 14.31 20.33C14.1833 20.4433 13.9967 20.5 13.75 20.5H12.51L12.5 18.05C12.5 17.9167 12.5533 17.7933 12.66 17.68Z"
          fill="white"></path>
    <path fill-rule="evenodd" clip-rule="evenodd"
          d="M24.7 16.5V16.74C24.4933 16.58 24.2267 16.5 23.9 16.5H23.2C22.6133 16.5 22.1833 16.6267 21.91 16.88C21.6367 17.1267 21.5 17.5333 21.5 18.1V19.9C21.5 20.46 21.64 20.8667 21.92 21.12C22.1933 21.3733 22.62 21.5 23.2 21.5H24.49L24.5 22.5H22.5V23.5H25.5V16.5H24.7ZM23.85 17.5C24.07 17.5 24.2333 17.56 24.34 17.68C24.4467 17.7933 24.5 17.9167 24.5 18.05L24.49 20.5H23.25C23.0033 20.5 22.8167 20.4433 22.69 20.33C22.5633 20.2167 22.5 20.0567 22.5 19.85V18.15C22.5 17.9433 22.5633 17.7833 22.69 17.67C22.8167 17.5567 23.0033 17.5 23.25 17.5H23.85Z"
          fill="white"></path>
    <path fill-rule="evenodd" clip-rule="evenodd"
          d="M17.5 16.5C16.9477 16.5 16.5 16.9477 16.5 17.5V20.5C16.5 21.0523 16.9477 21.5 17.5 21.5H20.5V20.5H17.5V19.5H20.5V17.5C20.5 16.9477 20.0523 16.5 19.5 16.5H17.5ZM19.5 18.5H17.5V18C17.5 17.7239 17.7239 17.5 18 17.5H19C19.2761 17.5 19.5 17.7239 19.5 18V18.5Z"
          fill="white"></path>
  </symbol>
  <symbol fill="none" xmlns="http://www.w3.org/2000/svg" viewBox="0 0 32 40" id="file_docx">
    <path d="M0 4C0 1.79086 1.79086 0 4 0H24L28 4L32 8V36C32 38.2091 30.2091 40 28 40H4C1.79086 40 0 38.2091 0 36V4Z"
          fill="#579FFF"></path>
    <path d="M24 0L28 4L32 8H28C25.7909 8 24 6.20914 24 4V0Z" fill="#4380D0"></path>
    <path fill-rule="evenodd" clip-rule="evenodd"
          d="M10 23.27C9.78 23.4233 9.51333 23.5 9.2 23.5H8.7C8.11333 23.5 7.68333 23.3767 7.41 23.13C7.13667 22.8767 7 22.4667 7 21.9V20.1C7 19.54 7.13667 19.1333 7.41 18.88C7.69 18.6267 8.18 18.5 8.76 18.5H10V16.5H11V23.5H10V23.27ZM9.35 22.5C9.57 22.5 9.73333 22.4433 9.84 22.33C9.94667 22.21 10 22.0833 10 21.95V19.5H8.75C8.50333 19.5 8.31667 19.5567 8.19 19.67C8.06333 19.7833 8 19.9433 8 20.15V21.85C8 22.0567 8.06333 22.2167 8.19 22.33C8.31667 22.4433 8.50333 22.5 8.75 22.5H9.35Z"
          fill="white"></path>
    <path fill-rule="evenodd" clip-rule="evenodd"
          d="M16 21.9C16 22.46 15.86 22.8667 15.58 23.12C15.3067 23.3733 14.88 23.5 14.3 23.5L13.7 23.5C13.12 23.5 12.69 23.3733 12.41 23.12C12.1367 22.8667 12 22.46 12 21.9V20.1C12 19.54 12.1367 19.1333 12.41 18.88C12.69 18.6267 13.12 18.5 13.7 18.5L14.3 18.5C14.88 18.5 15.3067 18.6267 15.58 18.88C15.86 19.1333 16 19.54 16 20.1V21.9ZM15 20.15C15 19.9433 14.9367 19.7833 14.81 19.67C14.6833 19.5567 14.4967 19.5 14.25 19.5H13.75C13.5033 19.5 13.3167 19.5567 13.19 19.67C13.0633 19.7833 13 19.9433 13 20.15V21.85C13 22.0567 13.0633 22.2167 13.19 22.33C13.3167 22.4433 13.5033 22.5 13.75 22.5H14.25C14.4967 22.5 14.6833 22.4433 14.81 22.33C14.9367 22.2167 15 22.0567 15 21.85V20.15Z"
          fill="white"></path>
    <path
      d="M17.42 23.13C17.6933 23.3767 18.1233 23.5 18.71 23.5H20V22.5H18.75C18.5033 22.5 18.3167 22.4433 18.19 22.33C18.0633 22.2167 18 22.0567 18 21.85V20.15C18 19.9433 18.0633 19.7833 18.19 19.67C18.3167 19.5567 18.5033 19.5 18.75 19.5H20V18.5H18.71C18.13 18.5 17.7 18.6267 17.42 18.88C17.1467 19.1333 17.01 19.54 17.01 20.1V21.9C17.01 22.4667 17.1467 22.8767 17.42 23.13Z"
      fill="white"></path>
    <path
      d="M21 23.5H22V22L23 21.5L24 22V23.5H25V21.5H24V20.5H25V18.5H24V20L23 20.5L22 20V18.5H21V20.5H22V21.5H21V23.5Z"
      fill="white"></path>
  </symbol>
</svg>

