<svg display="none">
  <defs>
    <symbol id="add" viewBox="0 0 16 16">
      <path xmlns="http://www.w3.org/2000/svg" d="M9 3H7V7H3V9H7V13H9V9H13V7H9V3Z"/>
    </symbol>
    <symbol id="addArea" viewBox="0 0 16 16">
      <path xmlns="http://www.w3.org/2000/svg" fill-rule="evenodd"
            d="M4 1H3V3H4V1ZM4 5H3V7H4V5ZM12 7V5H13V7H12ZM12.999 9H10.9961V10.9961H9V12.999H10.9961V14.9951H12.999V12.999H14.9951V10.9961H12.999V9ZM4 9H3V11H4V9ZM4 13H3V15H4V13ZM13 3H12V1H13V3Z"
            clip-rule="evenodd"/>
    </symbol>
    <symbol id="addCircle" viewBox="0 0 16 16">
      <path xmlns="http://www.w3.org/2000/svg" fill-rule="evenodd"
            d="M12.2407 3.75832C12.8028 4.32753 13.2332 4.98639 13.5317 5.73492C13.8302 6.48346 13.9793 7.2373 13.9791 7.99647C13.9789 8.75564 13.831 9.51133 13.5356 10.2636C13.2401 11.0158 12.8093 11.6749 12.2433 12.241C11.6773 12.807 11.0146 13.2378 10.2554 13.5332C8.74034 14.1347 7.23257 14.1352 5.73198 13.5346C4.97993 13.2396 4.32107 12.8093 3.75539 12.2436C3.1897 11.6779 2.75936 11.0191 2.46436 10.267C1.86734 8.74182 1.86605 7.23229 2.46049 5.73836C2.75245 4.98964 3.18319 4.33052 3.75275 3.76096C4.3223 3.19141 4.98319 2.7589 5.73542 2.46343C7.25044 1.86898 8.76173 1.86851 10.2693 2.46203C11.0179 2.76054 11.675 3.19264 12.2407 3.75832ZM6.99998 4H8.99998V7H12V9H8.99998V12H6.99998V9H3.99998V7H6.99998V4Z"
            clip-rule="evenodd"/>
    </symbol>
    <symbol id="addComment" viewBox="0 0 16 16">
      <path xmlns="http://www.w3.org/2000/svg" fill-rule="evenodd"
            d="M4.00098 12.002C3.44954 12.002 2.97787 11.806 2.58594 11.4141C2.19401 11.0221 1.99805 10.5505 1.99805 9.99902V5.01562C1.99805 4.45963 2.19401 3.98568 2.58594 3.59375C2.97787 3.20182 3.44954 3.00358 4.00098 2.99902H11.999C12.5505 2.99902 13.0221 3.19726 13.4141 3.59375C13.806 3.99024 14.002 4.46419 14.002 5.01562V7.4169C13.389 7.14876 12.7119 7 12 7C9.23858 7 7 9.23858 7 12C7 12.3238 7.03078 12.6404 7.08958 12.9471L4.81445 14.8867C4.6595 15.0326 4.48633 15.0599 4.29492 14.9688C4.10351 14.8776 4.00553 14.7204 4.00098 14.4971V12.002ZM10.9961 9V10.9961H9V12.999H10.9961V14.9951H12.999V12.999H14.9951V10.9961H12.999V9H10.9961Z"
            clip-rule="evenodd"/>
    </symbol>
    <symbol id="arrowDown" viewBox="0 0 16 16">
      <path xmlns="http://www.w3.org/2000/svg" fill-rule="evenodd"
            d="M12.7071 9.00001L7.85355 13.8536L3 9.00001L3.70711 8.2929L7.35355 11.9393L7.35355 2.14645L8.35355 2.14645L8.35355 11.9393L12 8.2929L12.7071 9.00001Z"
            clip-rule="evenodd"/>
    </symbol>
    <symbol id="arrowDownKey" viewBox="0 0 16 16">
      <path xmlns="http://www.w3.org/2000/svg" fill-rule="evenodd"
            d="M8 9.00098L11.001 6C11.3747 6 11.6322 6.10937 11.7734 6.32812C11.9147 6.54688 11.9899 6.73828 11.999 6.90234V6.99805L8 10.9971L4.00098 6.99805V6.88867C4.03744 6.51953 4.20833 6.25977 4.51367 6.10938C4.65039 6.03646 4.81217 6 4.99902 6L8 9.00098Z"
            clip-rule="evenodd"/>
    </symbol>
    <symbol id="arrowDownSmall" viewBox="0 0 16 16">
      <path xmlns="http://www.w3.org/2000/svg" d="M4 6L8.00002 10L12 6H4Z"/>
    </symbol>
    <symbol id="arrowLeft" viewBox="0 0 16 16">
      <path xmlns="http://www.w3.org/2000/svg" fill-rule="evenodd"
            d="M6.85355 12.8536L2 8.00002L6.85356 3.14647L7.56066 3.85358L3.91422 7.50002L13.7071 7.50002L13.7071 8.50002L3.91421 8.50002L7.56066 12.1465L6.85355 12.8536Z"
            clip-rule="evenodd"/>
    </symbol>
    <symbol id="arrowLeftKey" viewBox="0 0 16 16">
      <path xmlns="http://www.w3.org/2000/svg" fill-rule="evenodd"
            d="M8 7.99609L11.001 10.9971C11.001 11.3708 10.8962 11.626 10.6865 11.7627C10.4769 11.8994 10.2809 11.9792 10.0986 12.002L9.99609 12.002L5.99707 7.99609L9.99609 3.99707L10.0986 3.99707C10.4632 4.02897 10.7253 4.20215 10.8848 4.5166C10.9622 4.63965 11.001 4.80143 11.001 5.00195L8 7.99609Z"
            clip-rule="evenodd"/>
    </symbol>
    <symbol id="arrowLeftSmall" viewBox="0 0 16 16">
      <path xmlns="http://www.w3.org/2000/svg" d="M10 12L6 8L10 4V12Z"/>
    </symbol>
    <symbol id="arrowRight" viewBox="0 0 16 16">
      <path xmlns="http://www.w3.org/2000/svg" fill-rule="evenodd"
            d="M8.85355 3.14645L13.7071 8.00001L8.85355 12.8536L8.14645 12.1465L11.7929 8.50001H2V7.50001H11.7929L8.14645 3.85356L8.85355 3.14645Z"
            clip-rule="evenodd"/>
    </symbol>
    <symbol id="arrowRightKey" viewBox="0 0 16 16">
      <path xmlns="http://www.w3.org/2000/svg" fill-rule="evenodd"
            d="M8.99805 8.00293L5.99707 5.00195C5.99707 4.62825 6.10189 4.37305 6.31152 4.23633C6.52116 4.09961 6.71712 4.01986 6.89941 3.99707H7.00195L11.001 8.00293L7.00195 12.002H6.89941C6.53483 11.9701 6.27279 11.7969 6.11328 11.4824C6.03581 11.3594 5.99707 11.1976 5.99707 10.9971L8.99805 8.00293Z"
            clip-rule="evenodd"/>
    </symbol>
    <symbol id="arrowRightSmall" viewBox="0 0 16 16">
      <path xmlns="http://www.w3.org/2000/svg" d="M6 12L10 8L6 4V12Z"/>
    </symbol>
    <symbol id="arrowUp" viewBox="0 0 16 16">
      <path xmlns="http://www.w3.org/2000/svg" fill-rule="evenodd"
            d="M3 7.00002L7.85355 2.14647L12.7071 7.00002L12 7.70713L8.35355 4.06068L8.35355 13.8536L7.35355 13.8536L7.35355 4.06068L3.70711 7.70713L3 7.00002Z"
            clip-rule="evenodd"/>
    </symbol>
    <symbol id="arrowUpDownSmall" viewBox="0 0 16 16">
      <path xmlns="http://www.w3.org/2000/svg" d="M4 9L8.00002 13L12 9H4Z"/>
      <path xmlns="http://www.w3.org/2000/svg" d="M4 7L8 3L12 7H4Z"/>
    </symbol>
    <symbol id="arrowUpKey" viewBox="0 0 16 16">
      <path xmlns="http://www.w3.org/2000/svg" fill-rule="evenodd"
            d="M8 7.99609L4.99902 10.9971C4.62532 10.9971 4.36784 10.8877 4.22656 10.6689C4.08529 10.4502 4.01009 10.2588 4.00098 10.0947L4.00098 9.99902L8 6L11.999 9.99902L11.999 10.1084C11.9626 10.4775 11.7917 10.7373 11.4863 10.8877C11.3496 10.9606 11.1878 10.9971 11.001 10.9971L8 7.99609Z"
            clip-rule="evenodd"/>
    </symbol>
    <symbol id="arrowUpSmall" viewBox="0 0 16 16">
      <path xmlns="http://www.w3.org/2000/svg" d="M4 10L8.00002 6L12 10H4Z"/>
    </symbol>
    <symbol id="autoSize" viewBox="0 0 16 16">
      <path xmlns="http://www.w3.org/2000/svg" fill-rule="evenodd"
            d="M2 4V6H3V4H7H8H12V6H13V4H14V3H13V1H12V3H8H7H3V1H2V3H1V4H2ZM2 14V7H13V14H2ZM3 8H7H8H12V13H8H7H3V8Z"
            clip-rule="evenodd"/>
    </symbol>
    <symbol id="autoSizeAll" viewBox="0 0 16 16">
      <path xmlns="http://www.w3.org/2000/svg" fill-rule="evenodd"
            d="M2 4V6H3V4H7V6H8V4H12V6H13V4H14V3H13V1H12V3H8V1H7V3H3V1H2V3H1V4H2ZM2 14V7H13V14H2ZM3 13V8H7V13H3ZM8 13V8H12V13H8Z"
            clip-rule="evenodd"/>
    </symbol>
    <symbol id="backspace" viewBox="0 0 16 16">
      <path xmlns="http://www.w3.org/2000/svg"
            d="M14.6667 2H4.66666C4.20666 2 3.84331 2.23334 3.60331 2.58666L0 7.99666L3.60334 13.4067C3.84334 13.76 4.20666 14 4.66666 14H14.6667C15.4033 14 16 13.4033 16 12.6667V3.33334C16 2.59666 15.4033 2 14.6667 2ZM12.6667 10.39L11.7233 11.3333L9.33331 8.94334L6.94331 11.3333L6 10.39L8.39 8L6 5.61L6.94334 4.66666L9.33334 7.05666L11.7233 4.66666L12.6667 5.61L10.2767 8L12.6667 10.39Z"/>
    </symbol>
    <symbol id="bullet" viewBox="0 0 16 16">
      <circle xmlns="http://www.w3.org/2000/svg" cx="8" cy="8" r="3"/>
    </symbol>
    <symbol id="calc" viewBox="0 0 16 16">
      <path xmlns="http://www.w3.org/2000/svg" fill-rule="evenodd"
            d="M3 3C3 2.44772 3.44772 2 4 2H12C12.5523 2 13 2.44772 13 3V13C13 13.5523 12.5523 14 12 14H4C3.44772 14 3 13.5523 3 13V3ZM4 3H12V5H4V3ZM6 7H5V8H6V7ZM7 7H8V8H7V7ZM11 7H9V8H11V7ZM5 9H6V10H5V9ZM8 9H7V10H8V9ZM5 11H6V12H5V11ZM8 11H7V12H8V11ZM9 9H11V10H9V9ZM11 11H9V12H11V11Z"
            clip-rule="evenodd"/>
    </symbol>
    <symbol id="calendar" viewBox="0 0 16 16">
      <path xmlns="http://www.w3.org/2000/svg" fill-rule="evenodd"
            d="M11.999 10.498V11.4961H10.0029V10.498H11.999ZM8.99609 10.498V11.4961H7V10.498H8.99609ZM5.99707 10.498V11.4961H4.00098V10.498H5.99707ZM11.999 8.50195V9.5H10.0029V8.50195H11.999ZM8.99609 8.50195V9.5H7V8.50195H8.99609ZM5.99707 8.50195V9.5H4.00098V8.50195H5.99707ZM12.999 12.501V7.49707H3.00293V12.501H12.999ZM3.00293 13.499C2.70215 13.499 2.46061 13.4079 2.27832 13.2256C2.09603 13.0433 2.0026 12.8018 1.99805 12.501V5.50098C1.99805 5.23665 2.09375 5.00423 2.28516 4.80371C2.47656 4.60319 2.71582 4.50065 3.00293 4.49609H4.99902V5.50098H5.99707V4.49609H9.99805V5.50098H11.0029V4.49609H12.999C13.2861 4.50065 13.5254 4.60319 13.7168 4.80371C13.9082 5.00423 14.0016 5.23665 13.9971 5.50098V12.501C13.9971 12.8018 13.9059 13.0433 13.7236 13.2256C13.5413 13.4079 13.2998 13.499 12.999 13.499H3.00293ZM11.0029 4.49609H9.99805V2.5H11.0029V4.49609ZM5.99707 4.49609H4.99902V2.5H5.99707V4.49609Z"
            clip-rule="evenodd"/>
    </symbol>
    <symbol id="camera" viewBox="0 0 16 16">
      <path xmlns="http://www.w3.org/2000/svg"
            d="M10.0386 4H1.97222C1.43547 4.00061 1.00063 4.4176 1 4.93232V11.0677C1.00063 11.5824 1.43547 11.9994 1.97222 12H10.0386C10.5752 11.9994 11.0102 11.5824 11.0109 11.0677V4.93232C11.0102 4.4176 10.5752 4.00061 10.0386 4Z"/>
      <path xmlns="http://www.w3.org/2000/svg" d="M12 9.27697L15 11.0262V4.99387L12 6.74307V9.27697Z"/>
    </symbol>
    <symbol id="chart" viewBox="0 0 16 16">
      <path xmlns="http://www.w3.org/2000/svg" fill-rule="evenodd"
            d="M4.99999 8V13H3V8H4.99999ZM13 6V13H11V6H13ZM8.999 3V13H6.99901V3H8.999Z" clip-rule="evenodd"/>
    </symbol>
    <symbol id="checkCircle" viewBox="0 0 16 16">
      <path xmlns="http://www.w3.org/2000/svg" fill-rule="evenodd"
            d="M7.99805 2.00098C8.79805 2.00595 9.56823 2.16754 10.3086 2.48575C11.049 2.80396 11.6875 3.23155 12.2241 3.76853C12.7608 4.30552 13.1906 4.94442 13.5136 5.68525C13.8366 6.42609 13.998 7.19675 13.998 7.99725C13.998 8.79775 13.8341 9.57089 13.5061 10.3167C12.8602 11.8133 11.7943 12.8798 10.3086 13.5162C9.56823 13.8394 8.79805 14.001 7.99805 14.001C7.19804 14.001 6.42786 13.8394 5.68749 13.5162C4.18686 12.8599 3.11855 11.7934 2.48252 10.3167C2.15954 9.58084 1.99805 8.81018 1.99805 8.00471C1.99805 7.19923 2.15954 6.42609 2.48252 5.68525C3.13345 4.19364 4.20177 3.12466 5.68749 2.47829C6.42786 2.16008 7.19804 2.00098 7.99805 2.00098ZM4.87399 6.84601L3.38542 8.30799L6.7467 11.6227L12.3854 6.0847L10.8969 4.62271L6.7467 8.68527L4.87399 6.84601Z"
            clip-rule="evenodd"/>
    </symbol>
    <symbol id="clock" viewBox="0 0 16 16">
      <path xmlns="http://www.w3.org/2000/svg" fill-rule="evenodd"
            d="M10.2969 7.10059L10.7002 8.50195L7.59668 9.30176L5.79883 6.40332L7.00195 5.59668L8.31445 7.66797L10.2969 7.10059ZM8 12.002C8.72006 12.002 9.38769 11.8219 10.0029 11.4619C10.6182 11.1019 11.1058 10.6165 11.4658 10.0059C11.8258 9.39518 12.0036 8.72754 11.999 8.00293C11.9945 7.28743 11.8145 6.61979 11.459 6C11.1035 5.38021 10.6182 4.89258 10.0029 4.53711C9.38769 4.18164 8.72006 4.00163 8 3.99707C7.27994 3.99707 6.61231 4.17708 5.99707 4.53711C5.38183 4.90169 4.89421 5.38932 4.53418 6C4.17415 6.61068 3.99414 7.27604 3.99414 7.99609C3.99414 8.71615 4.17643 9.38606 4.54102 10.0059C4.89649 10.6257 5.38183 11.1133 5.99707 11.4688C6.61231 11.8242 7.27994 12.002 8 12.002ZM8 2.00098C8.8112 2.00098 9.58593 2.16048 10.3242 2.47949C11.8099 3.12207 12.8763 4.18619 13.5234 5.67188C13.8424 6.41016 14.002 7.18489 14.002 7.99609C14.002 8.8073 13.8424 9.58431 13.5234 10.3271C13.2044 11.0609 12.776 11.6966 12.2383 12.2344C11.7005 12.7721 11.0625 13.2005 10.3242 13.5195C9.58593 13.8385 8.8112 13.998 8 13.998C7.1888 13.998 6.41407 13.8385 5.67578 13.5195C4.1901 12.877 3.1237 11.8128 2.47656 10.3271C2.15755 9.58886 1.99805 8.81413 1.99805 8.00293C1.99805 7.18717 2.15755 6.41016 2.47656 5.67188C2.79557 4.93359 3.22396 4.29558 3.76172 3.75781C4.29948 3.22005 4.9375 2.79395 5.67578 2.47949C6.41407 2.16048 7.1888 2.00098 8 2.00098Z"
            clip-rule="evenodd"/>
    </symbol>
    <symbol id="clockChange" viewBox="0 0 16 16">
      <path xmlns="http://www.w3.org/2000/svg"
            d="M10.7002 7.50195L10.2969 6.10059L8.31445 6.66797L7.00195 4.59668L5.79883 5.40332L7.59668 8.30176L10.7002 7.50195Z"/>
      <path xmlns="http://www.w3.org/2000/svg"
            d="M11.9688 7.53118C11.9901 7.35859 12.0002 7.18251 11.999 7.00293C11.9945 6.28743 11.8145 5.61979 11.459 5C11.1035 4.38021 10.6182 3.89258 10.0029 3.53711C9.38769 3.18164 8.72006 3.00163 8 2.99707C7.27994 2.99707 6.61231 3.17708 5.99707 3.53711C5.38183 3.90169 4.89421 4.38932 4.53418 5C4.17415 5.61068 3.99414 6.27604 3.99414 6.99609C3.99414 7.16245 4.00387 7.32612 4.02333 7.48712L2.40128 9.14473C2.13246 8.46152 1.99805 7.74759 1.99805 7.00293C1.99805 6.18717 2.15755 5.41016 2.47656 4.67188C2.79557 3.93359 3.22396 3.29558 3.76172 2.75781C4.29948 2.22005 4.9375 1.79395 5.67578 1.47949C6.41407 1.16048 7.1888 1.00098 8 1.00098C8.8112 1.00098 9.58593 1.16048 10.3242 1.47949C11.8099 2.12207 12.8763 3.18619 13.5234 4.67188C13.8424 5.41016 14.002 6.18489 14.002 6.99609C14.002 7.73952 13.868 8.45423 13.6001 9.14024L12 7.5L11.9688 7.53118Z"/>
      <path xmlns="http://www.w3.org/2000/svg" d="M11 13V15L14 12L11 9V11H5V9L2 12L5 15V13H11Z"/>
    </symbol>
    <symbol id="closeBig" viewBox="0 0 16 16">
      <path xmlns="http://www.w3.org/2000/svg" fill-rule="evenodd"
            d="M13 3.82883L8.82628 7.98343L12.9929 12.131L12.1804 12.9799L7.99767 8.84848L3.87675 13L3 12.1514L7.13364 8.02056L3.00744 3.84893L3.81989 2.99997L7.97032 7.14748L12.1602 3.01699L13 3.82883Z"
            clip-rule="evenodd"/>
    </symbol>
    <symbol id="closeCircle" viewBox="0 0 16 16">
      <path xmlns="http://www.w3.org/2000/svg" fill-rule="evenodd"
            d="M8.9819 7.99723L11.598 5.49133L10.5024 4.50687L7.99805 7.02023L5.48625 4.50687L4.50985 5.49133L7.0142 7.99723L4.50985 10.6225L5.48625 11.5995L7.99805 9.09357L10.5024 11.5995L11.598 10.6225L8.9819 7.99723ZM7.99805 2.00098C8.79805 2.00595 9.56823 2.16754 10.3086 2.48575C11.049 2.80396 11.6875 3.23155 12.2241 3.76853C12.7608 4.30552 13.1906 4.94442 13.5136 5.68525C13.8366 6.42609 13.998 7.19675 13.998 7.99725C13.998 8.79775 13.8341 9.57089 13.5061 10.3167C12.8602 11.8133 11.7943 12.8798 10.3086 13.5162C9.56823 13.8394 8.79805 14.001 7.99805 14.001C7.19804 14.001 6.42786 13.8394 5.68749 13.5162C4.18686 12.8599 3.11855 11.7934 2.48252 10.3167C2.15954 9.58084 1.99805 8.81018 1.99805 8.00471C1.99805 7.19923 2.15954 6.42609 2.48252 5.68525C3.13345 4.19364 4.20177 3.12466 5.68749 2.47829C6.42786 2.16008 7.19804 2.00098 7.99805 2.00098Z"
            clip-rule="evenodd"/>
    </symbol>
    <symbol id="comment" viewBox="0 0 16 16">
      <path xmlns="http://www.w3.org/2000/svg" fill-rule="evenodd"
            d="M4.00098 12.002C3.44954 12.002 2.97787 11.806 2.58594 11.4141C2.19401 11.0221 1.99805 10.5505 1.99805 9.99902V5.01562C1.99805 4.45963 2.19401 3.98568 2.58594 3.59375C2.97787 3.20182 3.44954 3.00358 4.00098 2.99902H11.999C12.5505 2.99902 13.0221 3.19726 13.4141 3.59375C13.806 3.99024 14.002 4.46419 14.002 5.01562V9.99902C14.002 10.555 13.806 11.0267 13.4141 11.4141C13.0221 11.8014 12.5505 11.9974 11.999 12.002H8.19824L4.81445 14.8867C4.6595 15.0326 4.48633 15.0599 4.29492 14.9688C4.10351 14.8776 4.00553 14.7204 4.00098 14.4971V12.002Z"
            clip-rule="evenodd"/>
    </symbol>
    <symbol id="copy" viewBox="0 0 16 16">
      <path xmlns="http://www.w3.org/2000/svg" fill-rule="evenodd"
            d="M4.00098 5.00195V13H11.001V5.00195H4.00098ZM4.00098 3.99707H11.001C11.279 3.99707 11.5137 4.09505 11.7051 4.29102C11.8965 4.48698 11.9945 4.72396 11.999 5.00195V13C11.999 13.278 11.901 13.515 11.7051 13.7109C11.5091 13.9069 11.2744 14.0026 11.001 13.998H4.00098C3.72754 13.998 3.49284 13.8978 3.29688 13.6973C3.10091 13.4967 3.00293 13.2643 3.00293 13V5.00195C3.00293 4.72396 3.09863 4.48698 3.29004 4.29102C3.486 4.09505 3.72298 3.99707 4.00098 3.99707ZM12.9971 2.99902H4.99902C4.99902 2.72103 5.097 2.48633 5.29297 2.29492C5.48893 2.10351 5.72363 2.00553 5.99707 2.00098H12.9971C13.2705 2.00098 13.5052 2.10124 13.7012 2.30176C13.8971 2.50228 13.9974 2.7347 14.002 2.99902V10.9971C14.002 11.2751 13.904 11.512 13.708 11.708C13.512 11.904 13.2751 12.002 12.9971 12.002V2.99902Z"
            clip-rule="evenodd"/>
    </symbol>
    <symbol id="copySelected" viewBox="0 0 16 16">
      <path xmlns="http://www.w3.org/2000/svg"
            d="M5.82698 8.27045L5 9.10587L6.86738 11L10 7.83542L9.17302 7L6.86738 9.32146L5.82698 8.27045Z"/>
      <path xmlns="http://www.w3.org/2000/svg" fill-rule="evenodd"
            d="M11.001 3.99707H4.00098C3.72298 3.99707 3.486 4.09505 3.29004 4.29102C3.09863 4.48698 3.00293 4.72396 3.00293 5.00195V13C3.00293 13.2643 3.10091 13.4967 3.29688 13.6973C3.49284 13.8978 3.72754 13.998 4.00098 13.998H11.001C11.2744 14.0026 11.5091 13.9069 11.7051 13.7109C11.901 13.515 11.999 13.278 11.999 13V5.00195C11.9945 4.72396 11.8965 4.48698 11.7051 4.29102C11.5137 4.09505 11.279 3.99707 11.001 3.99707ZM4.00098 13V5.00195H11.001V13H4.00098Z"
            clip-rule="evenodd"/>
      <path xmlns="http://www.w3.org/2000/svg"
            d="M4.99902 2.99902H12.9971V12.002C13.2751 12.002 13.512 11.904 13.708 11.708C13.904 11.512 14.002 11.2751 14.002 10.9971V2.99902C13.9974 2.7347 13.8971 2.50228 13.7012 2.30176C13.5052 2.10124 13.2705 2.00098 12.9971 2.00098H5.99707C5.72363 2.00553 5.48893 2.10351 5.29297 2.29492C5.097 2.48633 4.99902 2.72103 4.99902 2.99902Z"/>
    </symbol>
    <symbol id="cut" viewBox="0 0 16 16">
      <path xmlns="http://www.w3.org/2000/svg"
            d="M14 4.84582C13.4455 4.05393 12.3431 3.84525 11.551 4.39973L7.47859 7.25125L5.99774 6.21424C6.54913 5.26225 6.28977 4.03035 5.37172 3.3876C4.40225 2.709 3.06653 2.9445 2.38764 3.91378C1.70905 4.8831 1.94436 6.21911 2.91386 6.898C3.57911 7.3638 4.41707 7.39872 5.09657 7.06164L6.91035 8.3316L5.09673 9.60142C4.41723 9.26451 3.57932 9.29943 2.91402 9.76506C1.94457 10.444 1.70924 11.7798 2.3878 12.7491C3.06669 13.7186 4.40256 13.9541 5.37186 13.2755C6.28979 12.6327 6.5491 11.4008 5.99788 10.4488L7.47873 9.41181L11.551 12.2632C12.343 12.8178 13.4455 12.609 14 11.8171L9.02162 8.33158L14 4.84582ZM4.14751 6.25825C3.53408 6.25825 3.03676 5.76093 3.03676 5.1475C3.03676 4.53407 3.53411 4.03675 4.14751 4.03675C4.76108 4.03675 5.25826 4.53407 5.25826 5.1475C5.25826 5.76093 4.76108 6.25825 4.14751 6.25825ZM4.14751 12.6265C3.53408 12.6265 3.03676 12.1292 3.03676 11.5158C3.03676 10.9024 3.53408 10.405 4.14751 10.405C4.76108 10.405 5.25826 10.9024 5.25826 11.5158C5.25826 12.1292 4.76108 12.6265 4.14751 12.6265Z"/>
    </symbol>
    <symbol id="cutArea" viewBox="0 0 16 16">
      <path xmlns="http://www.w3.org/2000/svg" fill="#888D91"
            d="M6.73104 2C5.9884 2.55448 5.79269 3.65694 6.31269 4.44896L8.9869 8.52141L8.01437 10.0023C7.12158 9.45087 5.96628 9.71023 5.3635 10.6283C4.72709 11.5977 4.94795 12.9335 5.85696 13.6124C6.76601 14.2909 8.01894 14.0556 8.65561 13.0861C9.09245 12.4209 9.1252 11.5829 8.80908 10.9034L10.0001 9.08965L11.1909 10.9033C10.875 11.5828 10.9077 12.4207 11.3444 13.086C11.9811 14.0554 13.2339 14.2908 14.1429 13.6122C15.0521 12.9333 15.2729 11.5974 14.6365 10.6281C14.0337 9.71021 12.8784 9.45089 11.9856 10.0021L11.0131 8.52127L13.6872 4.44898C14.2073 3.65696 14.0115 2.55451 13.2688 2.00002L10 6.97838L6.73104 2ZM8.05565 11.8525C8.05565 12.4659 7.58925 12.9632 7.01397 12.9632C6.43868 12.9632 5.97229 12.4659 5.97228 11.8525C5.97228 11.2389 6.43868 10.7417 7.01397 10.7417C7.58925 10.7417 8.05565 11.2389 8.05565 11.8525ZM14.0279 11.8525C14.0279 12.4659 13.5615 12.9632 12.9863 12.9632C12.411 12.9632 11.9446 12.4659 11.9446 11.8525C11.9446 11.2389 12.411 10.7417 12.9863 10.7417C13.5615 10.7417 14.0279 11.2389 14.0279 11.8525Z"/>
      <path xmlns="http://www.w3.org/2000/svg" fill="#888D91" d="M2 1H3V3H2z"/>
      <path xmlns="http://www.w3.org/2000/svg" fill="#888D91" d="M2 5H3V7H2z"/>
      <path xmlns="http://www.w3.org/2000/svg" fill="#888D91" d="M2 9H3V11H2z"/>
      <path xmlns="http://www.w3.org/2000/svg" fill="#888D91" d="M2 13H3V15H2z"/>
    </symbol>
    <symbol id="dash" viewBox="0 0 16 16">
      <path xmlns="http://www.w3.org/2000/svg" d="M5 8H11V9H5V8Z"/>
    </symbol>
    <symbol id="delete" viewBox="0 0 16 16">
      <path xmlns="http://www.w3.org/2000/svg" fill-rule="evenodd"
            d="M9.99509 3.99625V2.99821H5.99413V3.99625H9.99509ZM12.9961 5.99918H11.998V13.0011C11.998 13.3019 11.9069 13.5435 11.7246 13.7257C11.5423 13.908 11.3008 13.9992 11 13.9992H4.99609C4.73632 13.9992 4.5039 13.9058 4.29882 13.7189C4.0983 13.5321 3.99804 13.2928 3.99804 13.0011V5.99918H3V5.00114C3 4.71858 3.10026 4.48161 3.30078 4.2902C3.5013 4.09879 3.73372 4.00081 3.99804 3.99625H4.99609V2.99821C5.00064 2.7111 5.10318 2.47184 5.3037 2.28043C5.50422 2.08903 5.73436 1.9956 5.99413 2.00016H9.99509C10.2959 2.00016 10.5374 2.0913 10.7197 2.2736C10.902 2.45589 10.9954 2.69742 11 2.99821V3.99625H11.998C12.2988 4.00081 12.5403 4.09423 12.7226 4.27653C12.9049 4.45882 12.9961 4.70035 12.9961 5.00114V5.99918Z"
            clip-rule="evenodd"/>
    </symbol>
    <symbol id="deleteSelected" viewBox="0 0 16 16">
      <path xmlns="http://www.w3.org/2000/svg" fill-rule="evenodd"
            d="M9.99509 2.99821V3.99625H5.99413V2.99821H9.99509ZM11.998 5.99918H12.9961V5.00114C12.9961 4.70035 12.9049 4.45882 12.7226 4.27653C12.5403 4.09423 12.2988 4.00081 11.998 3.99625H11V2.99821C10.9954 2.69742 10.902 2.45589 10.7197 2.2736C10.5374 2.0913 10.2959 2.00016 9.99509 2.00016H5.99413C5.73436 1.9956 5.50422 2.08903 5.3037 2.28043C5.10318 2.47184 5.00064 2.7111 4.99609 2.99821V3.99625H3.99804C3.73372 4.00081 3.5013 4.09879 3.30078 4.2902C3.10026 4.48161 3 4.71858 3 5.00114V5.99918H3.99804V13.0011C3.99804 13.2928 4.0983 13.5321 4.29882 13.7189C4.5039 13.9058 4.73632 13.9992 4.99609 13.9992H11C11.3008 13.9992 11.5423 13.908 11.7246 13.7257C11.9069 13.5435 11.998 13.3019 11.998 13.0011V5.99918ZM6.4596 8.44899L5.63262 9.28441L7.5 11.1785L10.6326 8.01396L9.80564 7.17854L7.5 9.5L6.4596 8.44899Z"
            clip-rule="evenodd"/>
    </symbol>
    <symbol id="document" viewBox="0 0 16 16">
      <path xmlns="http://www.w3.org/2000/svg" fill-rule="evenodd"
            d="M10.0029 10.999H4.99902V10.001H10.0029V10.999ZM10.0029 9.00293H4.99902V7.99805H10.0029V9.00293ZM8.99805 7H4.99902V6.00195H8.99805V7ZM4.00098 2.99902V13.002H11.001V6L8 2.99902H4.00098ZM4.00098 14C3.70019 14 3.45866 13.9089 3.27637 13.7266C3.09407 13.5443 3.00293 13.3027 3.00293 13.002V2.99902C3.00293 2.69824 3.09407 2.45671 3.27637 2.27441C3.45866 2.09212 3.70019 2.00098 4.00098 2.00098H8.41699L11.999 5.58301V13.002C11.999 13.2845 11.8988 13.5215 11.6982 13.7129C11.4977 13.9043 11.2653 14 11.001 14H4.00098Z"
            clip-rule="evenodd"/>
    </symbol>
    <symbol id="documentAnalyze" viewBox="0 0 16 16">
      <path xmlns="http://www.w3.org/2000/svg" fill-rule="evenodd"
            d="M7 7H4.99902V6.00195H8.99805V7H7ZM11.001 7V6L8 2.99902H4.00098V13.002H7V14H4.00098C3.70019 14 3.45866 13.9089 3.27637 13.7266C3.09407 13.5443 3.00293 13.3027 3.00293 13.002V2.99902C3.00293 2.69824 3.09407 2.45671 3.27637 2.27441C3.45866 2.09212 3.70019 2.00098 4.00098 2.00098H8.41699L11.999 5.58301V7H11.001ZM7 10.999H4.99902V10.001H7V10.999ZM7 7.99805V9.00293H4.99902V7.99805H7ZM11.5 14C12.8807 14 14 12.8807 14 11.5C14 10.1193 12.8807 9 11.5 9C10.1193 9 9 10.1193 9 11.5C9 12.8807 10.1193 14 11.5 14ZM14.3002 13.6001C14.7396 13.0151 15 12.288 15 11.5C15 9.567 13.433 8 11.5 8C9.567 8 8 9.567 8 11.5C8 13.433 9.567 15 11.5 15C12.288 15 13.0151 14.7396 13.6001 14.3002C13.6141 14.3188 13.6295 14.3366 13.6464 14.3536L15.1464 15.8536C15.3417 16.0488 15.6583 16.0488 15.8536 15.8536C16.0488 15.6583 16.0488 15.3417 15.8536 15.1464L14.3536 13.6464C14.3366 13.6295 14.3188 13.6141 14.3002 13.6001Z"
            clip-rule="evenodd"/>
    </symbol>
    <symbol id="dots" viewBox="0 0 16 16">
      <rect xmlns="http://www.w3.org/2000/svg" width="2" height="2" x="3" y="4" rx="1"/>
      <rect xmlns="http://www.w3.org/2000/svg" width="2" height="2" x="8" y="2" rx="1"/>
      <rect xmlns="http://www.w3.org/2000/svg" width="2" height="2" x="11" y="7" rx="1"/>
      <rect xmlns="http://www.w3.org/2000/svg" width="2" height="2" x="10" y="12" rx="1"/>
      <rect xmlns="http://www.w3.org/2000/svg" width="2" height="2" x="11" y="3" rx="1"/>
      <rect xmlns="http://www.w3.org/2000/svg" width="2" height="2" x="8" y="6" rx="1"/>
      <rect xmlns="http://www.w3.org/2000/svg" width="2" height="2" x="7" y="10" rx="1"/>
      <rect xmlns="http://www.w3.org/2000/svg" width="2" height="2" x="5" y="7" rx="1"/>
      <rect xmlns="http://www.w3.org/2000/svg" width="2" height="2" x="4" y="11" rx="1"/>
    </symbol>
    <symbol id="download" viewBox="0 0 16 16">
      <path xmlns="http://www.w3.org/2000/svg" fill-rule="evenodd" d="M13.5 11.4971V13.5H2.50101V11.4971H13.5Z"
            clip-rule="evenodd"/>
      <path xmlns="http://www.w3.org/2000/svg"
            d="M12.2959 6L9.49999 6L9.47288 2.49933L6.47191 2.49933L6.49902 6L3.6963 6L7.99609 10.498L12.2959 6Z"/>
    </symbol>
    <symbol id="drop" viewBox="0 0 16 16">
      <path xmlns="http://www.w3.org/2000/svg"
            d="M10.8328 4.90402C9.88857 3.26556 8.83832 1.8475 8.29628 1.14802C8.22374 1.05434 8.1149 0.999963 8.00001 1C7.8851 1 7.77629 1.05438 7.70372 1.14805C7.16171 1.84775 6.11145 3.26629 5.16719 4.90489C3.95033 7.01663 3.33331 8.76257 3.33331 10.0941C3.33331 12.7992 5.42677 15 7.99998 15C10.5732 15 12.6666 12.7992 12.6666 10.0941C12.6667 8.76169 12.0497 7.0155 10.8328 4.90402ZM8.64037 13.1931C8.36787 13.2663 8.08502 13.3034 7.7995 13.3034C6.05604 13.3034 4.63765 11.9182 4.63765 10.2156C4.63765 9.80457 4.74083 9.32433 4.94423 8.78828C4.97859 8.69771 5.07649 8.64603 5.17299 8.66794C5.26943 8.68978 5.33419 8.77816 5.32425 8.87429C5.31237 8.98925 5.30633 9.10155 5.30633 9.20794C5.30633 11.0608 6.72652 12.6124 8.60984 12.8169C8.70356 12.8271 8.77669 12.9008 8.78416 12.9927C8.79166 13.0845 8.73129 13.1686 8.64037 13.1931Z"/>
    </symbol>
    <symbol id="edit" viewBox="0 0 16 16">
      <path xmlns="http://www.w3.org/2000/svg" fill-rule="evenodd"
            d="M13 12V12.998H8V12H13ZM3 13V11L9 4.99999L11 6.99999L5 13H3ZM13 5L11.5 6.5L9.5 4.5L11 3L13 5Z"
            clip-rule="evenodd"/>
    </symbol>
    <symbol id="end" viewBox="0 0 16 16">
      <path xmlns="http://www.w3.org/2000/svg" d="M3 3H4V13H3V3Z"/>
      <path xmlns="http://www.w3.org/2000/svg"
            d="M4.29289 8.00001L7 5L7.70711 5.70711L6.20711 7.50001H13V8.50001H6.20711L7.70711 10.2929L7 11L4.29289 8.00001Z"/>
    </symbol>
    <symbol id="eye" viewBox="0 0 16 16">
      <path xmlns="http://www.w3.org/2000/svg" fill-rule="evenodd"
            d="M8.0957 10.1973C7.49869 10.1973 6.98373 9.98079 6.55078 9.54784C6.11784 9.1149 5.90137 8.59765 5.90137 7.99608C5.90137 7.39452 6.11784 6.87955 6.55078 6.45116C6.98373 6.01822 7.49869 5.80175 8.0957 5.80175C8.69271 5.80175 9.19173 6.01594 9.59277 6.44433C9.99837 6.86816 10.2012 7.3854 10.2012 7.99608C10.2012 8.60676 10.0007 9.12629 9.59961 9.55468C9.19857 9.98307 8.69727 10.1973 8.0957 10.1973ZM3.00293 7.96874C3.00293 8.49739 3.23535 8.94172 3.7002 9.30175C6.52117 11.7536 9.42186 11.7536 12.4023 9.30175C12.8079 8.89615 13.0062 8.46321 12.9971 8.00292C12.9971 7.71581 12.8649 7.41959 12.6006 7.11425C12.5094 7.01399 12.375 6.87499 12.1973 6.69726C10.7936 5.53514 9.35352 4.98371 7.87695 5.04296C6.7513 5.08853 5.63021 5.47134 4.51367 6.1914C4.23568 6.37369 3.96452 6.57649 3.7002 6.79979C3.52702 6.97297 3.40169 7.10285 3.32422 7.18944C3.11002 7.4401 3.00293 7.69986 3.00293 7.96874ZM1.30078 7.95507C1.30078 7.18944 1.56738 6.53775 2.10059 5.99999V5.97265C2.11426 5.92252 2.14844 5.89745 2.20312 5.89745C3.99415 4.01528 5.87857 3.03775 7.85645 2.96483C9.11882 2.91926 10.4017 3.31118 11.7051 4.14061C12.416 4.59635 13.1133 5.18195 13.7969 5.89745C14.1022 6.15722 14.346 6.47395 14.5283 6.84765C14.7106 7.22135 14.8018 7.60643 14.8018 8.00292C14.8018 8.74576 14.501 9.4772 13.8994 10.1973C12.5277 11.5006 11.1673 12.3665 9.81836 12.7949C9.29883 12.9544 8.72006 13.0433 8.08203 13.0615C7.44401 13.0752 6.81739 12.9909 6.20215 12.8086C5.5778 12.6263 4.91016 12.2982 4.19922 11.8242C3.48828 11.3502 2.78874 10.7419 2.10059 9.99901V9.90331C1.56738 9.3701 1.30078 8.7207 1.30078 7.95507Z"
            clip-rule="evenodd"/>
    </symbol>
    <symbol id="fader" viewBox="0 0 16 16">
      <path xmlns="http://www.w3.org/2000/svg" fill-rule="evenodd"
            d="M4 2H2V10H4V2ZM5 11H4H2H1V12H2V14H4V12H5V11ZM9 2H7V7H9V2ZM9 8H10V9H9V14H7V9H6V8H7H9ZM12 2H14V4H12V2ZM15 5H14H12H11V6H12V14H14V6H15V5Z"
            clip-rule="evenodd"/>
    </symbol>
    <symbol id="filter" viewBox="0 0 16 16">
      <path xmlns="http://www.w3.org/2000/svg" fill-rule="evenodd"
            d="M5.9959 3.9074H3.99863V4.82101L8 7.54941L5.9959 4.82101V3.9074ZM8.99863 13H7.00137V8.45681L3 4.82101V3H13V4.82101L8.99863 8.45681V13Z"
            clip-rule="evenodd"/>
    </symbol>
    <symbol id="filterSortDown" viewBox="0 0 16 16">
      <path xmlns="http://www.w3.org/2000/svg" fill-rule="evenodd"
            d="M7 3H1V4.82101L5.00137 8.45681V13H6.99863V8.45681L7 8.45556V3ZM1.99863 3.9074H3.9959V4.82101L6 7.54941L1.99863 4.82101V3.9074Z"
            clip-rule="evenodd"/>
      <path xmlns="http://www.w3.org/2000/svg" d="M9 12H11V10H9V12Z"/>
      <path xmlns="http://www.w3.org/2000/svg" d="M9 9H13V7H9V9Z"/>
      <path xmlns="http://www.w3.org/2000/svg" d="M15 6H9V4H15V6Z"/>
    </symbol>
    <symbol id="filterSortUp" viewBox="0 0 16 16">
      <path xmlns="http://www.w3.org/2000/svg" fill-rule="evenodd"
            d="M7 3H1V4.82101L5.00137 8.45681V13H6.99863V8.45681L7 8.45556V3ZM1.99863 3.9074H3.9959V4.82101L6 7.54941L1.99863 4.82101V3.9074Z"
            clip-rule="evenodd"/>
      <path xmlns="http://www.w3.org/2000/svg" d="M9 4H11V6H9V4Z"/>
      <path xmlns="http://www.w3.org/2000/svg" d="M9 7H13V9H9V7Z"/>
      <path xmlns="http://www.w3.org/2000/svg" d="M15 10H9V12H15V10Z"/>
    </symbol>
    <symbol id="flag" viewBox="0 0 16 16">
      <path xmlns="http://www.w3.org/2000/svg" fill-rule="evenodd"
            d="M1.99805 2.99902H12.498L10.0029 6.99805L12.498 10.9971H3.00293V15.0029H1.99805V2.99902Z"
            clip-rule="evenodd"/>
    </symbol>
    <symbol id="folder" viewBox="0 0 16 16">
      <path xmlns="http://www.w3.org/2000/svg" fill-rule="evenodd"
            d="M12.9971 12.002V5.00196H7.30273L6.29785 6.00001H11.001L11.999 12.002H12.9971ZM12.9971 3.99708C13.2568 3.99252 13.487 4.08594 13.6875 4.27735C13.888 4.46876 13.9928 4.71029 14.002 5.00196V12.002C14.002 12.2845 13.9017 12.5215 13.7012 12.7129C13.5007 12.9043 13.266 13 12.9971 13H3.00293L1.99805 6.00001H4.99902L7.00195 3.99708H12.9971Z"
            clip-rule="evenodd"/>
    </symbol>
    <symbol id="fullScreen" viewBox="0 0 16 16">
      <path xmlns="http://www.w3.org/2000/svg" fill-rule="evenodd"
            d="M12.9971 2.99902V7.98242L11.1172 6.10254L6.11328 11.0996L8 13H3.00293V7.98242L4.90332 9.90332L9.90039 4.88574L8 2.99902H12.9971Z"
            clip-rule="evenodd"/>
    </symbol>
    <symbol id="gantt" viewBox="0 0 16 16">
      <path xmlns="http://www.w3.org/2000/svg" fill-rule="evenodd" d="M5 11H15V12H5V11ZM3 7H13V8H3V7ZM1 3H11V4H1V3Z"
            clip-rule="evenodd"/>
    </symbol>
    <symbol id="gisMonochrome" viewBox="0 0 16 16">
      <path xmlns="http://www.w3.org/2000/svg" d="M3 1H4V15H3z"/>
      <path xmlns="http://www.w3.org/2000/svg" fill-rule="evenodd"
            d="M7.89188 3.06024C7.96161 2.88715 8 2.69806 8 2.5C8 1.67157 7.32843 1 6.5 1C5.67157 1 5 1.67157 5 2.5C5 3.32843 5.67157 4 6.5 4C6.7645 4 7.01302 3.93154 7.22879 3.81137L10.0764 6.02616C10.0268 6.1751 10 6.33441 10 6.5C10 6.73158 10.0525 6.95091 10.1462 7.14673L8.14673 9.1462C7.9509 9.05248 7.73158 9 7.5 9C6.67157 9 6 9.67157 6 10.5C6 11.3284 6.67157 12 7.5 12C7.80758 12 8.09353 11.9074 8.33152 11.7486L10.0683 13.0512C10.0239 13.1929 10 13.3437 10 13.5C10 14.3284 10.6716 15 11.5 15C12.3284 15 13 14.3284 13 13.5C13 12.6716 12.3284 12 11.5 12C11.1924 12 10.9065 12.0926 10.6685 12.2514L8.93172 10.9488C8.92465 10.9713 8.91707 10.9937 8.90898 11.0157C8.96786 10.8549 9 10.6812 9 10.5C9 10.2684 8.94753 10.0491 8.85382 9.85332L10.8533 7.85382C11.0491 7.94753 11.2684 8 11.5 8C12.3284 8 13 7.32843 13 6.5C13 5.67157 12.3284 5 11.5 5C11.2019 5 10.924 5.08698 10.6905 5.23696L7.89188 3.06024ZM6.5 3C6.77614 3 7 2.77614 7 2.5C7 2.22386 6.77614 2 6.5 2C6.22386 2 6 2.22386 6 2.5C6 2.77614 6.22386 3 6.5 3ZM11.5 7C11.7761 7 12 6.77614 12 6.5C12 6.22386 11.7761 6 11.5 6C11.2239 6 11 6.22386 11 6.5C11 6.77614 11.2239 7 11.5 7ZM8 10.5C8 10.7761 7.77614 11 7.5 11C7.22386 11 7 10.7761 7 10.5C7 10.2239 7.22386 10 7.5 10C7.77614 10 8 10.2239 8 10.5ZM11.5 14C11.7761 14 12 13.7761 12 13.5C12 13.2239 11.7761 13 11.5 13C11.2239 13 11 13.2239 11 13.5C11 13.7761 11.2239 14 11.5 14Z"
            clip-rule="evenodd"/>
    </symbol>
    <symbol id="handbag" viewBox="0 0 16 16">
      <path xmlns="http://www.w3.org/2000/svg" fill-rule="evenodd"
            d="M7.00195 9.00098V9.48633C7.00195 9.63672 7.05208 9.75977 7.15234 9.85547C7.2526 9.95117 7.37337 9.99902 7.51465 9.99902H8.49902C8.64942 9.99902 8.77246 9.94889 8.86816 9.84863C8.96387 9.74837 9.014 9.6276 9.01855 9.48633V9.00098H11.999C12.7601 9.00098 13.4323 8.74577 14.0156 8.23535V11.4824C14.0156 11.8971 13.8698 12.2549 13.5781 12.5557C13.2819 12.8519 12.9287 13 12.5186 13H3.50195C3.09179 13 2.73861 12.8519 2.44238 12.5557C2.14616 12.2594 1.99805 11.9017 1.99805 11.4824V8.23535C2.58138 8.74577 3.25358 9.00098 4.01465 9.00098H7.00195ZM5.99707 3.99707H10.0166V3.49805C10.0166 3.36133 9.96647 3.24284 9.86621 3.14258C9.76595 3.04232 9.64974 2.99447 9.51758 2.99902H6.50293C6.37077 2.99902 6.25456 3.04687 6.1543 3.14258C6.05404 3.23828 6.00163 3.35677 5.99707 3.49805V3.99707ZM1.99805 5.50098C1.99805 5.08626 2.14616 4.73307 2.44238 4.44141C2.73861 4.14974 3.09179 4.00163 3.50195 3.99707H4.99902V3.49805C4.99902 3.08333 5.14486 2.73014 5.43652 2.43848C5.72819 2.14681 6.08366 2.00098 6.50293 2.00098H9.51758C9.92774 2.00098 10.2809 2.14681 10.5771 2.43848C10.8734 2.73014 11.0192 3.08333 11.0146 3.49805V3.99707H12.5186C12.9287 3.99707 13.2819 4.1429 13.5781 4.43457C13.8744 4.72624 14.0202 5.0817 14.0156 5.50098V6C14.0156 6.55143 13.8197 7.02311 13.4277 7.41504C13.0358 7.80697 12.5596 8.00293 11.999 8.00293H4.01465C3.4541 8.00293 2.97787 7.80697 2.58594 7.41504C2.19401 7.02311 1.99805 6.55143 1.99805 6V5.50098Z"
            clip-rule="evenodd"/>
    </symbol>
    <symbol id="info" viewBox="0 0 16 16">
      <path xmlns="http://www.w3.org/2000/svg" fill-rule="evenodd"
            d="M10 10.9951V12H6.99902V10.9951H8.00391V7.99902H6.99902V7.00098H9.00195V10.9951H10ZM12.001 2.99707H4.00098C3.72298 2.99707 3.486 3.09505 3.29004 3.29102C3.09407 3.48698 2.99837 3.72396 3.00293 4.00195V12.002C3.00749 12.2845 3.10547 12.5215 3.29688 12.7129C3.48828 12.9043 3.72298 13 4.00098 13H12.001C12.279 13 12.5137 12.902 12.7051 12.7061C12.8965 12.5101 12.9945 12.2754 12.999 12.002V4.00195C12.9945 3.72396 12.8965 3.48698 12.7051 3.29102C12.5137 3.09505 12.279 2.99707 12.001 2.99707ZM4.00098 1.99902H12.001C12.5524 1.99902 13.0241 2.19499 13.416 2.58691C13.8079 2.97884 14.0016 3.45052 13.9971 4.00195V12.002C13.9971 12.5579 13.8011 13.0296 13.4092 13.417C13.0173 13.8044 12.5479 13.998 12.001 13.998H4.00098C3.44498 13.998 2.97331 13.8044 2.58594 13.417C2.19857 13.0296 2.0026 12.5579 1.99805 12.002V4.00195C1.99805 3.45052 2.19401 2.97884 2.58594 2.58691C2.97787 2.19499 3.44954 1.99902 4.00098 1.99902Z"
            clip-rule="evenodd"/>
      <path xmlns="http://www.w3.org/2000/svg"
            d="M9 5C9 5.55228 8.55228 6 8 6C7.44772 6 7 5.55228 7 5C7 4.44772 7.44772 4 8 4C8.55228 4 9 4.44772 9 5Z"/>
    </symbol>
    <symbol id="isoline" viewBox="0 0 16 16">
      <path xmlns="http://www.w3.org/2000/svg" fill-rule="evenodd"
            d="M3.36315 12.114C2.54845 9.21354 2.84223 4.40965 7.00923 2.35514C11.1762 0.300629 14.5953 7.68358 12.218 11.0868C9.84063 14.49 4.17784 15.0146 3.36315 12.114ZM5.99996 8.50004C5.32183 6.84756 5.78352 4.66874 7.99995 4.00011C10.2164 3.33149 10.6678 6.57787 9.49996 8.5C8.33208 10.4221 6.67809 10.1525 5.99996 8.50004Z"
            clip-rule="evenodd"/>
    </symbol>
    <symbol id="lamp" viewBox="0 0 16 16">
      <path xmlns="http://www.w3.org/2000/svg" fill-rule="evenodd"
            d="M8.04102 1.9668C7.07486 1.9668 6.25 2.30859 5.56641 2.99219C4.88281 3.67578 4.54102 4.50065 4.54102 5.4668C4.54102 6.15495 4.72331 6.77929 5.08789 7.33984C5.45248 7.90039 5.93554 8.3265 6.53711 8.61816V9.96484H7.54199V7.76367L6.1543 6.38281L6.8584 5.68555L8.00684 6.81348L9.18945 5.68555L9.88672 6.38281L8.54004 7.73633V9.96484H9.53809V8.61816C10.1442 8.33105 10.6296 7.90495 10.9941 7.33984C11.3587 6.77474 11.541 6.15039 11.541 5.4668C11.541 4.50065 11.1992 3.67578 10.5156 2.99219C9.83203 2.30859 9.00717 1.9668 8.04102 1.9668ZM10.543 11.9678C10.543 12.1455 10.4928 12.3255 10.3926 12.5078C10.2923 12.6901 10.1374 12.8109 9.92773 12.8701C9.72266 12.9339 9.57227 12.9658 9.47656 12.9658C9.43555 13.1663 9.35579 13.3167 9.2373 13.417L8.62207 14.0527C8.45345 14.2168 8.25065 14.2988 8.01367 14.2988C7.77669 14.2988 7.56934 14.2168 7.3916 14.0527L6.77637 13.417C6.67155 13.3122 6.59863 13.1618 6.55762 12.9658C6.11556 12.9385 5.81022 12.7653 5.6416 12.4463C5.57324 12.3096 5.53906 12.1501 5.53906 11.9678V9.19922C4.92838 8.78906 4.44304 8.25586 4.08301 7.59961C3.72298 6.94336 3.54297 6.21875 3.54297 5.42578C3.54297 4.63281 3.74349 3.89453 4.14453 3.21094C4.54557 2.51823 5.09017 1.97136 5.77832 1.57031C6.46192 1.16927 7.21386 0.96875 8.03418 0.96875C8.8545 0.96875 9.60872 1.16927 10.2969 1.57031C10.985 1.97136 11.5296 2.51823 11.9307 3.21094C12.3317 3.90365 12.5345 4.64192 12.5391 5.42578C12.5391 6.21875 12.3591 6.94336 11.999 7.59961C11.639 8.25586 11.1536 8.78906 10.543 9.19922V11.9678Z"
            clip-rule="evenodd"/>
    </symbol>
    <symbol id="layers" viewBox="0 0 16 16">
      <path xmlns="http://www.w3.org/2000/svg" fill-rule="evenodd"
            d="M2.08687 9.92747C2.265 9.62035 2.65836 9.51578 2.96548 9.69391L8 12.614L13.0345 9.69391C13.3416 9.51578 13.735 9.62035 13.9131 9.92747C14.0913 10.2346 13.9867 10.628 13.6796 10.8061L8.32253 13.9132C8.12307 14.0289 7.87693 14.0289 7.67747 13.9132L2.32042 10.8061C2.01331 10.628 1.90874 10.2346 2.08687 9.92747Z"
            clip-rule="evenodd"/>
      <path xmlns="http://www.w3.org/2000/svg" fill-rule="evenodd"
            d="M2.08687 7.67747C2.265 7.37035 2.65836 7.26578 2.96548 7.44391L8 10.364L13.0345 7.44391C13.3416 7.26578 13.735 7.37035 13.9131 7.67747C14.0913 7.98459 13.9867 8.37796 13.6796 8.55609L8.32253 11.6632C8.12307 11.7789 7.87693 11.7789 7.67747 11.6632L2.32042 8.55609C2.01331 8.37796 1.90874 7.98459 2.08687 7.67747Z"
            clip-rule="evenodd"/>
      <path xmlns="http://www.w3.org/2000/svg" fill-rule="evenodd"
            d="M7.68166 2.08436C7.87898 1.97188 8.12102 1.97188 8.31834 2.08436L13.6754 5.13793C13.876 5.25229 13.9999 5.46549 13.9999 5.69643C13.9999 5.92737 13.876 6.14057 13.6754 6.25493L8.31834 9.3085C8.12102 9.42098 7.87898 9.42098 7.68166 9.3085L2.32461 6.25493C2.12398 6.14057 2.00011 5.92737 2.00011 5.69643C2.00011 5.46549 2.12398 5.25229 2.32461 5.13793L7.68166 2.08436Z"
            clip-rule="evenodd"/>
    </symbol>
    <symbol id="layersLines" viewBox="0 0 16 16">
      <path xmlns="http://www.w3.org/2000/svg"
            d="M7.5 2C7.5 2.26522 7.39464 2.51957 7.20711 2.70711C7.01957 2.89464 6.76522 3 6.5 3C6.23478 3 5.98043 2.89464 5.79289 2.70711C5.60536 2.51957 5.5 2.26522 5.5 2C5.5 1.73478 5.60536 1.48043 5.79289 1.29289C5.98043 1.10536 6.23478 1 6.5 1C6.76522 1 7.01957 1.10536 7.20711 1.29289C7.39464 1.48043 7.5 1.73478 7.5 2ZM10.5 2C10.5 2.26522 10.3946 2.51957 10.2071 2.70711C10.0196 2.89464 9.76522 3 9.5 3C9.23478 3 8.98043 2.89464 8.79289 2.70711C8.60536 2.51957 8.5 2.26522 8.5 2C8.5 1.73478 8.60536 1.48043 8.79289 1.29289C8.98043 1.10536 9.23478 1 9.5 1C9.76522 1 10.0196 1.10536 10.2071 1.29289C10.3946 1.48043 10.5 1.73478 10.5 2ZM7.5 5C7.5 5.26522 7.39464 5.51957 7.20711 5.70711C7.01957 5.89464 6.76522 6 6.5 6C6.23478 6 5.98043 5.89464 5.79289 5.70711C5.60536 5.51957 5.5 5.26522 5.5 5C5.5 4.73478 5.60536 4.48043 5.79289 4.29289C5.98043 4.10536 6.23478 4 6.5 4C6.76522 4 7.01957 4.10536 7.20711 4.29289C7.39464 4.48043 7.5 4.73478 7.5 5ZM10.5 5C10.5 5.26522 10.3946 5.51957 10.2071 5.70711C10.0196 5.89464 9.76522 6 9.5 6C9.23478 6 8.98043 5.89464 8.79289 5.70711C8.60536 5.51957 8.5 5.26522 8.5 5C8.5 4.73478 8.60536 4.48043 8.79289 4.29289C8.98043 4.10536 9.23478 4 9.5 4C9.76522 4 10.0196 4.10536 10.2071 4.29289C10.3946 4.48043 10.5 4.73478 10.5 5ZM7.5 8C7.5 8.26522 7.39464 8.51957 7.20711 8.70711C7.01957 8.89464 6.76522 9 6.5 9C6.23478 9 5.98043 8.89464 5.79289 8.70711C5.60536 8.51957 5.5 8.26522 5.5 8C5.5 7.73478 5.60536 7.48043 5.79289 7.29289C5.98043 7.10536 6.23478 7 6.5 7C6.76522 7 7.01957 7.10536 7.20711 7.29289C7.39464 7.48043 7.5 7.73478 7.5 8ZM10.5 8C10.5 8.26522 10.3946 8.51957 10.2071 8.70711C10.0196 8.89464 9.76522 9 9.5 9C9.23478 9 8.98043 8.89464 8.79289 8.70711C8.60536 8.51957 8.5 8.26522 8.5 8C8.5 7.73478 8.60536 7.48043 8.79289 7.29289C8.98043 7.10536 9.23478 7 9.5 7C9.76522 7 10.0196 7.10536 10.2071 7.29289C10.3946 7.48043 10.5 7.73478 10.5 8ZM7.5 11C7.5 11.2652 7.39464 11.5196 7.20711 11.7071C7.01957 11.8946 6.76522 12 6.5 12C6.23478 12 5.98043 11.8946 5.79289 11.7071C5.60536 11.5196 5.5 11.2652 5.5 11C5.5 10.7348 5.60536 10.4804 5.79289 10.2929C5.98043 10.1054 6.23478 10 6.5 10C6.76522 10 7.01957 10.1054 7.20711 10.2929C7.39464 10.4804 7.5 10.7348 7.5 11ZM10.5 11C10.5 11.2652 10.3946 11.5196 10.2071 11.7071C10.0196 11.8946 9.76522 12 9.5 12C9.23478 12 8.98043 11.8946 8.79289 11.7071C8.60536 11.5196 8.5 11.2652 8.5 11C8.5 10.7348 8.60536 10.4804 8.79289 10.2929C8.98043 10.1054 9.23478 10 9.5 10C9.76522 10 10.0196 10.1054 10.2071 10.2929C10.3946 10.4804 10.5 10.7348 10.5 11ZM7.5 14C7.5 14.2652 7.39464 14.5196 7.20711 14.7071C7.01957 14.8946 6.76522 15 6.5 15C6.23478 15 5.98043 14.8946 5.79289 14.7071C5.60536 14.5196 5.5 14.2652 5.5 14C5.5 13.7348 5.60536 13.4804 5.79289 13.2929C5.98043 13.1054 6.23478 13 6.5 13C6.76522 13 7.01957 13.1054 7.20711 13.2929C7.39464 13.4804 7.5 13.7348 7.5 14ZM10.5 14C10.5 14.2652 10.3946 14.5196 10.2071 14.7071C10.0196 14.8946 9.76522 15 9.5 15C9.23478 15 8.98043 14.8946 8.79289 14.7071C8.60536 14.5196 8.5 14.2652 8.5 14C8.5 13.7348 8.60536 13.4804 8.79289 13.2929C8.98043 13.1054 9.23478 13 9.5 13C9.76522 13 10.0196 13.1054 10.2071 13.2929C10.3946 13.4804 10.5 13.7348 10.5 14Z"/>
    </symbol>
    <symbol id="link" viewBox="0 0 16 16">
      <path xmlns="http://www.w3.org/2000/svg" fill-rule="evenodd"
            d="M5.16504 12.7461C5.43848 12.7461 5.70052 12.6458 5.95117 12.4453L8.84961 9.34863C9.00456 9.79981 9.02962 10.276 8.9248 10.7773C8.81999 11.2786 8.5944 11.7025 8.24805 12.0488L7.05176 13.2451C6.55045 13.7464 5.93295 13.9971 5.19922 13.9971C4.46549 13.9971 3.84798 13.7464 3.34668 13.2451L2.75195 12.6436C2.25065 12.1377 2 11.5202 2 10.791C2 10.0618 2.25065 9.44662 2.75195 8.94531L3.94824 7.74902C4.2946 7.40267 4.70475 7.17708 5.17871 7.07227C5.65267 6.96745 6.11067 6.99251 6.55273 7.14746L3.64746 10.1484C3.41048 10.3581 3.29883 10.6064 3.3125 10.8936C3.32617 11.1807 3.43782 11.4313 3.64746 11.6455L4.44727 12.4453C4.65234 12.6458 4.8916 12.7461 5.16504 12.7461ZM5.52734 9.83398C5.52734 9.66081 5.60254 9.49902 5.75293 9.34863L9.34863 5.74609C9.49902 5.5957 9.66081 5.52051 9.83398 5.52051C10.0072 5.52051 10.1462 5.5957 10.251 5.74609C10.4014 5.84635 10.4766 5.98307 10.4766 6.15625C10.4766 6.32943 10.4014 6.49349 10.251 6.64844L6.64844 10.2441C6.49805 10.3945 6.33626 10.4697 6.16309 10.4697C5.98991 10.4697 5.85319 10.3945 5.75293 10.2441C5.60254 10.1439 5.52734 10.0072 5.52734 9.83398ZM12.6504 5.09668C12.6504 4.7959 12.5501 4.54525 12.3496 4.34473L11.5498 3.64746C11.3493 3.39681 11.0986 3.27148 10.7979 3.27148C10.4971 3.27148 10.2487 3.39681 10.0527 3.64746L7.14746 6.5459C6.99251 6.10384 6.96745 5.64584 7.07227 5.17188C7.17708 4.69791 7.40267 4.29004 7.74902 3.94824L8.95215 2.74512C9.45345 2.24837 10.0687 2 10.7979 2C11.527 2 12.1445 2.24837 12.6504 2.74512L13.252 3.34668C13.7487 3.84798 13.9971 4.46549 13.9971 5.19922C13.9971 5.93295 13.7487 6.54817 13.252 7.04492L12.0488 8.24805C11.7025 8.5944 11.2809 8.81999 10.7842 8.9248C10.2874 9.02962 9.8431 9.00456 9.45117 8.84961L12.3496 5.84863C12.5501 5.64811 12.6504 5.39746 12.6504 5.09668Z"
            clip-rule="evenodd"/>
    </symbol>
    <symbol id="list" viewBox="0 0 16 16">
      <path xmlns="http://www.w3.org/2000/svg" fill-rule="evenodd"
            d="M6.01758 12.002H14.002V12.501H6.01758V12.002ZM6.01758 9.99902H14.002V10.9971H6.01758V9.99902ZM1.99805 9.99902H4.00098V12.002H1.99805V9.99902ZM6.01758 6H14.002V6.49902H6.01758V6ZM14.002 3.99707V5.00195H6.01758V3.99707H14.002ZM1.99805 3.99707H4.00098V6H1.99805V3.99707Z"
            clip-rule="evenodd"/>
    </symbol>
    <symbol id="lock" viewBox="0 0 16 16">
      <path xmlns="http://www.w3.org/2000/svg" fill-rule="evenodd"
            d="M9.99805 6C9.99805 5.44857 9.80209 4.97689 9.41016 4.58496C9.01367 4.19303 8.542 3.99707 7.99512 3.99707C7.44824 3.99707 6.97884 4.19303 6.58691 4.58496C6.19498 4.97689 5.99902 5.44857 5.99902 6V7.49707H9.99805V6ZM4.50195 13.499C4.20117 13.499 3.95964 13.4079 3.77734 13.2256C3.59505 13.0433 3.50163 12.8018 3.49707 12.501V8.50195C3.49707 8.20117 3.58822 7.95964 3.77051 7.77734C3.9528 7.59505 4.19661 7.50163 4.50195 7.49707V6C4.50195 5.05208 4.84603 4.23177 5.53418 3.53906C6.22689 2.84635 7.0472 2.5 7.99512 2.5C8.94304 2.5 9.76562 2.84635 10.4629 3.53906C11.1556 4.23177 11.502 5.05208 11.502 6V7.49707C11.8027 7.49707 12.0443 7.58822 12.2266 7.77051C12.4089 7.9528 12.5 8.19661 12.5 8.50195V12.501C12.5 12.8018 12.4089 13.0433 12.2266 13.2256C12.0443 13.4079 11.8027 13.499 11.502 13.499H4.50195Z"
            clip-rule="evenodd"/>
    </symbol>
    <symbol id="map" viewBox="0 0 16 16">
      <path xmlns="http://www.w3.org/2000/svg" fill-rule="evenodd"
            d="M7.97266 3.99707C7.38932 4.00163 6.91537 4.1862 6.55078 4.55078C6.1862 4.91537 6.00391 5.38932 6.00391 5.97266C6.00391 6.55599 6.18847 7.03906 6.55762 7.42188C6.93132 7.80925 7.40299 8.00293 7.97266 8.00293C8.54232 8.00293 9.02311 7.80697 9.41504 7.41504C9.80697 7.02311 10.0029 6.54232 10.0029 5.97266C10.0029 5.40299 9.80925 4.93132 9.42188 4.55762C9.03906 4.18392 8.55599 3.99707 7.97266 3.99707ZM7.97266 13.1982C7.75391 13.1982 7.55111 13.139 7.36426 13.0205C7.17741 12.902 7.05664 12.7607 7.00195 12.5967L4.69824 8.20117C4.2334 7.63607 4.00098 6.94792 4.00098 6.13672C4.00098 5.32552 4.17871 4.61231 4.53418 3.99707C4.89421 3.38183 5.38183 2.89421 5.99707 2.53418C6.61231 2.17415 7.27994 1.99414 8 1.99414C8.72006 1.99414 9.38769 2.17643 10.0029 2.54102C10.6182 2.89649 11.1058 3.38183 11.4658 3.99707C11.8258 4.61231 12.0059 5.29134 12.0059 6.03418C12.0059 6.77702 11.7712 7.49935 11.3018 8.20117L8.99805 12.5967C8.94792 12.7471 8.82031 12.8861 8.61523 13.0137C8.4056 13.1367 8.19141 13.1982 7.97266 13.1982Z"
            clip-rule="evenodd"/>
    </symbol>
    <symbol id="measurement" viewBox="0 0 16 16">
      <path xmlns="http://www.w3.org/2000/svg" fill-rule="evenodd"
            d="M8.38967 10.9971C7.98407 11.0016 7.70152 10.9492 7.54201 10.8399C7.38251 10.7305 7.30275 10.6029 7.30275 10.4571C7.30275 10.3112 7.38251 10.1654 7.54201 10.0196C7.70152 9.87372 7.89976 9.8008 8.13674 9.8008C8.37372 9.8008 8.56057 9.83498 8.69729 9.90334C8.74742 9.90334 8.79982 9.92613 8.85451 9.9717C8.9092 10.0173 8.95249 10.0469 8.9844 10.0606C9.10289 10.1107 9.44696 9.85093 10.0166 9.28127L10.2012 9.0967C10.2696 9.16506 10.2354 8.7663 10.0987 7.90041C9.96193 7.63153 9.82977 7.49709 9.70217 7.49709C9.63381 7.42873 9.33303 7.39683 8.79982 7.40139L8.90236 6.99807H11.1992C11.3998 7.13023 11.5 7.26467 11.5 7.40139C11.5228 7.45152 11.5889 7.68394 11.6983 8.09865C11.9216 7.9437 12.1312 7.80243 12.3272 7.67482C12.5231 7.54722 12.6758 7.44696 12.7852 7.37404C12.8946 7.30113 12.9994 7.24416 13.0996 7.20315C13.5007 7.07098 13.8174 7.0049 14.0498 7.0049C14.2822 7.0049 14.5329 7.07098 14.8018 7.20315C14.861 7.29429 14.877 7.42645 14.8496 7.59963C14.8223 7.77281 14.738 7.90725 14.5967 8.00295C14.5466 8.00295 14.4623 8.0189 14.3438 8.0508C14.2253 8.0827 14.1068 8.09865 13.9883 8.09865C13.8698 8.09865 13.7399 8.06675 13.5987 8.00295C13.1976 8.07131 12.8991 8.13739 12.7031 8.20119C12.6393 8.26499 12.514 8.36298 12.3272 8.49514C12.1449 8.62274 12.0036 8.72528 11.9033 8.80275C11.9033 9.07164 11.9694 9.33823 12.1016 9.60256C12.1517 9.77574 12.252 9.97398 12.4024 10.1973C12.4024 10.2429 12.4229 10.2702 12.4639 10.2793C12.5049 10.2884 12.5847 10.2953 12.7031 10.2998C12.9401 10.2998 13.2067 10.1677 13.5029 9.90334L13.7969 10.2998C13.7285 10.3454 13.5668 10.4639 13.3115 10.6553C13.0563 10.8467 12.8444 10.9561 12.6758 10.9834C12.5117 11.0108 12.3887 11.0244 12.3067 11.0244L11.6983 10.9971C11.3838 10.9971 11.1446 10.9128 10.9805 10.7442C10.9258 10.6849 10.8666 10.6143 10.8028 10.5322C10.7435 10.4502 10.7093 10.4069 10.7002 10.4024C10.7002 10.3249 10.6 10.1586 10.3994 9.90334C9.86623 10.4365 9.53355 10.735 9.40139 10.7988C9.13251 10.931 8.79527 10.9971 8.38967 10.9971ZM5.90139 5.00197C5.92873 5.00197 5.97202 4.88804 6.03127 4.66018C6.09052 4.43231 6.19533 4.1771 6.34572 3.89455C6.55536 3.51629 6.88348 3.10614 7.3301 2.66408C7.77671 2.22202 8.26662 2.001 8.79982 2.001C9.49254 1.95998 9.95965 2.06024 10.2012 2.30178C10.3516 2.48407 10.4427 2.71193 10.4746 2.98537C10.5065 3.25881 10.4473 3.46389 10.2969 3.60061C10.0235 3.87404 9.77964 4.00848 9.56545 4.00393C9.17808 3.99481 8.93427 3.86949 8.834 3.62795C8.73374 3.38641 8.68817 3.18361 8.69729 3.01955V2.90334C8.49676 3.23602 8.29852 3.6006 8.10256 3.99709L7.69924 5.00197H8.99807L8.79982 6.00002H7.39846C6.40041 9.33142 5.73505 11.2979 5.40236 11.8994C5.09702 12.6104 4.75979 13.139 4.39065 13.4854C4.0215 13.8317 3.59084 14.0026 3.09865 13.9981L2.67482 14.0117C2.20086 13.9844 1.87502 13.8796 1.69729 13.6973C1.46031 13.4421 1.34865 13.155 1.36232 12.836C1.376 12.5169 1.48993 12.3028 1.70412 12.1934C2.26923 11.9108 2.71356 11.9063 3.03713 12.1797C3.24677 12.3574 3.36753 12.6309 3.39943 13C3.86428 11.4596 4.36558 9.86005 4.90334 8.20119L5.40236 6.00002H4.39748L4.60256 5.00197H5.90139Z"
            clip-rule="evenodd"/>
    </symbol>
    <symbol id="menu" viewBox="0 0 16 16">
      <path xmlns="http://www.w3.org/2000/svg" fill-rule="evenodd" d="M2 12H14V13H2V12ZM2 8H14V9H2V8ZM2 4H14V5H2V4Z"
            clip-rule="evenodd"/>
    </symbol>
    <symbol id="minus" viewBox="0 0 16 16">
      <path xmlns="http://www.w3.org/2000/svg" d="M4 7H12V9H4z"/>
    </symbol>
    <symbol id="monitoringDepth" viewBox="0 0 16 16">
      <path xmlns="http://www.w3.org/2000/svg" fill-rule="evenodd"
            d="M4.00293 9.99902H11V9.00098H4.00293V2.99902H11.999V6H12.9971V2.99902C13.0016 2.72558 12.9059 2.49089 12.71 2.29492C12.514 2.09896 12.277 2.00098 11.999 2.00098H4.00293C3.72493 2.00553 3.48796 2.10351 3.29199 2.29492C3.09603 2.48633 2.99805 2.72103 2.99805 2.99902V9.00098C2.99805 9.17415 3.04362 9.34049 3.13477 9.5C3.04362 9.65951 2.99805 9.82585 2.99805 9.99902L2 12.002C2 12.2754 2.0957 12.5101 2.28711 12.7061C2.47852 12.902 2.71549 13 2.99805 13H9V12.002H2.99805L4.00293 9.99902ZM11.001 6V3.99707H5.00098V8.00293H11L11.001 6ZM16 12H14L14 7H11.9994L11.9993 12H10L13 16L16 12Z"
            clip-rule="evenodd"/>
    </symbol>
    <symbol id="monitoringTime" viewBox="0 0 16 16">
      <path xmlns="http://www.w3.org/2000/svg" fill-rule="evenodd"
            d="M6.20731 9.99902H4.00293L2.99805 12.002H6.0226C6 12.5 6 12.5 6 13H2.99805C2.71549 13 2.47852 12.902 2.28711 12.7061C2.0957 12.5101 2 12.2754 2 12.002L2.99805 9.99902C2.99805 9.82585 3.04362 9.65951 3.13477 9.5C3.04362 9.34049 2.99805 9.17415 2.99805 9.00098V2.99902C2.99805 2.72103 3.09603 2.48633 3.29199 2.29492C3.48796 2.10351 3.72493 2.00553 4.00293 2.00098H11.999C12.277 2.00098 12.514 2.09896 12.71 2.29492C12.9059 2.49089 13.0016 2.72558 12.9971 2.99902V6.2062C12.6754 6.11541 12.3417 6.05316 11.999 6.02233V2.99902H4.00293V9.00098H6.59921C6.43765 9.31718 6.30579 9.65109 6.20731 9.99902ZM11.001 6.02233C9.49514 6.15776 8.16424 6.90012 7.25474 8.00293H5.00098V3.99707H11.001V6.02233ZM11.5 15C13.433 15 15 13.433 15 11.5C15 9.567 13.433 8 11.5 8C9.567 8 8 9.567 8 11.5C8 13.433 9.567 15 11.5 15ZM11.5 16C13.9853 16 16 13.9853 16 11.5C16 9.01472 13.9853 7 11.5 7C9.01472 7 7 9.01472 7 11.5C7 13.9853 9.01472 16 11.5 16ZM11 11V9H12V11H14V12H12H11V11Z"
            clip-rule="evenodd"/>
    </symbol>
    <symbol id="moreHorizontal" viewBox="0 0 16 16">
      <path xmlns="http://www.w3.org/2000/svg" fill-rule="evenodd"
            d="M3 9.5C2.60218 9.5 2.22064 9.34196 1.93934 9.06066C1.65804 8.77936 1.5 8.39782 1.5 8C1.5 7.60217 1.65804 7.22064 1.93934 6.93934C2.22064 6.65803 2.60218 6.5 3 6.5C3.39782 6.5 3.77936 6.65803 4.06066 6.93934C4.34196 7.22064 4.5 7.60217 4.5 8C4.5 8.39782 4.34196 8.77936 4.06066 9.06066C3.77936 9.34196 3.39782 9.5 3 9.5ZM8 9.5C7.60218 9.5 7.22064 9.34196 6.93934 9.06066C6.65804 8.77936 6.5 8.39782 6.5 8C6.5 7.60217 6.65804 7.22064 6.93934 6.93934C7.22064 6.65803 7.60218 6.5 8 6.5C8.39782 6.5 8.77936 6.65803 9.06066 6.93934C9.34196 7.22064 9.5 7.60218 9.5 8C9.5 8.39782 9.34196 8.77936 9.06066 9.06066C8.77936 9.34196 8.39782 9.5 8 9.5ZM13 9.5C12.6022 9.5 12.2206 9.34196 11.9393 9.06066C11.658 8.77936 11.5 8.39782 11.5 8C11.5 7.60218 11.658 7.22064 11.9393 6.93934C12.2206 6.65803 12.6022 6.5 13 6.5C13.3978 6.5 13.7794 6.65804 14.0607 6.93934C14.342 7.22064 14.5 7.60218 14.5 8C14.5 8.39782 14.342 8.77936 14.0607 9.06066C13.7794 9.34196 13.3978 9.5 13 9.5Z"
            clip-rule="evenodd"/>
    </symbol>
    <symbol id="moreVertical" viewBox="0 0 16 16">
      <path xmlns="http://www.w3.org/2000/svg" fill-rule="evenodd"
            d="M9.5 13C9.5 13.3978 9.34196 13.7794 9.06066 14.0607C8.77936 14.342 8.39782 14.5 8 14.5C7.60218 14.5 7.22064 14.342 6.93934 14.0607C6.65804 13.7794 6.5 13.3978 6.5 13C6.5 12.6022 6.65804 12.2206 6.93934 11.9393C7.22064 11.658 7.60218 11.5 8 11.5C8.39782 11.5 8.77936 11.658 9.06066 11.9393C9.34196 12.2206 9.5 12.6022 9.5 13ZM9.5 8C9.5 8.39782 9.34196 8.77936 9.06066 9.06066C8.77936 9.34196 8.39782 9.5 8 9.5C7.60218 9.5 7.22064 9.34196 6.93934 9.06066C6.65804 8.77936 6.5 8.39782 6.5 8C6.5 7.60218 6.65804 7.22064 6.93934 6.93934C7.22064 6.65804 7.60218 6.5 8 6.5C8.39782 6.5 8.77936 6.65804 9.06066 6.93934C9.34196 7.22064 9.5 7.60218 9.5 8ZM9.5 3C9.5 3.39782 9.34196 3.77936 9.06066 4.06066C8.77936 4.34196 8.39782 4.5 8 4.5C7.60218 4.5 7.22064 4.34196 6.93934 4.06066C6.65804 3.77936 6.5 3.39782 6.5 3C6.5 2.60218 6.65804 2.22064 6.93934 1.93934C7.22064 1.65804 7.60218 1.5 8 1.5C8.39782 1.5 8.77936 1.65804 9.06066 1.93934C9.34196 2.22064 9.5 2.60218 9.5 3Z"
            clip-rule="evenodd"/>
    </symbol>
    <symbol id="multiCopy" viewBox="0 0 16 16">
      <path xmlns="http://www.w3.org/2000/svg" fill-rule="evenodd"
            d="M3.00098 7.00488V13H9V7.00488H3.00098ZM3.00098 6H9C9.278 6 9.51269 6.09798 9.7041 6.29395C9.89551 6.48991 9.99349 6.72689 9.99805 7.00488V13C9.99805 13.278 9.90007 13.515 9.7041 13.7109C9.50814 13.9069 9.27344 14.0026 9 13.998H3.00098C2.72754 13.998 2.49284 13.8978 2.29688 13.6973C2.10091 13.4967 2.00293 13.2643 2.00293 13V7.00488C2.00293 6.72689 2.09863 6.48991 2.29004 6.29395C2.486 6.09798 2.72298 6 3.00098 6ZM12.9971 2.99902H5.5C5.5 2.72103 5.59798 2.48633 5.79395 2.29492C5.98991 2.10351 6.22461 2.00553 6.49805 2.00098H12.9971C13.2705 2.00098 13.5052 2.10124 13.7012 2.30176C13.8971 2.50228 13.9974 2.7347 14.002 2.99902V9.5C14.002 9.778 13.904 10.015 13.708 10.2109C13.512 10.4069 13.2751 10.5049 12.9971 10.5049V2.99902Z"
            clip-rule="evenodd"/>
      <path xmlns="http://www.w3.org/2000/svg" fill-rule="evenodd"
            d="M10.9941 4.99805H3.50195C3.50195 4.72005 3.59993 4.48535 3.7959 4.29395C3.99186 4.10254 4.22656 4.00456 4.5 4H10.9941C11.2676 4 11.5023 4.10026 11.6982 4.30078C11.8942 4.5013 11.9945 4.73372 11.999 4.99805V11.5C11.999 11.778 11.901 12.015 11.7051 12.2109C11.5091 12.4069 11.2721 12.5049 10.9941 12.5049V4.99805Z"
            clip-rule="evenodd"/>
    </symbol>
    <symbol id="newTemplate" viewBox="0 0 16 16">
      <path xmlns="http://www.w3.org/2000/svg" fill-rule="evenodd" d="M8 2H2V14H8V2ZM7 3H3V5H7V3ZM7 13H3V6H7V13Z"
            clip-rule="evenodd"/>
      <path xmlns="http://www.w3.org/2000/svg" fill-rule="evenodd" d="M13 2H7V11H8V6H12V8H13V2ZM12 3H8V5H12V3Z"
            clip-rule="evenodd"/>
      <path xmlns="http://www.w3.org/2000/svg" fill-rule="evenodd"
            d="M10.9961 11.9961V10H12.999V11.9961H14.9951V13.999H12.999V15.9951H10.9961V13.999H9V11.9961H10.9961Z"
            clip-rule="evenodd"/>
    </symbol>
    <symbol id="noSignal" viewBox="0 0 16 16">
      <path xmlns="http://www.w3.org/2000/svg" fill-rule="evenodd"
            d="M5.19965 4.7854L3.75739 3.34314L3.05028 4.05025L4.13711 5.13707C4.13709 5.13708 4.13708 5.13708 4.13707 5.13709L5.69703 6.69705C5.69705 6.69705 5.69706 6.69705 5.69707 6.69704L7.38834 8.3883C7.38832 8.38831 7.3883 8.38831 7.38829 8.38831L9.41766 10.4177C9.41768 10.4177 9.41771 10.4177 9.41774 10.4177L12.9498 13.9497L13.6569 13.2426L11.6052 11.1909L12.5048 10.2912C11.8704 9.66902 11.147 9.19394 10.3348 8.86598C9.84427 8.66887 9.35433 8.53044 8.86494 8.45069L6.87338 6.45913C8.27671 6.27916 9.68336 6.46996 11.0934 7.03154C12.1539 7.45452 13.0918 8.07366 13.9071 8.88897L15.2956 7.50049C14.2872 6.49821 13.1316 5.73502 11.829 5.21089C10.5263 4.68676 9.21448 4.42317 7.89343 4.4201C6.99049 4.41801 6.09256 4.53977 5.19965 4.7854ZM0.500488 7.50049C1.29339 6.7076 2.17874 6.06437 3.15657 5.5708L4.64372 7.05795C3.60851 7.47733 2.69027 8.08766 1.88896 8.88897L0.500488 7.50049ZM5.43372 8.85678C5.68476 8.75609 5.93594 8.67099 6.18727 8.6015L7.74823 10.1625C7.39145 10.1738 7.03526 10.2274 6.67967 10.3234C5.87049 10.538 5.16553 10.9456 4.56477 11.5464L4.55558 11.5556L3.28204 10.282C3.90732 9.65676 4.62454 9.18168 5.43372 8.85678ZM6.96933 13.9693C6.71186 13.7118 6.58466 13.4038 6.58772 13.0452C6.58772 12.6896 6.71646 12.3831 6.97392 12.1257C7.23139 11.8682 7.53789 11.7395 7.89344 11.7395C8.24899 11.7395 8.55703 11.8667 8.81756 12.1211C9.07503 12.3785 9.20376 12.6881 9.20376 13.0498C9.20376 13.4115 9.07656 13.7195 8.82216 13.9739C8.56776 14.2283 8.25972 14.3555 7.89804 14.3555C7.53636 14.3555 7.22679 14.2268 6.96933 13.9693Z"
            clip-rule="evenodd"/>
    </symbol>
    <symbol id="paste" viewBox="0 0 16 16">
      <path xmlns="http://www.w3.org/2000/svg" fill-rule="evenodd"
            d="M7 6H9C10.1039 6 10.9989 5.10562 11 4.00195H12.001V13H4.00098V4.00195H5C5.00106 5.10562 5.89608 6 7 6ZM10.7307 2.99707C10.3845 2.40088 9.73907 2 9 2H7C6.26093 2 5.61549 2.40088 5.26926 2.99707H4.00098C3.72298 2.99707 3.486 3.09505 3.29004 3.29102C3.09863 3.48698 3.00293 3.72396 3.00293 4.00195V13C3.00293 13.2643 3.10091 13.4967 3.29688 13.6973C3.49284 13.8978 3.72754 13.998 4.00098 13.998H12.001C12.2744 14.0026 12.5091 13.9069 12.7051 13.7109C12.901 13.515 12.999 13.278 12.999 13V4.00195C12.9945 3.72396 12.8965 3.48698 12.7051 3.29102C12.5137 3.09505 12.279 2.99707 12.001 2.99707H10.7307ZM7 3C6.44772 3 6 3.44772 6 4C6 4.55228 6.44772 5 7 5H9C9.55229 5 10 4.55228 10 4C10 3.44772 9.55229 3 9 3H7Z"
            clip-rule="evenodd"/>
    </symbol>
    <symbol id="pause" viewBox="0 0 16 16">
      <path xmlns="http://www.w3.org/2000/svg" d="M4 3H7V13H4V3Z"/>
      <path xmlns="http://www.w3.org/2000/svg" d="M9 3H12V13H9V3Z"/>
    </symbol>
    <symbol id="pc" viewBox="0 0 16 16">
      <path xmlns="http://www.w3.org/2000/svg" fill-rule="evenodd"
            d="M12.9971 12.002L11.999 9.99902H4.00293L2.99805 12.002H12.9971ZM5.00098 3.99707H11.001V8.00293H5.00098V3.99707ZM4.00293 9.00098H11.999V2.99902H4.00293V9.00098ZM12.9971 13H2.99805C2.71549 13 2.47852 12.902 2.28711 12.7061C2.0957 12.5101 2 12.2754 2 12.002L2.99805 9.99902C2.99805 9.82585 3.04362 9.65951 3.13477 9.5C3.04362 9.34049 2.99805 9.17415 2.99805 9.00098V2.99902C2.99805 2.72103 3.09603 2.48633 3.29199 2.29492C3.48796 2.10351 3.72493 2.00553 4.00293 2.00098H11.999C12.277 2.00098 12.514 2.09896 12.71 2.29492C12.9059 2.49089 13.0016 2.72558 12.9971 2.99902V9.00098C12.9971 9.17415 12.9538 9.34049 12.8672 9.5C12.9538 9.65951 12.9971 9.82585 12.9971 9.99902L14.002 12.002C14.002 12.2845 13.904 12.5215 13.708 12.7129C13.512 12.9043 13.2751 13 12.9971 13Z"
            clip-rule="evenodd"/>
    </symbol>
    <symbol id="pdf" viewBox="0 0 16 16">
      <path xmlns="http://www.w3.org/2000/svg" fill-rule="evenodd"
            d="M1 2C0.447715 2 0 2.44772 0 3V13C0 13.5523 0.447715 14 1 14H15C15.5523 14 16 13.5523 16 13V3C16 2.44772 15.5523 2 15 2H1ZM3 6H2V9V10H3V9H4C4.55228 9 5 8.55228 5 8V7C5 6.44772 4.55228 6 4 6H3ZM3 8H4V7H3V8ZM6 6H9C9.55228 6 10 6.44772 10 7V9C10 9.55228 9.55228 10 9 10H6V6ZM7 7H9V9H7V7ZM11 6H12H14V7H12V8H13V9H12V10H11V9V8V7V6Z"
            clip-rule="evenodd"/>
    </symbol>
    <symbol id="pieChart" viewBox="0 0 16 16">
      <path xmlns="http://www.w3.org/2000/svg"
            d="M14.5 7C14.4996 6.26277 14.3515 5.55509 14.0557 4.87695C13.4769 3.51887 12.4994 2.54134 11.123 1.94433C10.4404 1.6485 9.73268 1.50039 9 1.5V7H14.5Z"/>
      <path xmlns="http://www.w3.org/2000/svg"
            d="M7.99707 2.5C7.26334 2.5 6.55697 2.64811 5.87793 2.94434C4.51985 3.52767 3.54232 4.50748 2.94531 5.88379C2.64909 6.56739 2.50098 7.27376 2.50098 8.00293C2.50098 8.73666 2.64909 9.44303 2.94531 10.1221C3.53321 11.4893 4.51074 12.4691 5.87793 13.0615C6.55697 13.3532 7.26334 13.499 7.99707 13.499C8.7308 13.499 9.43945 13.3532 10.123 13.0615C11.4811 12.4691 12.4587 11.4893 13.0557 10.1221C13.3519 9.44759 13.5 8.74121 13.5 8.00293L11 8H8L7.99707 2.5Z"/>
    </symbol>
    <symbol id="pin" viewBox="0 0 16 16">
      <path xmlns="http://www.w3.org/2000/svg" fill-rule="evenodd"
            d="M9.63379 2.00098L14.002 6.36914L13.8652 6.48535C13.2819 7.00944 12.6598 7.18034 11.999 6.99805L9.63379 9.63672C10.1351 10.5208 10.2467 11.3548 9.96875 12.1387C9.7819 12.6719 9.46973 13.1208 9.03223 13.4854L6.28418 10.7168L4.00098 13L2 14L3.00293 12.002L5.28613 9.71875L2.43555 6.84766C2.84115 6.41015 3.31738 6.12077 3.86426 5.97949C4.41114 5.83822 4.88281 5.82227 5.2793 5.93164C5.68034 6.03646 6.04264 6.18229 6.36621 6.36914L8.99805 3.99707C8.94792 3.80566 8.92285 3.63021 8.92285 3.4707C8.92285 2.99219 9.15983 2.50228 9.63379 2.00098Z"
            clip-rule="evenodd"/>
    </symbol>
    <symbol id="play" viewBox="0 0 16 16">
      <path xmlns="http://www.w3.org/2000/svg" fill-rule="evenodd" d="M12.9999 8.5L3.99997 4L3.99997 13L12.9999 8.5Z"
            clip-rule="evenodd"/>
    </symbol>
    <symbol id="playBackRight" viewBox="0 0 16 16">
      <path xmlns="http://www.w3.org/2000/svg" d="M5 13L3 13L3 4L5 4L5 13Z"/>
      <path xmlns="http://www.w3.org/2000/svg" fill-rule="evenodd" d="M5 8.5L12 12L12 5L5 8.5Z" clip-rule="evenodd"/>
    </symbol>
    <symbol id="playForwardRight" viewBox="0 0 16 16">
      <path xmlns="http://www.w3.org/2000/svg" d="M11 4H13V13H11V4Z"/>
      <path xmlns="http://www.w3.org/2000/svg" fill-rule="evenodd" d="M11 8.5L4 5L4 12L11 8.5Z" clip-rule="evenodd"/>
    </symbol>
    <symbol id="print" viewBox="0 0 16 16">
      <path xmlns="http://www.w3.org/2000/svg" fill-rule="evenodd"
            d="M4.99902 12.002V13H10.0029V12.002H4.99902ZM4.99902 6.99806H10.0029V5.00001C10.0029 4.44773 9.55521 4.00001 9.00293 4.00001H5.99967C5.44752 4.00001 4.99985 4.44753 4.99967 4.99969L4.99902 6.99806ZM11.001 12.002C11.001 12.2964 11.0008 12.6627 11.0007 13.0009C11.0004 13.5529 10.5528 14 10.0008 14H4.99707C4.44593 14 3.99869 13.5541 3.99708 13.0029L3.99414 12.002L2.99902 12.001C2.44712 12.0005 2 11.5529 2 11.001V7.99904C2 7.44713 2.44712 6.99958 2.99902 6.99904L4.00098 6.99806L3.99585 4.00089C3.99491 3.44788 4.44298 2.9991 4.99599 2.99918L10.0004 2.99987C10.5525 2.99995 11.0001 3.44749 11.0002 3.99963L11.001 6.99806L12.001 6.99904C12.5529 6.99958 13 7.44713 13 7.99904V11.001C13 11.5529 12.5529 12.0005 12.001 12.001L11.001 12.002Z"
            clip-rule="evenodd"/>
    </symbol>
    <symbol id="question" viewBox="0 0 16 16">
      <path xmlns="http://www.w3.org/2000/svg" fill-rule="evenodd"
            d="M8.54817 10.5096H7.34742V11.8222H8.54817V10.5096ZM10.7259 6.36296C10.7259 5.72654 10.4723 5.21691 9.9652 4.83406C9.4133 4.40149 8.7744 4.18521 8.04848 4.18521C7.32256 4.18521 6.69111 4.40149 6.15413 4.83406C5.61715 5.26663 5.28651 5.88564 5.16221 6.69111L6.36296 6.80298C6.41765 6.33561 6.60659 5.9826 6.92977 5.74394C7.25295 5.50528 7.65817 5.38595 8.14543 5.38595C8.63269 5.38595 8.94841 5.45805 9.0926 5.60224C9.31137 5.82101 9.42076 6.11187 9.42076 6.47483C9.42076 6.94717 9.09261 7.34742 8.4363 7.67557C8.15289 7.95898 7.86203 8.21255 7.5637 8.4363L7.34742 9.0926V9.63704H8.54817V9.20447C8.58297 9.16967 8.63766 9.07769 8.71224 8.92853C8.78682 8.77937 8.84152 8.68738 8.87632 8.65258C9.42325 8.32442 9.7862 8.07085 9.9652 7.89186C10.0497 7.85208 10.1168 7.79739 10.1666 7.72778C10.2163 7.66314 10.2536 7.61591 10.2784 7.58608C10.3928 7.46178 10.4947 7.26538 10.5842 6.99689C10.6787 6.73337 10.7259 6.52206 10.7259 6.36296ZM7.99627 14C7.19577 14 6.42511 13.8409 5.68428 13.5227C4.19266 12.8763 3.12617 11.8073 2.48477 10.3157C2.16159 9.57489 2 8.80423 2 8.00373C2 7.2082 2.16159 6.43754 2.48477 5.69173C3.13611 4.19017 4.2026 3.1212 5.68428 2.48477C6.42511 2.16159 7.19577 2 7.99627 2C8.79677 2 9.56992 2.16159 10.3157 2.48477C11.8173 3.13611 12.8838 4.2026 13.5152 5.68428C13.8384 6.42511 14 7.19826 14 8.00373C14 8.8092 13.8384 9.57986 13.5152 10.3157C12.8639 11.8073 11.7974 12.8763 10.3157 13.5227C9.56992 13.8409 8.79677 14 7.99627 14Z"
            clip-rule="evenodd"/>
    </symbol>
    <symbol id="redo" viewBox="0 0 16 16">
      <path xmlns="http://www.w3.org/2000/svg"
            d="M8.00427 12.3C5.62945 12.3 3.70427 10.3748 3.70427 8C3.70427 5.62518 5.62945 3.7 8.00427 3.7C9.1317 3.7 10.1578 4.13389 10.9246 4.8438L8.9606 6.0235L14.0043 8.01014V2.99404L12.4246 3.94282C11.3279 2.74856 9.75352 2 8.00427 2C4.69056 2 2.00427 4.68629 2.00427 8C2.00427 11.3137 4.69056 14 8.00427 14C10.226 14 12.1657 12.7925 13.2028 10.9979L11.7306 10.1473C10.9875 11.434 9.59701 12.3 8.00427 12.3Z"/>
    </symbol>
    <symbol id="rewBack" viewBox="0 0 16 16">
      <path fill-rule="evenodd" clip-rule="evenodd" d="M2 8.5L9 12L9 5L2 8.5Z"/>
      <path fill-rule="evenodd" clip-rule="evenodd" d="M6 8.5L13 12L13 5L6 8.5Z"/>
    </symbol>
    <symbol id="rewForward" viewBox="0 0 16 16">
      <path d="M7 10V12L14 8.5L7 5V7L3 5V12L7 10Z"/>
    </symbol>
    <symbol id="ring" viewBox="0 0 16 16">
      <path xmlns="http://www.w3.org/2000/svg" fill-rule="evenodd"
            d="M8.00879 14.5176C7.5804 14.5176 7.21582 14.3717 6.91504 14.0801C6.61426 13.7884 6.44792 13.4284 6.41602 13H9.60156C9.57422 13.4284 9.41016 13.7884 9.10938 14.0801C8.80859 14.3717 8.44173 14.5176 8.00879 14.5176ZM12.001 6.99805V9.98535L13.7031 12.002H2.31445L4.00293 9.98535V6.99805C4.00293 6.07747 4.28776 5.25716 4.85742 4.53711C5.43164 3.81705 6.15625 3.34994 7.03125 3.13574L6.99707 2.99902C6.99707 2.72103 7.09505 2.48633 7.29102 2.29492C7.48242 2.10351 7.7194 2.00553 8.00195 2.00098C8.28451 2.00098 8.52148 2.09896 8.71289 2.29492C8.9043 2.49089 9 2.72558 9 2.99902L8.98633 3.13574C9.86589 3.34994 10.5882 3.81705 11.1533 4.53711C11.7184 5.25716 12.001 6.07747 12.001 6.99805Z"
            clip-rule="evenodd"/>
    </symbol>
    <symbol id="save" viewBox="0 0 16 16">
      <path xmlns="http://www.w3.org/2000/svg" fill-rule="evenodd"
            d="M6 3H10V4H6V3ZM10.8226 2.25113C10.6954 2.12395 10.5323 2.04081 10.3571 2.01164V2H10.2164H5.64286H2.85714C2.38376 2 2 2.38376 2 2.85714V13.1429C2 13.6162 2.38376 14 2.85714 14H13.1429C13.6162 14 14 13.6162 14 13.1429V5.78361C14 5.55628 13.9096 5.33819 13.7489 5.17744L10.8226 2.25113ZM8 11C9.10457 11 10 10.1046 10 9C10 7.89543 9.10457 7 8 7C6.89543 7 6 7.89543 6 9C6 10.1046 6.89543 11 8 11Z"
            clip-rule="evenodd"/>
    </symbol>
    <symbol id="search" viewBox="0 0 16 16">
      <path xmlns="http://www.w3.org/2000/svg" fill-rule="evenodd"
            d="M7.0332 4.32617C6.2858 4.32617 5.64779 4.59049 5.11914 5.11914C4.59049 5.64779 4.32617 6.2858 4.32617 7.0332C4.32617 7.7806 4.59049 8.41862 5.11914 8.94727C5.64779 9.47591 6.2858 9.73796 7.0332 9.7334C7.7806 9.7334 8.41862 9.46908 8.94727 8.94043C9.47591 8.41634 9.73796 7.7806 9.7334 7.0332C9.73796 6.2858 9.47591 5.64779 8.94727 5.11914C8.41862 4.59049 7.7806 4.32617 7.0332 4.32617ZM7.0332 11.5244C6.21289 11.5244 5.45638 11.3262 4.76367 10.9297C4.07552 10.5286 3.53093 9.98177 3.12988 9.28906C2.72884 8.59635 2.52604 7.84213 2.52148 7.02637C2.52148 6.21061 2.72428 5.45866 3.12988 4.77051C3.53093 4.08235 4.07552 3.53776 4.76367 3.13672C5.44727 2.73568 6.19921 2.53288 7.01953 2.52832C7.83985 2.52832 8.59635 2.72884 9.28906 3.12988C9.98177 3.52637 10.5286 4.07096 10.9297 4.76367C11.3307 5.45638 11.529 6.21289 11.5244 7.0332C11.5244 7.85352 11.3079 8.62142 10.875 9.33691L13.5 11.9619L11.9551 13.5L9.33008 10.875C8.61914 11.3079 7.85352 11.5244 7.0332 11.5244Z"
            clip-rule="evenodd"/>
    </symbol>
    <symbol id="settings" viewBox="0 0 16 16">
      <path xmlns="http://www.w3.org/2000/svg" fill-rule="evenodd"
            d="M7 2V3.7155C6.52514 3.8259 6.07979 4.0132 5.67779 4.26358L4.46447 3.05025L3.05025 4.46447L4.26358 5.67779C4.0132 6.07979 3.8259 6.52514 3.7155 7H2V9H3.7155C3.8259 9.47486 4.0132 9.92021 4.26358 10.3222L3.05025 11.5355L4.46447 12.9497L5.67779 11.7364C6.07979 11.9868 6.52514 12.1741 7 12.2845V14H9V12.2845C9.47486 12.1741 9.92021 11.9868 10.3222 11.7364L11.5355 12.9497L12.9497 11.5355L11.7364 10.3222C11.9868 9.92021 12.1741 9.47486 12.2845 9H14V7H12.2845C12.1741 6.52514 11.9868 6.07979 11.7364 5.67779L12.9497 4.46447L11.5355 3.05025L10.3222 4.26358C9.92021 4.0132 9.47486 3.8259 9 3.7155V2H7ZM10.5 8C10.5 9.38071 9.38071 10.5 8 10.5C6.61929 10.5 5.5 9.38071 5.5 8C5.5 6.61929 6.61929 5.5 8 5.5C9.38071 5.5 10.5 6.61929 10.5 8Z"
            clip-rule="evenodd"/>
    </symbol>
    <symbol id="signal" viewBox="0 0 16 16">
      <path xmlns="http://www.w3.org/2000/svg" fill-rule="evenodd"
            d="M6.96934 13.9693C6.71187 13.7118 6.58467 13.4038 6.58774 13.0452C6.58774 12.6896 6.71647 12.3831 6.97394 12.1257C7.23141 11.8682 7.53791 11.7395 7.89346 11.7395C8.24901 11.7395 8.55704 11.8667 8.81758 12.1211C9.07504 12.3785 9.20378 12.6881 9.20377 13.0498C9.20377 13.4115 9.07658 13.7195 8.82217 13.9739C8.56777 14.2283 8.25974 14.3555 7.89806 14.3555C7.53638 14.3555 7.22681 14.2268 6.96934 13.9693ZM4.5556 11.5556L3.28206 10.282C3.90734 9.65676 4.62456 9.18168 5.43374 8.85678C7.0613 8.20391 8.69496 8.20698 10.3348 8.86597C11.147 9.19394 11.8704 9.66902 12.5049 10.2912L11.2359 11.5602L11.2267 11.551C10.626 10.9502 9.91947 10.541 9.10722 10.3234C8.29498 10.1058 7.48581 10.1058 6.67969 10.3234C5.87051 10.538 5.16555 10.9456 4.56479 11.5464L4.5556 11.5556ZM1.88896 8.88896L0.500488 7.50049C1.50584 6.49514 2.65982 5.73041 3.96248 5.20629C5.26208 4.67909 6.57238 4.41703 7.89343 4.4201C9.21448 4.42316 10.5263 4.68675 11.829 5.21088C13.1316 5.73501 14.2872 6.49821 15.2956 7.50049L13.9071 8.88896C13.0918 8.07365 12.1539 7.45451 11.0934 7.03153C8.95393 6.17944 6.8222 6.18097 4.6981 7.03613C3.64064 7.45605 2.70428 8.07365 1.88896 8.88896Z"
            clip-rule="evenodd"/>
    </symbol>
    <symbol id="square" viewBox="0 0 16 16">
      <path xmlns="http://www.w3.org/2000/svg" d="M2 2H14V14H2z"/>
    </symbol>
    <symbol id="star" viewBox="0 0 16 16">
      <path xmlns="http://www.w3.org/2000/svg" fill-rule="evenodd"
            d="M8 1L9.93586 6.31765H15L10.8854 9.65098L12.5489 15L8 11.8471L3.4511 15L4.88644 9.65098L1 6.31765H6.07886L8 1Z"
            clip-rule="evenodd"/>
    </symbol>
    <symbol id="stop" viewBox="0 0 16 16">
      <path xmlns="http://www.w3.org/2000/svg" d="M3 3H13V13H3V3Z"/>
    </symbol>
    <symbol id="start" viewBox="0 0 16 16">
      <path xmlns="http://www.w3.org/2000/svg" d="M13 3H12V13H13V3Z"/>
      <path xmlns="http://www.w3.org/2000/svg"
            d="M11.7071 8.00001L9 5L8.29289 5.70711L9.79289 7.50001H3V8.50001H9.79289L8.29289 10.2929L9 11L11.7071 8.00001Z"/>
    </symbol>
    <symbol id="sum" viewBox="0 0 16 16">
      <path xmlns="http://www.w3.org/2000/svg" fill-rule="evenodd"
            d="M3 3H11.9961V6.00098L9.99997 3.99805H5.99413L8.99509 8.00391L5.99413 12.0029H9.99997L11.9961 10V13.001H3V12.0029L6.99901 8.00391L3 3.99805V3Z"
            clip-rule="evenodd"/>
    </symbol>
    <symbol id="table" viewBox="0 0 16 16">
      <path xmlns="http://www.w3.org/2000/svg" fill-rule="evenodd"
            d="M2 2H14V14H2V2ZM3 3H5V5H3V3ZM13 3H6V5H13V3ZM6 6H13V13H6V6ZM5 6H3V13H5V6Z" clip-rule="evenodd"/>
    </symbol>
    <symbol id="tabletGraph" viewBox="0 0 16 16">
      <path xmlns="http://www.w3.org/2000/svg" fill-rule="evenodd"
            d="M8 5.00005L3 5.00005L3 3.00006L8 3.00006V5.00005ZM10 13H3L3 11L10 11V13ZM13 8.99906L3 8.99906L3 6.99907L13 6.99907V8.99906Z"
            clip-rule="evenodd"/>
    </symbol>
    <symbol xmlns="http://www.w3.org/2000/svg" viewBox="0 0 16 16" id="templateDownload">
      <path fill-rule="evenodd" clip-rule="evenodd"
            d="M7.99994 2H1.99994V14H7.99994V2ZM6.99994 3H2.99994V5H6.99994V3ZM6.99994 13H2.99994V6H6.99994V13Z"></path>
      <path fill-rule="evenodd" clip-rule="evenodd"
            d="M12.9999 2H6.99994V11H7.99994V6H11.9999V7H12.9999V2ZM11.9999 3H7.99994V5H11.9999V3Z"></path>
      <path d="M14.9999 12H12.9999L13 9H10.9993L10.9993 12H8.99994L12 16L14.9999 12Z"></path>
    </symbol>
    <symbol xmlns="http://www.w3.org/2000/svg" viewBox="0 0 16 16" id="templateSettings">
      <g clip-path="url(#clip0)">
        <path fill-rule="evenodd" clip-rule="evenodd"
              d="M6.99994 2H0.999939V14H6.99994V2ZM5.99994 3H1.99994V5H5.99994V3ZM5.99994 13H1.99994V6H5.99994V13Z"></path>
        <path fill-rule="evenodd" clip-rule="evenodd"
              d="M11.9999 2H5.99994V11H6.99994V6H10.9999H11.9999V2ZM10.9999 3H6.99994V5H10.9999V3Z"></path>
        <path fill-rule="evenodd" clip-rule="evenodd"
              d="M11.9166 8V9.00071C11.6396 9.06511 11.3798 9.17437 11.1453 9.32042L10.4375 8.61265L9.61259 9.43761L10.3204 10.1454C10.1743 10.3799 10.065 10.6397 10.0006 10.9167H8.99994V12.0833H10.0006C10.065 12.3603 10.1743 12.6201 10.3204 12.8546L9.61259 13.5624L10.4375 14.3874L11.1453 13.6796C11.3798 13.8256 11.6396 13.9349 11.9166 13.9993V15H13.0833V13.9993C13.3603 13.9349 13.6201 13.8256 13.8546 13.6796L14.5623 14.3874L15.3873 13.5624L14.6795 12.8546C14.8256 12.6201 14.9348 12.3603 14.9992 12.0833H15.9999V10.9167H14.9992C14.9348 10.6397 14.8256 10.3799 14.6795 10.1454L15.3873 9.43761L14.5623 8.61265L13.8546 9.32042C13.6201 9.17437 13.3603 9.06511 13.0833 9.00071V8H11.9166ZM13.9583 11.5C13.9583 12.3054 13.3054 12.9583 12.4999 12.9583C11.6945 12.9583 11.0416 12.3054 11.0416 11.5C11.0416 10.6946 11.6945 10.0417 12.4999 10.0417C13.3054 10.0417 13.9583 10.6946 13.9583 11.5Z"></path>
      </g>
      <defs>
        <clipPath id="clip0">
          <rect width="16" height="16" fill="white"></rect>
        </clipPath>
      </defs>
    </symbol>
    <symbol xmlns="http://www.w3.org/2000/svg" viewBox="0 0 16 16" id="templateUpload">
      <path fill-rule="evenodd" clip-rule="evenodd" d="M8 2H2V14H8V2ZM7 3H3V5H7V3ZM7 13H3V6H7V13Z"></path>
      <path fill-rule="evenodd" clip-rule="evenodd" d="M13 2H7V11H8V6H12V7H13V2ZM12 3H8V5H12V3Z"></path>
      <path d="M9 13L11 13L11 16L13.0006 16L13.0007 13L15 13L12 9L9 13Z"></path>
    </symbol>
    <symbol id="tick" viewBox="0 0 16 16">
      <path xmlns="http://www.w3.org/2000/svg" fill-rule="evenodd"
            d="M3 8.21174L4.65396 6.5409L6.73476 8.64293L11.346 4L13 5.67084L6.73476 12L3 8.21174Z"
            clip-rule="evenodd"/>
    </symbol>
    <symbol id="timeOut" viewBox="0 0 16 16">
      <path xmlns="http://www.w3.org/2000/svg" fill-rule="evenodd"
            d="M4.99902 13V10.9971C5.00357 10.6553 5.31574 10.2474 5.93554 9.77344C6.55533 9.29948 7.24348 8.88705 7.99999 8.53613C8.04642 8.5575 8.09262 8.57912 8.13861 8.60099C8.09263 8.57912 8.04643 8.55749 8 8.53613L9.14843 8.00293C9.48567 7.82519 9.8024 7.63835 10.0986 7.44238C11.3656 6.60384 11.999 5.79037 11.999 5.00195V2.99902H12.4844C12.6256 2.99447 12.7464 2.94661 12.8467 2.85547C12.9469 2.76432 12.9971 2.64583 12.9971 2.5V1.51562C13.0016 1.37435 12.9538 1.25358 12.8535 1.15332C12.7532 1.05306 12.6302 1.00293 12.4844 1.00293H3.51562C3.37434 1.00293 3.25357 1.05078 3.15331 1.14648C3.05305 1.24219 3.00292 1.36523 3.00292 1.51562V2.5C2.99836 2.64128 3.04622 2.75977 3.14648 2.85547C3.24674 2.95117 3.36978 2.99902 3.51562 2.99902H4.00097V5.00195C3.99185 5.59896 4.38606 6.23698 5.18359 6.91602C5.61197 7.2806 6.16796 7.6429 6.85155 8.00293C6.51887 8.17155 6.20214 8.35384 5.90136 8.5498C4.63443 9.37468 4.00097 10.1904 4.00097 10.9971V13H3.51562C3.37434 13 3.25357 13.0456 3.15331 13.1367C3.05305 13.2279 3.00292 13.3486 3.00292 13.499V14.4834C2.99836 14.6292 3.04622 14.7523 3.14648 14.8525C3.24674 14.9528 3.36978 15.0029 3.51562 15.0029H8V13H4.99902ZM4.99902 2.99902H11.001V5.00195C10.9964 5.34831 10.6842 5.75846 10.0644 6.23242C9.44465 6.70638 8.75651 7.11881 7.99999 7.46973C7.25715 7.12793 6.57128 6.72005 5.94237 6.24609C5.31347 5.77213 4.99902 5.35742 4.99902 5.00195V2.99902ZM13 12V10C13 9.44772 12.5523 9 12 9C11.4477 9 11 9.44772 11 10V12H13ZM15 13C15 12.4477 14.5523 12 14 12V10C14 8.89543 13.1046 8 12 8C10.8954 8 10 8.89543 10 10V12C9.44772 12 9 12.4477 9 13V15C9 15.5523 9.44772 16 10 16H14C14.5523 16 15 15.5523 15 15V13Z"
            clip-rule="evenodd"/>
    </symbol>
    <symbol id="tree" viewBox="0 0 16 16">
      <path xmlns="http://www.w3.org/2000/svg" fill-rule="evenodd"
            d="M4.99999 5H9.99997V2H2V5H3.99999V12H6.99998V13H14V10H6.99998V11H4.99999V8H6.99998V9H14V6H6.99998V7H4.99999V5Z"
            clip-rule="evenodd"/>
    </symbol>
    <symbol id="treeTurn" viewBox="0 0 16 16">
      <path xmlns="http://www.w3.org/2000/svg" fill-rule="evenodd"
            d="M4.99999 5H9.99997V2H2V5H3.99999V12H6.99998V13L11 10H6.99998V11H4.99999V8H6.99998V9H14V6H6.99998V7H4.99999V5ZM13 16V14H16V11.9993L13 11.9993V10L9 13L13 16Z"
            clip-rule="evenodd"/>
    </symbol>
    <symbol id="undo" viewBox="0 0 16 16">
      <path xmlns="http://www.w3.org/2000/svg"
            d="M7.99999 12.3C10.3748 12.3 12.3 10.3748 12.3 8C12.3 5.62518 10.3748 3.7 7.99999 3.7C6.87256 3.7 5.84648 4.13389 5.07961 4.8438L7.04366 6.0235L2 8.01014V2.99404L3.5796 3.94282C4.67632 2.74856 6.25074 2 7.99999 2C11.3137 2 14 4.68629 14 8C14 11.3137 11.3137 14 7.99999 14C5.77826 14 3.83858 12.7925 2.80145 10.9979L4.27367 10.1473C5.01677 11.434 6.40725 12.3 7.99999 12.3Z"/>
    </symbol>
    <symbol id="unpin" viewBox="0 0 16 16">
      <path xmlns="http://www.w3.org/2000/svg" fill-rule="evenodd"
            d="M9.63379 2.00098L14.002 6.36914L13.8652 6.48535C13.2819 7.00944 12.6598 7.18034 11.999 6.99805L9.83098 9.41673L13.3137 12.8995L12.6066 13.6066L10.112 11.112C10.112 11.112 10.1121 11.1121 10.1121 11.1121L4.86442 5.86444C4.86444 5.86444 4.86445 5.86444 4.86447 5.86444L2.70714 3.70711L3.41425 3L6.58563 6.17138L8.99805 3.99707C8.94792 3.80566 8.92285 3.63021 8.92285 3.4707C8.92285 2.99219 9.15983 2.50228 9.63379 2.00098ZM3.6347 6.04893L9.90101 12.3152C9.71016 12.7717 9.42056 13.1617 9.03223 13.4854L6.28418 10.7168L4.00098 13L2 14L3.00293 12.002L5.28613 9.71875L2.43555 6.84766C2.78333 6.47252 3.18305 6.20628 3.6347 6.04893Z"
            clip-rule="evenodd"/>
    </symbol>
    <symbol id="update" viewBox="0 0 16 16">
      <path xmlns="http://www.w3.org/2000/svg"
            d="M12.3911 12.0888L14.0015 13.0186V8.00252L9.65741 10.5106L10.8642 11.2073C10.1037 11.8869 9.10009 12.3 7.99998 12.3C5.96945 12.3 4.26765 10.8926 3.81688 9.00005L2.08295 9.00007C2.55905 11.8377 5.027 14 7.99998 14C9.73371 14 11.2957 13.2647 12.3911 12.0888Z"/>
      <path xmlns="http://www.w3.org/2000/svg"
            d="M7.99998 3.7C10.0316 3.7 11.7341 5.10888 12.1838 7.0029L13.9175 7.00288C13.4426 4.16375 10.974 2 7.99998 2C6.26605 2 4.70392 2.7355 3.60853 3.91154L2.00275 2.98444L2.00275 8.00054L6.34682 5.49249L5.13538 4.79306C5.89588 4.11327 6.89967 3.7 7.99998 3.7Z"/>
    </symbol>
    <symbol id="upload" viewBox="0 0 16 16">
      <path xmlns="http://www.w3.org/2000/svg" fill-rule="evenodd"
            d="M13.5 11.4971V13.5H2.50102V11.4971H13.5ZM6.47292 6.99835H3.67703L7.97682 2.50031L12.2766 6.99835H9.47388L9.50099 10.499H6.50003L6.47292 6.99835Z"
            clip-rule="evenodd"/>
    </symbol>
    <symbol id="user" viewBox="0 0 16 16">
      <path xmlns="http://www.w3.org/2000/svg" fill-rule="evenodd"
            d="M11.5544 11.3235C12.3681 10.4537 12.8661 9.28501 12.8661 8C12.8661 5.3125 10.6875 3.13386 8 3.13386C5.3125 3.13386 3.13386 5.3125 3.13386 8C3.13386 9.25617 3.60984 10.4012 4.39128 11.2645C4.72767 10.7786 5.15536 10.3634 5.65236 10.0458C6.02867 9.80542 6.43643 9.62633 6.86133 9.51313C5.94468 9.09748 5.30709 8.17438 5.30709 7.10236C5.30709 5.6412 6.49159 4.45669 7.95276 4.45669C9.41392 4.45669 10.5984 5.6412 10.5984 7.10236C10.5984 8.17438 9.96084 9.09747 9.04419 9.51313C9.46909 9.62632 9.87684 9.80541 10.2532 10.0458C10.7702 10.3761 11.2122 10.8121 11.5544 11.3235ZM14 8C14 11.3137 11.3137 14 8 14C4.68629 14 2 11.3137 2 8C2 4.68629 4.68629 2 8 2C11.3137 2 14 4.68629 14 8Z"
            clip-rule="evenodd"/>
    </symbol>
    <symbol id="warning" viewBox="0 0 16 16">
      <path xmlns="http://www.w3.org/2000/svg" fill-rule="evenodd"
            d="M8.99226 11.5039V10.499C8.99226 10.3623 8.94441 10.2438 8.84871 10.1436C8.753 10.0433 8.63451 9.99544 8.49324 10H7.48836C7.35164 10 7.23315 10.0479 7.13289 10.1436C7.03263 10.2393 6.98706 10.3577 6.99617 10.499V11.5039C6.99617 11.6406 7.04175 11.7568 7.13289 11.8525C7.22404 11.9482 7.34253 11.9984 7.48836 12.0029H8.49324C8.6254 12.0029 8.74161 11.9528 8.84187 11.8525C8.94213 11.7523 8.99226 11.6361 8.99226 11.5039ZM8.99226 8.50293V5.50195C8.99226 5.36979 8.94441 5.25358 8.84871 5.15332C8.753 5.05306 8.63451 5.00293 8.49324 5.00293H7.4952C7.36303 5.00293 7.24682 5.05078 7.14656 5.14648C7.0463 5.24219 6.99617 5.36068 6.99617 5.50195V8.50293C6.99617 8.63965 7.04402 8.75814 7.13973 8.8584C7.23543 8.95866 7.35392 9.00651 7.4952 9.00195H8.49324C8.62996 9.00195 8.74845 8.9541 8.84871 8.8584C8.94441 8.75814 8.99226 8.63965 8.99226 8.50293ZM8.87605 3.1709C9.031 3.2666 9.11531 3.36458 9.12898 3.46484L13.7637 11.0186C13.7728 11.0368 13.7865 11.0618 13.8047 11.0938C13.946 11.3444 14.0144 11.6201 14.0098 11.9209C14.0053 12.2217 13.8526 12.4701 13.5518 12.666C13.365 12.7936 13.1963 12.8825 13.046 12.9326L12.8204 13.001H3.14756C2.79209 12.9281 2.49587 12.7617 2.25889 12.502C2.16318 12.3971 2.09255 12.265 2.04697 12.1055C1.94671 11.7682 1.97861 11.4561 2.14268 11.1689L2.23838 10.9844L6.86629 3.49902C6.86629 3.46256 6.89591 3.41244 6.95516 3.34863C7.16024 3.11621 7.49291 3 7.9532 3C8.41349 3 8.7211 3.05697 8.87605 3.1709Z"
            clip-rule="evenodd"/>
    </symbol>
    <symbol id="well" viewBox="0 0 16 16">
      <path xmlns="http://www.w3.org/2000/svg" fill-rule="evenodd"
            d="M8.42688 2.28736C8.26603 1.88817 7.73397 1.88817 7.57312 2.28736L6.93996 3.85875L8 4.53525L9.06004 3.85875L8.42688 2.28736ZM9.42932 4.77524L8.90268 5.11132L9.79391 5.68009L9.42932 4.77524ZM9.89984 6.89985L8 5.6874L6.10092 6.89936L8.00296 8.17047L9.89984 6.89985ZM7.13101 8.75455L5.42633 7.61532L4.16742 10.7397L7.13101 8.75455ZM3.52306 12.3389L8.00354 9.33765L12.4705 12.3228L13.1462 14L14 13.6108L9.28063 1.89818C8.79809 0.700605 7.20191 0.700609 6.71937 1.89818L2 13.6108L2.85375 14L3.52306 12.3389ZM11.8271 10.7261L8.87549 8.75357L10.5739 7.61589L11.8271 10.7261ZM6.20609 5.68009L6.57068 4.77524L7.09732 5.11132L6.20609 5.68009Z"
            clip-rule="evenodd"/>
    </symbol>
    <symbol id="wrench" viewBox="0 0 16 16">
      <path xmlns="http://www.w3.org/2000/svg" fill-rule="evenodd"
            d="M2.07562 3.66791C1.97415 4.04956 1.97481 4.45116 2.07754 4.83247C2.18028 5.21378 2.38148 5.5614 2.66098 5.84048C2.94048 6.11956 3.28845 6.3203 3.67002 6.42258C4.0516 6.52486 4.45336 6.52509 4.83505 6.42324L9.5924 11.1119C9.49353 11.4477 9.4743 11.8018 9.53624 12.1463C9.59818 12.4908 9.73959 12.8161 9.94923 13.0964C10.1589 13.3767 10.431 13.6043 10.744 13.7612C11.057 13.918 11.4023 13.9998 11.7524 14C12.0749 13.9996 12.3936 13.9298 12.6869 13.7955C12.9801 13.6612 13.2411 13.4654 13.452 13.2215C13.6629 12.9775 13.819 12.6911 13.9095 12.3817C14.0001 12.0722 14.023 11.7469 13.9768 11.4278C13.9306 11.1087 13.8163 10.8032 13.6416 10.5321C13.467 10.261 13.2361 10.0306 12.9646 9.85651C12.6931 9.6824 12.3874 9.56865 12.0681 9.52298C11.7488 9.4773 11.4234 9.50077 11.1139 9.59178L6.42334 4.83634C6.52572 4.45466 6.52588 4.05277 6.42377 3.67101C6.32167 3.28925 6.12091 2.94105 5.84164 2.66136C5.56237 2.38167 5.21442 2.18033 4.8327 2.07754C4.45099 1.97476 4.04894 1.97414 3.66691 2.07576L5.2732 3.68216L5.00011 5.00058L3.68191 5.27356L2.07562 3.66791ZM12.1065 10.4317L11.7524 10.2502L11.399 10.4317L11.0021 10.4512L10.7868 10.785L10.4529 11.0002L10.4334 11.3969L10.2519 11.7501L10.4334 12.1034L10.4529 12.5001L10.7868 12.7153L11.0021 13.0491L11.399 13.0686L11.7524 13.25L12.1057 13.0686L12.5026 13.0491L12.718 12.7153L13.0518 12.5001L13.0713 12.1034L13.2529 11.7501L13.0713 11.3969L13.0518 11.0002L12.718 10.785L12.5026 10.4512L12.1057 10.4317H12.1065Z"
            clip-rule="evenodd"/>
    </symbol>
    <symbol id="xls" viewBox="0 0 16 16">
      <path xmlns="http://www.w3.org/2000/svg" fill-rule="evenodd"
            d="M0 3C0 2.44772 0.447715 2 1 2H15C15.5523 2 16 2.44772 16 3V13C16 13.5523 15.5523 14 15 14H1C0.447715 14 0 13.5523 0 13V3ZM8 6H7V9V10H8H10V9H8V6ZM3.38995 8.00097L2 6H3.21759L3.99904 7.12497L4.78124 6H6L4.60812 8.00181L5.99615 10H4.77856L3.99904 8.87781L3.21877 10H2L3.38995 8.00097ZM11 7C11 6.44772 11.4477 6 12 6H14V7H12V8H11V7ZM13 8H14V9C14 9.55228 13.5523 10 13 10H11L11 9H13V8Z"
            clip-rule="evenodd"/>
    </symbol>
    <symbol id="xyz" viewBox="0 0 16 16">
      <path xmlns="http://www.w3.org/2000/svg" fill-rule="evenodd"
            d="M11.5335 4.49999L7.99999 0.966522L4.46653 4.49999L7.13959 4.48549L7.1362 7.64378L3.88281 10.9033L2.00293 9.00292V14H7L5.09961 12.0996L8 9.19921L10.9004 12.0996L9 14H13.9971V9.00292L12.1172 10.9033L8.84589 7.62584V4.49999L11.5335 4.49999Z"
            clip-rule="evenodd"/>
    </symbol>
    <symbol id="vertical" viewBox="0 0 4 14">
      <rect y="0.5" width="1" height="1"/>
      <rect x="3" y="0.5" width="1" height="1"/>
      <rect y="3.5" width="1" height="1"/>
      <rect x="3" y="3.5" width="1" height="1"/>
      <rect y="6.5" width="1" height="1"/>
      <rect x="3" y="6.5" width="1" height="1"/>
      <rect y="9.5" width="1" height="1"/>
      <rect x="3" y="9.5" width="1" height="1"/>
      <rect y="12.5" width="1" height="1"/>
      <rect x="3" y="12.5" width="1" height="1"/>
    </symbol>
    <symbol id="horizontal" viewBox="0 0 14 4">
      <rect x="0.5" width="1" height="1"/>
      <rect x="0.5" y="3" width="1" height="1"/>
      <rect x="3.5" width="1" height="1"/>
      <rect x="3.5" y="3" width="1" height="1"/>
      <rect x="6.5" width="1" height="1"/>
      <rect x="6.5" y="3" width="1" height="1"/>
      <rect x="9.5" width="1" height="1"/>
      <rect x="9.5" y="3" width="1" height="1"/>
      <rect x="12.5" width="1" height="1"/>
      <rect x="12.5" y="3" width="1" height="1"/>
    </symbol>
    <symbol id="srt" viewBox="0 0 14 14">
      <path fill-rule="evenodd" clip-rule="evenodd"
            d="M14.5 3.5V1H15.5V3.5C15.5 4.32843 14.8284 5 14 5H12.5C12.2239 5 12 5.22386 12 5.5V7C12 7.82843 11.3284 8.5 10.5 8.5H9C8.72386 8.5 8.5 8.72386 8.5 9V10.5C8.5 11.3284 7.82843 12 7 12H5.5C5.22386 12 5 12.2239 5 12.5V14C5 14.8284 4.32843 15.5 3.5 15.5H1V14.5H3.5C3.77614 14.5 4 14.2761 4 14V12.5C4 11.6716 4.67157 11 5.5 11H7C7.27614 11 7.5 10.7761 7.5 10.5V9C7.5 8.17157 8.17157 7.5 9 7.5H10.5C10.7761 7.5 11 7.27614 11 7V5.5C11 4.67157 11.6716 4 12.5 4H14C14.2761 4 14.5 3.77614 14.5 3.5Z"/>
    </symbol>
    <symbol id="nolteAnalysis" viewBox="0 0 14 14">
      <g clip-path="url(#clip0_3647:14594)">
        <path fill-rule="evenodd" clip-rule="evenodd"
              d="M3.06024 5.10812C2.88715 5.03839 2.69806 5 2.5 5C1.67157 5 1 5.67157 1 6.5C1 7.32843 1.67157 8 2.5 8C3.32843 8 4 7.32843 4 6.5C4 6.2355 3.93154 5.98698 3.81137 5.77121L6.02616 2.92362C6.1751 2.97317 6.33441 3 6.5 3C6.73158 3 6.95091 2.94752 7.14673 2.8538L9.1462 4.85327C9.05248 5.0491 9 5.26842 9 5.5C9 6.32843 9.67157 7 10.5 7C11.3284 7 12 6.32843 12 5.5C12 5.19242 11.9074 4.90647 11.7486 4.66848L13.0512 2.93171C13.1929 2.97608 13.3437 3 13.5 3C14.3284 3 15 2.32843 15 1.5C15 0.671572 14.3284 -5.82604e-07 13.5 -5.46392e-07C12.6716 -5.10181e-07 12 0.671572 12 1.5C12 1.80757 12.0926 2.09351 12.2514 2.3315L10.9488 4.06828C10.9713 4.07535 10.9937 4.08293 11.0157 4.09102C10.8549 4.03214 10.6812 4 10.5 4C10.2684 4 10.0491 4.05247 9.85332 4.14618L7.85382 2.14669C7.94753 1.95087 8 1.73156 8 1.5C8 0.671572 7.32843 -2.76624e-07 6.5 -2.40413e-07C5.67157 -2.04201e-07 5 0.671573 5 1.5C5 1.79814 5.08698 2.07597 5.23696 2.30949L3.06024 5.10812ZM3 6.5C3 6.22386 2.77614 6 2.5 6C2.22386 6 2 6.22386 2 6.5C2 6.77614 2.22386 7 2.5 7C2.77614 7 3 6.77614 3 6.5ZM7 1.5C7 1.22386 6.77614 1 6.5 1C6.22386 1 6 1.22386 6 1.5C6 1.77614 6.22386 2 6.5 2C6.77614 2 7 1.77614 7 1.5ZM10.5 5C10.7761 5 11 5.22386 11 5.5C11 5.77614 10.7761 6 10.5 6C10.2239 6 10 5.77614 10 5.5C10 5.22386 10.2239 5 10.5 5ZM14 1.5C14 1.22386 13.7761 0.999999 13.5 0.999999C13.2239 0.999999 13 1.22386 13 1.5C13 1.77614 13.2239 2 13.5 2C13.7761 2 14 1.77614 14 1.5Z"/>
        <path d="M10 9H11V16H10V9Z"/>
        <path d="M14 9H15V16H14V9Z"/>
        <path fill-rule="evenodd" clip-rule="evenodd"
              d="M10.4987 9L10.0068 9.29312L14.0037 16H14.5013L14.9932 15.7069L10.9963 9H10.4987Z"/>
      </g>
      <defs>
        <clipPath id="clip0_3647:14594">
          <rect width="16" height="16"/>
        </clipPath>
      </defs>
    </symbol>
    <symbol id="miniFrac" viewBox="0 0 14 14">
      <path fill-rule="evenodd" clip-rule="evenodd"
            d="M0 6V5H1.99999C2.53587 5 2.96681 5.23134 3.2993 5.58952C3.61815 5.933 3.84959 6.39433 4.03314 6.88837C4.32339 7.6696 4.53575 8.65847 4.74737 9.64385C4.80117 9.89435 4.85491 10.1446 4.90988 10.3912C5.18942 11.6452 5.50337 12.8246 6.00141 13.6876C6.48506 14.5257 7.09907 15 7.99999 15C8.90091 15 9.51492 14.5257 9.99858 13.6876C10.4966 12.8246 10.8106 11.6452 11.0901 10.3912C11.1451 10.1446 11.1988 9.89435 11.2526 9.64385C11.4642 8.65847 11.6766 7.6696 11.9668 6.88837C12.1504 6.39433 12.3818 5.933 12.7007 5.58952C13.0332 5.23134 13.4641 5 14 5H15.9995L16 6H14C13.7859 6 13.6087 6.08116 13.4336 6.26985C13.2448 6.47325 13.069 6.79317 12.9042 7.23663C12.6417 7.94319 12.4497 8.83563 12.2398 9.81145C12.1837 10.0719 12.1264 10.3384 12.0661 10.6088C11.7884 11.8548 11.4487 13.1754 10.8647 14.1874C10.2663 15.2243 9.36991 16 7.99999 16C6.63007 16 5.73366 15.2243 5.13528 14.1874C4.55128 13.1754 4.21159 11.8548 3.93384 10.6088C3.87356 10.3384 3.81624 10.0719 3.7602 9.81146C3.55025 8.83563 3.35825 7.94319 3.09574 7.23663C2.93098 6.79317 2.7552 6.47325 2.5664 6.26985C2.39124 6.08116 2.21411 6 1.99999 6H0Z"/>
      <path fill-rule="evenodd" clip-rule="evenodd"
            d="M0 1L0 0H3.99997C4.94745 0 5.70423 0.30525 6.29461 0.838819C6.87259 1.36119 7.26111 2.07488 7.53925 2.84856C7.98669 4.09322 8.18798 5.62246 8.3707 7.01056C8.41218 7.32574 8.45271 7.63364 8.49495 7.92929C8.54464 8.27713 8.59077 8.6248 8.63648 8.96929C8.82689 10.4043 9.00998 11.7842 9.41259 12.8917C9.65806 13.5669 9.96956 14.0904 10.374 14.4439C10.7668 14.7873 11.2807 15 12 15H15.9993L15.9999 16H12C11.0595 16 10.306 15.7127 9.71581 15.1968C9.13714 14.6909 8.74985 13.9956 8.47276 13.2333C8.02898 12.0126 7.82796 10.4903 7.63755 9.04845C7.59375 8.71673 7.55051 8.38927 7.505 8.07071C7.45879 7.74724 7.41549 7.41988 7.37214 7.09215C7.18923 5.70924 7.00543 4.31962 6.59821 3.18686C6.34996 2.49631 6.03396 1.95114 5.6241 1.58072C5.22662 1.22149 4.71222 1 3.99997 1H0Z"/>
    </symbol>
    <symbol id="hornerAnalysis" viewBox="0 0 14 14">
      <g clip-path="url(#clip0_3647:14595)">
        <path fill-rule="evenodd" clip-rule="evenodd" d="M10 9H11V12L14 12V9H15V12V13V16H14V13H11L11 16H10V9Z"/>
        <path fill-rule="evenodd" clip-rule="evenodd"
              d="M3.06024 5.10812C2.88715 5.03839 2.69806 5 2.5 5C1.67157 5 1 5.67157 1 6.5C1 7.32843 1.67157 8 2.5 8C3.32843 8 4 7.32843 4 6.5C4 6.2355 3.93154 5.98698 3.81137 5.77121L6.02616 2.92362C6.1751 2.97317 6.33441 3 6.5 3C6.73158 3 6.95091 2.94752 7.14673 2.8538L9.1462 4.85327C9.05248 5.0491 9 5.26842 9 5.5C9 6.32843 9.67157 7 10.5 7C11.3284 7 12 6.32843 12 5.5C12 5.19242 11.9074 4.90647 11.7486 4.66848L13.0512 2.93171C13.1929 2.97608 13.3437 3 13.5 3C14.3284 3 15 2.32843 15 1.5C15 0.671572 14.3284 -5.82604e-07 13.5 -5.46392e-07C12.6716 -5.10181e-07 12 0.671572 12 1.5C12 1.80757 12.0926 2.09351 12.2514 2.3315L10.9488 4.06828C10.9713 4.07535 10.9937 4.08293 11.0157 4.09102C10.8549 4.03214 10.6812 4 10.5 4C10.2684 4 10.0491 4.05247 9.85332 4.14618L7.85382 2.14669C7.94753 1.95087 8 1.73156 8 1.5C8 0.671572 7.32843 -2.76624e-07 6.5 -2.40413e-07C5.67157 -2.04201e-07 5 0.671573 5 1.5C5 1.79814 5.08698 2.07597 5.23696 2.30949L3.06024 5.10812ZM3 6.5C3 6.22386 2.77614 6 2.5 6C2.22386 6 2 6.22386 2 6.5C2 6.77614 2.22386 7 2.5 7C2.77614 7 3 6.77614 3 6.5ZM7 1.5C7 1.22386 6.77614 1 6.5 1C6.22386 1 6 1.22386 6 1.5C6 1.77614 6.22386 2 6.5 2C6.77614 2 7 1.77614 7 1.5ZM10.5 5C10.7761 5 11 5.22386 11 5.5C11 5.77614 10.7761 6 10.5 6C10.2239 6 10 5.77614 10 5.5C10 5.22386 10.2239 5 10.5 5ZM14 1.5C14 1.22386 13.7761 0.999999 13.5 0.999999C13.2239 0.999999 13 1.22386 13 1.5C13 1.77614 13.2239 2 13.5 2C13.7761 2 14 1.77614 14 1.5Z"/>
      </g>
      <defs>
        <clipPath id="clip0_3647:14595">
          <rect width="16" height="16"/>
        </clipPath>
      </defs>
    </symbol>
  </defs>
</svg>
